# This file uses centimeters as units for non-parametric coordinates.

mtllib Man.mtl
g default
v -18.497941 -0.384155 16.086847
v 18.497946 -0.384155 16.086847
v -17.345238 3.196257 14.600166
v 17.345243 3.196257 14.600166
v -22.169501 -0.384154 -0.015919
v -14.399384 -0.384155 0.742468
v 14.399388 -0.384155 0.742468
v 22.169501 -0.384154 -0.015919
v 26.525854 -0.384155 11.554554
v 23.390341 -0.384155 16.086847
v 24.872890 3.196257 10.067874
v 23.390341 3.196257 16.086847
v -26.525854 -0.384155 11.554554
v -23.390337 -0.384155 16.086847
v -24.872890 3.196257 10.067874
v -23.390337 3.196257 16.086847
v -22.169501 3.196258 -0.015919
v -14.399384 3.196257 0.742468
v 14.399388 3.196257 0.742468
v 22.169501 3.196258 -0.015919
v -19.036577 3.196258 -10.155338
v -19.036577 -0.384154 -10.155338
v 19.036577 3.196258 -10.155338
v 19.036577 -0.384154 -10.155338
v -14.521471 3.196258 -9.776103
v -12.335962 3.196257 -7.427877
v -14.521471 -0.384154 -9.776103
v -12.335962 -0.384155 -7.427877
v 12.335967 3.196257 -7.427877
v 14.521474 3.196258 -9.776103
v 14.521474 -0.384154 -9.776103
v 12.335967 -0.384155 -7.427877
v -23.095733 39.941893 4.036235
v -7.567352 39.941893 4.794612
v -6.482953 39.941893 -8.662109
v -13.336956 39.941893 -12.669325
v -19.831915 39.941893 -11.389557
v 23.095742 39.941893 4.036237
v 7.567361 39.941893 4.794612
v 19.831925 39.941893 -11.389557
v 13.336970 39.941893 -12.669325
v 6.482971 39.941893 -8.662106
v -20.075766 92.847601 8.445258
v 0.000004 79.405604 4.794614
v 0.000008 87.132955 -12.323380
v -13.336956 94.023502 -11.707612
v -18.989645 92.847601 -6.980535
v 20.075753 92.847601 8.445254
v 18.989635 92.847601 -6.980540
v 13.336967 94.023502 -11.707623
v -17.913270 100.408957 11.080773
v 0.000014 100.408957 19.482255
v 0.000024 100.408957 -13.443021
v -14.202631 100.408957 -12.092741
v -20.043923 100.408957 -5.647889
v 17.913250 100.408957 11.080705
v 20.043910 100.408957 -5.647942
v 14.202676 100.408957 -12.092801
v -15.165507 119.132095 9.329227
v 0.000011 119.132095 16.573475
v 0.000019 119.132095 -9.865964
v -12.024052 119.132095 -8.809081
v -16.969334 119.132095 -3.764581
v 15.165490 119.132095 9.329169
v 16.969321 119.132095 -3.764628
v 12.024089 119.132095 -8.809128
v -18.310944 132.256423 9.329227
v 0.000014 132.256423 16.573477
v 0.000024 132.256423 -13.837398
v -14.517929 132.256423 -11.379066
v -20.488898 132.256423 -3.764581
v 18.310926 132.256423 9.329175
v 20.488885 132.256423 -3.764625
v 14.517976 132.256423 -11.379113
v -18.310944 151.492789 5.861405
v 0.000014 154.063259 7.556613
v 0.000024 154.063259 -8.824963
v -11.578556 154.063259 -7.908958
v -20.488898 154.063259 -4.942318
v 18.310926 151.492789 5.861364
v 20.488885 154.063259 -4.942352
v 11.578603 154.063259 -7.908988
v -24.310286 134.628659 10.860794
v -31.454478 141.427580 8.479943
v -24.310286 147.138791 9.150831
v -31.454478 146.057637 7.899206
v 24.310266 134.628659 10.860773
v 31.454464 141.427580 8.479925
v 31.454464 146.057637 7.899194
v 24.310266 147.138791 9.150815
v -19.985164 131.249391 17.151319
v -17.846858 132.470502 22.510818
v -19.985164 137.871139 16.013927
v -17.846858 137.697598 22.124539
v 19.985134 131.249391 17.151315
v 17.846828 132.470502 22.510814
v 17.846828 137.697598 22.124539
v 19.985134 137.871139 16.013925
v -0.000017 126.786443 19.145210
v -0.000016 128.371216 25.918367
v -0.000017 135.380200 17.707807
v -0.000016 135.155059 25.430200
v -5.254810 157.313675 3.701155
v 0.000016 156.737532 8.026325
v 0.000026 159.405399 -4.761831
v -7.175275 158.388738 -0.257349
v 5.254795 157.313675 3.701134
v 7.175324 158.388738 -0.257360
v -4.047269 159.776014 5.787798
v 0.000020 160.249966 14.045539
v 0.000030 161.867737 -4.281793
v -6.815446 160.851077 -1.404028
v 4.047262 159.776014 5.787759
v 6.815503 160.851077 -1.404057
v -6.690578 168.899777 9.862497
v 0.000027 169.521320 16.881892
v 0.000040 172.571643 -5.613356
v -6.149044 170.309575 -2.158864
v 6.690573 168.899777 9.862442
v 6.149120 170.309575 -2.158907
v -5.709238 177.383313 9.090915
v 0.000045 178.139853 13.449597
v 0.000058 178.305486 -3.989381
v -5.675770 178.187985 -0.376794
v 5.709269 177.383313 9.090874
v 5.675881 178.187985 -0.376826
v 0.000044 182.260459 4.781369
vt 0.625000 0.718750
vt 0.625000 0.937636
vt 0.583338 1.000000
vt 0.541667 1.000000
vt 0.541667 0.062500
vt 0.583337 0.062500
vt 0.666576 0.062500
vt 0.583338 0.250000
vt 0.458333 1.000000
vt 0.416663 1.000000
vt 0.375000 0.937636
vt 0.416663 0.250000
vt 0.458333 0.062500
vt 0.458333 0.250000
vt 0.416662 0.062500
vt 0.333424 0.250000
vt 0.187500 0.062500
vt 0.333424 0.062500
vt 0.193722 0.203130
vt 0.541667 0.250000
vt 0.666576 0.250000
vt 0.812500 0.062500
vt 0.806278 0.203130
vt 0.375000 0.501583
vt 0.375000 0.291576
vt 0.625000 0.291576
vt 0.375000 0.501583
vt 0.458333 0.500999
vt 0.375000 0.718750
vt 0.624999 0.501583
vt 0.541667 0.718750
vt 0.416671 0.501291
vt 0.375000 0.718750
vt 0.458333 0.718750
vt 0.458333 0.718750
vt 0.541667 0.500999
vt 0.541667 0.500999
vt 0.583329 0.718750
vt 0.624999 0.501583
vt 0.625000 0.718750
vt 0.458333 0.500999
vt 0.416671 0.718750
vt 0.583329 0.501291
vt 0.541667 0.718750
vt 0.375000 0.501583
vt 0.458333 0.500999
vt 0.458333 0.500999
vt 0.416671 0.501291
vt 0.375000 0.501583
vt 0.541667 0.500999
vt 0.624999 0.501583
vt 0.624999 0.501583
vt 0.583329 0.501291
vt 0.541667 0.500999
vt 0.375000 0.501583
vt 0.458333 0.500999
vt 0.458333 0.500999
vt 0.416671 0.501291
vt 0.375000 0.501583
vt 0.541667 0.500999
vt 0.624999 0.501583
vt 0.624999 0.501583
vt 0.583329 0.501291
vt 0.541667 0.500999
vt 0.375000 0.501583
vt 0.458333 0.500999
vt 0.458333 0.500999
vt 0.416671 0.501291
vt 0.375000 0.501583
vt 0.541667 0.500999
vt 0.624999 0.501583
vt 0.624999 0.501583
vt 0.583329 0.501291
vt 0.541667 0.500999
vt 0.375000 0.501583
vt 0.458333 0.500999
vt 0.458333 0.500999
vt 0.416671 0.501291
vt 0.375000 0.501583
vt 0.541667 0.500999
vt 0.624999 0.501583
vt 0.624999 0.501583
vt 0.583329 0.501291
vt 0.541667 0.500999
vt 0.375000 0.501583
vt 0.458333 0.500999
vt 0.458333 0.500999
vt 0.416671 0.501291
vt 0.375000 0.501583
vt 0.541667 0.500999
vt 0.624999 0.501583
vt 0.624999 0.501583
vt 0.583329 0.501291
vt 0.541667 0.500999
vt 0.375000 0.501583
vt 0.458333 0.500999
vt 0.458333 0.500999
vt 0.416671 0.501291
vt 0.375000 0.501583
vt 0.541667 0.500999
vt 0.624999 0.501583
vt 0.624999 0.501583
vt 0.583329 0.501291
vt 0.541667 0.500999
vt 0.375000 0.501583
vt 0.375000 0.501583
vt 0.375000 0.501583
vt 0.375000 0.501583
vt 0.624999 0.501583
vt 0.624999 0.501583
vt 0.624999 0.501583
vt 0.624999 0.501583
vt 0.375000 0.501583
vt 0.375000 0.501583
vt 0.375000 0.501583
vt 0.375000 0.501583
vt 0.624999 0.501583
vt 0.624999 0.501583
vt 0.624999 0.501583
vt 0.624999 0.501583
vt 0.375000 0.501583
vt 0.375000 0.501583
vt 0.375000 0.501583
vt 0.375000 0.501583
vt 0.624999 0.501583
vt 0.624999 0.501583
vt 0.624999 0.501583
vt 0.624999 0.501583
vt 0.375000 0.501583
vt 0.458333 0.500999
vt 0.458333 0.500999
vt 0.395835 0.501437
vt 0.541667 0.500999
vt 0.624999 0.501583
vt 0.604164 0.501437
vt 0.541667 0.500999
vt 0.375000 0.501583
vt 0.458333 0.500999
vt 0.458333 0.500999
vt 0.395835 0.501437
vt 0.541667 0.500999
vt 0.624999 0.501583
vt 0.604164 0.501437
vt 0.541667 0.500999
vt 0.375000 0.501583
vt 0.458333 0.500999
vt 0.458333 0.500999
vt 0.395835 0.501437
vt 0.541667 0.500999
vt 0.624999 0.501583
vt 0.604164 0.501437
vt 0.541667 0.500999
vt 0.375000 0.501583
vt 0.458333 0.500999
vt 0.458333 0.500999
vt 0.395835 0.501437
vt 0.541667 0.500999
vt 0.624999 0.501583
vt 0.604164 0.501437
vt 0.541667 0.500999
vt 0.421876 0.501255
vt 0.578124 0.501255
vn 0.132462 0.181001 0.974522
vn 0.132462 0.181001 0.974522
vn 0.132462 0.181001 0.974522
vn 0.132462 0.181001 0.974522
vn -0.132462 0.181001 0.974522
vn -0.132462 0.181001 0.974522
vn -0.132462 0.181001 0.974522
vn -0.132462 0.181001 0.974522
vn -0.000000 1.000000 0.000000
vn -0.000000 1.000000 0.000000
vn -0.000000 1.000000 0.000000
vn -0.000000 1.000000 0.000000
vn -0.000000 1.000000 0.000000
vn -0.069320 -0.051431 -0.996268
vn -0.069166 -0.051380 -0.996281
vn 0.083698 0.000000 -0.996491
vn 0.083698 0.000000 -0.996491
vn -0.083698 0.000000 -0.996491
vn 0.069166 -0.051380 -0.996281
vn 0.069320 -0.051431 -0.996268
vn -0.083698 0.000000 -0.996491
vn -0.000000 -1.000000 -0.000000
vn -0.000000 -1.000000 -0.000000
vn -0.000000 -1.000000 -0.000000
vn -0.000000 -1.000000 -0.000000
vn -0.000000 -1.000000 -0.000000
vn 0.000000 -1.000000 -0.000000
vn 0.000000 -1.000000 -0.000000
vn 0.000000 -1.000000 -0.000000
vn 0.000000 -1.000000 -0.000000
vn 0.000000 -1.000000 -0.000000
vn 0.939513 0.153280 -0.306301
vn 0.939513 0.153280 -0.306301
vn 0.949978 0.080036 -0.301886
vn 0.967988 -0.000624 -0.250997
vn -0.949978 0.080036 -0.301886
vn -0.939513 0.153280 -0.306301
vn -0.939513 0.153280 -0.306301
vn -0.967988 -0.000624 -0.250997
vn 0.878731 0.282689 0.384602
vn 0.878731 0.282689 0.384602
vn 0.878731 0.282690 0.384602
vn 0.878731 0.282689 0.384602
vn 0.000000 1.000000 0.000000
vn 0.000000 1.000000 0.000000
vn 0.000000 1.000000 0.000000
vn 0.000000 1.000000 0.000000
vn 0.000000 1.000000 0.000000
vn -0.878731 0.282690 0.384602
vn -0.878731 0.282690 0.384602
vn -0.878731 0.282690 0.384602
vn -0.878731 0.282690 0.384602
vn 0.974967 -0.156363 0.158080
vn 0.966516 -0.107178 0.233152
vn 0.966516 -0.107178 0.233152
vn 0.968901 -0.068893 0.237663
vn -0.974968 -0.156362 0.158080
vn -0.968901 -0.068892 0.237663
vn -0.966516 -0.107178 0.233153
vn -0.966516 -0.107178 0.233153
vn 0.969558 0.000000 0.244862
vn 0.975466 -0.161996 0.149077
vn -0.000000 -1.000000 -0.000000
vn -0.000000 -1.000000 -0.000000
vn -0.000000 -1.000000 -0.000000
vn -0.969057 -0.012450 -0.246524
vn -0.955431 0.000000 -0.295214
vn 0.955431 0.000000 -0.295214
vn 0.969057 -0.012450 -0.246524
vn 0.000000 -1.000000 0.000000
vn 0.000000 -1.000000 0.000000
vn 0.000000 -1.000000 0.000000
vn -0.975466 -0.161996 0.149076
vn -0.969558 0.000000 0.244862
vn 0.581358 -0.095379 -0.808038
vn 0.581600 -0.095242 -0.807880
vn 0.732014 0.000000 -0.681290
vn 0.732014 0.000000 -0.681290
vn -0.581601 -0.095241 -0.807880
vn -0.581358 -0.095379 -0.808038
vn -0.732014 0.000000 -0.681290
vn -0.732014 0.000000 -0.681290
vn -0.064610 -0.104251 0.992450
vn -0.064610 -0.104251 0.992450
vn 0.019345 -0.070991 0.997289
vn 0.018238 -0.071434 0.997279
vn 0.984924 -0.165701 0.049685
vn 0.984924 -0.165701 0.049685
vn 0.274607 -0.055032 -0.959981
vn 0.278196 -0.055589 -0.958914
vn -0.322136 0.011573 -0.946623
vn -0.322406 0.011651 -0.946530
vn -0.983920 0.025876 -0.176727
vn -0.983665 0.024967 -0.178267
vn 0.064610 -0.104251 0.992450
vn 0.064610 -0.104251 0.992450
vn -0.018238 -0.071434 0.997279
vn -0.019345 -0.070991 0.997289
vn 0.983665 0.024968 -0.178267
vn 0.983920 0.025876 -0.176727
vn 0.322407 0.011651 -0.946530
vn 0.322137 0.011573 -0.946622
vn -0.278197 -0.055589 -0.958914
vn -0.274607 -0.055032 -0.959980
vn -0.984924 -0.165701 0.049684
vn -0.984924 -0.165701 0.049684
vn 0.052351 -0.065290 0.996492
vn -0.246288 -0.448508 0.859175
vn 0.987057 -0.160275 -0.005499
vn 0.987057 -0.160275 -0.005499
vn -0.056495 -0.074048 -0.995653
vn 0.150658 -0.036689 -0.987905
vn -0.446495 0.048367 -0.893478
vn -0.446495 0.048367 -0.893478
vn -0.992054 0.050200 -0.115367
vn -0.991664 0.049847 -0.118819
vn 0.246289 -0.448507 0.859176
vn -0.052351 -0.065290 0.996492
vn 0.991664 0.049848 -0.118818
vn 0.992054 0.050200 -0.115367
vn 0.446496 0.048367 -0.893477
vn 0.446496 0.048367 -0.893477
vn -0.150658 -0.036689 -0.987905
vn 0.056493 -0.074050 -0.995653
vn -0.987057 -0.160275 -0.005500
vn -0.987057 -0.160275 -0.005500
vn -0.375636 -0.150673 0.914437
vn -0.367576 -0.185457 0.911314
vn -0.090915 0.093772 -0.991434
vn -0.090930 0.091904 -0.991607
vn -0.693770 -0.046680 -0.718683
vn -0.693770 -0.046680 -0.718683
vn -0.713885 0.131658 -0.687775
vn -0.713648 0.126804 -0.688932
vn -0.986629 0.127243 0.101846
vn -0.987254 0.124644 0.098958
vn 0.367578 -0.185456 0.911314
vn 0.375639 -0.150672 0.914436
vn 0.987254 0.124644 0.098959
vn 0.986629 0.127243 0.101846
vn 0.693772 -0.046687 -0.718680
vn 0.693772 -0.046687 -0.718680
vn 0.713651 0.126802 -0.688929
vn 0.713888 0.131656 -0.687772
vn 0.090926 0.091904 -0.991608
vn 0.090912 0.093771 -0.991434
vn -0.414481 0.066728 0.907608
vn -0.414101 0.063849 0.907989
vn -0.108019 0.001653 -0.994147
vn -0.108153 0.000158 -0.994134
vn -0.741425 0.008708 -0.670980
vn -0.741251 0.011091 -0.671136
vn -0.990411 0.001530 0.138143
vn -0.990412 0.001684 0.138135
vn 0.414105 0.063849 0.907987
vn 0.414485 0.066728 0.907606
vn 0.990412 0.001684 0.138136
vn 0.990411 0.001530 0.138144
vn 0.741255 0.011091 -0.671132
vn 0.741428 0.008708 -0.670976
vn 0.108149 0.000158 -0.994135
vn 0.108016 0.001653 -0.994148
vn -0.310778 0.153829 0.937952
vn -0.284050 0.166362 0.944266
vn -0.129357 0.025834 -0.991262
vn -0.129335 0.027991 -0.991206
vn -0.669146 -0.034902 -0.742311
vn -0.646235 -0.031032 -0.762507
vn -0.958886 -0.243478 0.145797
vn -0.958886 -0.243478 0.145797
vn 0.284053 0.166362 0.944266
vn 0.310781 0.153829 0.937951
vn 0.958886 -0.243478 0.145797
vn 0.958886 -0.243478 0.145797
vn 0.646238 -0.031032 -0.762504
vn 0.669149 -0.034902 -0.742309
vn 0.129332 0.027992 -0.991206
vn 0.129354 0.025834 -0.991262
vn -0.250344 0.385423 0.888131
vn -0.234132 0.286789 0.928942
vn -0.313932 0.299566 -0.900948
vn -0.147469 0.323209 -0.934767
vn -0.597948 0.198610 -0.776539
vn 0.234134 0.286789 0.928942
vn 0.250347 0.385423 0.888130
vn 0.313932 0.299566 -0.900948
vn 0.597951 0.198611 -0.776536
vn 0.147467 0.323210 -0.934767
vn -0.571453 -0.820474 -0.016232
vn -0.571453 -0.820474 -0.016232
vn -0.648767 -0.754443 0.099590
vn -0.632348 -0.771223 0.073154
vn 0.346982 0.150970 0.925641
vn 0.346982 0.150970 0.925641
vn -0.311173 0.883640 0.349788
vn -0.311173 0.883640 0.349788
vn -0.012530 0.898776 0.438229
vn -0.221986 0.897599 0.380838
vn -0.753148 -0.043661 -0.656401
vn -0.753148 -0.043661 -0.656401
vn 0.571453 -0.820474 -0.016231
vn 0.571453 -0.820474 -0.016231
vn 0.632347 -0.771223 0.073156
vn 0.648767 -0.754443 0.099591
vn 0.753148 -0.043661 -0.656400
vn 0.753148 -0.043661 -0.656400
vn 0.311172 0.883640 0.349789
vn 0.311172 0.883640 0.349789
vn 0.221985 0.897599 0.380839
vn 0.012530 0.898776 0.438229
vn -0.346986 0.150969 0.925640
vn -0.346986 0.150969 0.925640
vn -0.437338 -0.851709 0.288663
vn -0.455028 -0.841634 0.290863
vn 0.790069 -0.090240 -0.606339
vn 0.790069 -0.090240 -0.606339
vn 0.790069 -0.090240 -0.606339
vn 0.790069 -0.090240 -0.606339
vn 0.153496 0.984524 0.084563
vn 0.188761 0.959534 0.208960
vn -0.696687 0.070040 0.713948
vn -0.696687 0.070040 0.713948
vn -0.696687 0.070040 0.713948
vn -0.696687 0.070040 0.713948
vn 0.455028 -0.841633 0.290866
vn 0.437338 -0.851709 0.288666
vn 0.696687 0.070039 0.713948
vn 0.696687 0.070039 0.713948
vn 0.696687 0.070039 0.713948
vn 0.696687 0.070039 0.713948
vn -0.188761 0.959534 0.208959
vn -0.153496 0.984525 0.084561
vn -0.790070 -0.090240 -0.606338
vn -0.790070 -0.090240 -0.606338
vn -0.790070 -0.090240 -0.606338
vn -0.790070 -0.090240 -0.606338
vn -0.248280 -0.933258 0.259588
vn -0.248280 -0.933258 0.259588
vn 0.061823 -0.166531 -0.984096
vn 0.061823 -0.166531 -0.984096
vn 0.061823 -0.166531 -0.984096
vn 0.061823 -0.166531 -0.984096
vn 0.130797 0.991374 0.008353
vn 0.130797 0.991374 0.008353
vn -0.171491 0.071536 0.982585
vn -0.171491 0.071536 0.982585
vn -0.171491 0.071536 0.982585
vn -0.171491 0.071536 0.982585
vn 0.248280 -0.933257 0.259591
vn 0.248280 -0.933257 0.259591
vn 0.171492 0.071536 0.982585
vn 0.171492 0.071536 0.982585
vn 0.171491 0.071536 0.982585
vn 0.171492 0.071536 0.982585
vn -0.130797 0.991374 0.008350
vn -0.130797 0.991374 0.008350
vn -0.061823 -0.166531 -0.984096
vn -0.061823 -0.166531 -0.984096
vn -0.061823 -0.166531 -0.984096
vn -0.061823 -0.166531 -0.984096
vn -0.250580 0.544417 0.800512
vn -0.250580 0.544417 0.800512
vn -0.203206 0.801832 -0.561936
vn -0.208958 0.791360 -0.574531
vn -0.366842 0.874331 0.317761
vn -0.366842 0.874331 0.317761
vn -0.366842 0.874331 0.317761
vn -0.366842 0.874331 0.317761
vn 0.250583 0.544418 0.800511
vn 0.250583 0.544418 0.800511
vn 0.366844 0.874330 0.317762
vn 0.366844 0.874330 0.317762
vn 0.366844 0.874330 0.317762
vn 0.366844 0.874330 0.317762
vn 0.203205 0.801833 -0.561935
vn 0.208957 0.791361 -0.574530
vn -0.803686 -0.315292 0.504658
vn -0.679709 -0.538406 0.498111
vn -0.756130 -0.348073 0.554178
vn -0.893576 -0.251440 0.371888
vn -0.455024 -0.086721 -0.886246
vn -0.455024 -0.086721 -0.886246
vn -0.435832 -0.082667 -0.896223
vn -0.424630 -0.080303 -0.901799
vn -0.887810 0.203807 0.412620
vn -0.987367 -0.095991 0.126067
vn 0.679715 -0.538401 0.498108
vn 0.803688 -0.315288 0.504657
vn 0.893576 -0.251439 0.371888
vn 0.756135 -0.348071 0.554172
vn 0.887807 0.203804 0.412629
vn 0.987366 -0.095993 0.126074
vn 0.455021 -0.086726 -0.886247
vn 0.455021 -0.086726 -0.886247
vn 0.424626 -0.080305 -0.901800
vn 0.435829 -0.082670 -0.896225
vn -0.746659 -0.044193 0.663738
vn -0.926418 -0.085059 0.366764
vn -0.440924 -0.034753 -0.896871
vn -0.511195 0.151770 -0.845959
vn -0.999474 -0.001179 0.032423
vn 0.926418 -0.085061 0.366763
vn 0.746664 -0.044195 0.663732
vn 0.999473 -0.001183 0.032431
vn 0.511190 0.151769 -0.845961
vn 0.440919 -0.034755 -0.896874
vn -0.635859 0.403942 0.657658
vn -0.642518 0.378722 0.666138
vn -0.462410 0.543813 -0.700317
vn -0.499487 0.414814 -0.760554
vn -0.974505 0.224347 -0.002906
vn -0.958663 0.284519 0.003741
vn 0.642525 0.378718 0.666134
vn 0.635866 0.403937 0.657655
vn 0.958664 0.284515 0.003747
vn 0.974506 0.224343 -0.002900
vn 0.499484 0.414814 -0.760556
vn 0.462407 0.543813 -0.700319
vn -0.408422 0.824387 0.391890
vn -0.270086 0.877725 -0.395794
vn -0.619679 0.782217 0.064295
vn 0.408428 0.824385 0.391887
vn 0.619681 0.782216 0.064298
vn 0.270084 0.877727 -0.395790
s off
g pCube1
usemtl lambert5SG
f 16/12/1 14/15/2 1/13/3 3/14/4
f 2/5/5 10/6/6 12/8/7 4/20/8
f 4/20/9 12/8/10 11/26/11 20/30/12 19/36/13
s 1
f 21/27/14 25/32/15 27/42/16 22/33/17
s 2
f 31/38/18 30/43/19 23/39/20 24/40/21
s 3
f 5/29/22 6/34/23 1/9/24 14/10/25 13/11/26
s 4
f 7/31/27 8/1/28 9/2/29 10/3/30 2/4/31
s 5
f 11/21/32 9/7/33 8/22/34 20/23/35
s 6
f 5/17/36 13/18/37 15/16/38 17/19/39
s off
f 10/6/40 9/7/41 11/21/42 12/8/43
f 15/25/44 16/12/45 3/14/46 18/28/47 17/24/48
f 13/18/49 14/15/50 16/12/51 15/16/52
s 7
f 18/28/53 3/14/54 1/9/55 6/34/56
s 8
f 19/36/57 7/31/58 2/5/59 4/20/60
s 7
f 18/28/53 6/34/56 28/35/61 26/41/62
s 3
f 6/34/23 5/29/22 22/33/63 27/42/64 28/35/65
s 6
f 5/29/36 17/24/39 21/27/66 22/33/67
s 5
f 20/30/35 8/1/34 24/40/68 23/39/69
s 4
f 8/1/28 7/31/27 32/44/70 31/38/71 24/40/72
s 8
f 7/31/58 19/36/57 29/37/73 32/44/74
s 9
f 25/32/75 26/41/76 28/35/77 27/42/78
s 10
f 29/37/79 30/43/80 31/38/81 32/44/82
s 11
f 17/24/83 18/28/84 34/46/85 33/45/86
s 7
f 18/28/53 26/41/62 35/47/87 34/46/88
s 9
f 26/41/76 25/32/75 36/48/89 35/47/90
s 1
f 25/32/15 21/27/14 37/49/91 36/48/92
s 6
f 21/27/66 17/24/39 33/45/93 37/49/94
s 12
f 19/36/95 20/30/96 38/51/97 39/50/98
s 5
f 20/30/35 23/39/69 40/52/99 38/51/100
s 2
f 23/39/20 30/43/19 41/53/101 40/52/102
s 10
f 30/43/80 29/37/79 42/54/103 41/53/104
s 8
f 29/37/73 19/36/57 39/50/105 42/54/106
s 11
f 33/45/86 34/46/85 44/56/107 43/55/108
s 7
f 34/46/88 35/47/87 45/57/109 44/56/110
s 9
f 35/47/90 36/48/89 46/58/111 45/57/112
s 1
f 36/48/92 37/49/91 47/59/113 46/58/114
s 6
f 37/49/94 33/45/93 43/55/115 47/59/116
s 12
f 39/50/98 38/51/97 48/61/117 44/60/118
s 5
f 38/51/100 40/52/99 49/62/119 48/61/120
s 2
f 40/52/102 41/53/101 50/63/121 49/62/122
s 10
f 41/53/104 42/54/103 45/64/123 50/63/124
s 8
f 42/54/106 39/50/105 44/60/125 45/64/126
s 11
f 43/55/108 44/56/107 52/66/127 51/65/128
s 9
f 45/57/112 46/58/111 54/68/129 53/67/130
f 46/58/131 47/59/132 55/69/133 54/68/134
s 6
f 47/59/116 43/55/115 51/65/135 55/69/136
s 12
f 44/60/118 48/61/117 56/71/137 52/70/138
s 5
f 48/61/120 49/62/119 57/72/139 56/71/140
s 10
f 49/62/141 50/63/142 58/73/143 57/72/144
f 50/63/124 45/64/123 53/74/145 58/73/146
s 11
f 51/65/128 52/66/127 60/76/147 59/75/148
s 9
f 53/67/130 54/68/129 62/78/149 61/77/150
f 54/68/134 55/69/133 63/79/151 62/78/152
s 6
f 55/69/136 51/65/135 59/75/153 63/79/154
s 12
f 52/70/138 56/71/137 64/81/155 60/80/156
s 5
f 56/71/140 57/72/139 65/82/157 64/81/158
s 10
f 57/72/144 58/73/143 66/83/159 65/82/160
f 58/73/146 53/74/145 61/84/161 66/83/162
s 11
f 59/75/148 60/76/147 68/86/163 67/85/164
s 9
f 61/77/150 62/78/149 70/88/165 69/87/166
f 62/78/152 63/79/151 71/89/167 70/88/168
s 6
f 63/79/154 59/75/153 67/85/169 71/89/170
s 12
f 60/80/156 64/81/155 72/91/171 68/90/172
s 5
f 64/81/158 65/82/157 73/92/173 72/91/174
s 10
f 65/82/160 66/83/159 74/93/175 73/92/176
f 66/83/162 61/84/161 69/94/177 74/93/178
s 11
f 67/85/164 68/86/163 76/96/179 75/95/180
s 9
f 69/87/166 70/88/165 78/98/181 77/97/182
f 70/88/168 71/89/167 79/99/183 78/98/181
s 12
f 68/90/172 72/91/171 80/101/184 76/100/185
s 10
f 73/92/176 74/93/175 82/103/186 81/102/187
f 74/93/178 69/94/177 77/104/188 82/103/186
s 15
f 71/89/189 67/85/190 83/106/191 84/105/192
s 11
f 67/85/164 75/95/180 85/107/193 83/106/194
s 16
f 75/95/195 79/99/196 86/108/197 85/107/198
s 9
f 79/99/183 71/89/167 84/105/199 86/108/200
s 17
f 72/91/201 73/92/202 88/110/203 87/109/204
s 10
f 73/92/176 81/102/187 89/111/205 88/110/206
s 18
f 81/102/207 80/101/208 90/112/209 89/111/210
s 12
f 80/101/184 72/91/171 87/109/211 90/112/212
s 15
f 84/105/192 83/106/191 91/114/213 92/113/214
s off
f 83/106/215 85/107/216 93/115/217 91/114/218
s 16
f 85/107/198 86/108/197 94/116/219 93/115/220
s off
f 86/108/221 84/105/222 92/113/223 94/116/224
s 17
f 87/109/204 88/110/203 96/118/225 95/117/226
s off
f 88/110/227 89/111/228 97/119/229 96/118/230
s 18
f 89/111/210 90/112/209 98/120/231 97/119/232
s off
f 90/112/233 87/109/234 95/117/235 98/120/236
s 15
f 92/113/214 91/114/213 99/122/237 100/121/238
s off
f 91/114/239 93/115/240 101/123/241 99/122/242
s 16
f 93/115/220 94/116/219 102/124/243 101/123/244
s off
f 94/116/245 92/113/246 100/121/247 102/124/248
s 17
f 95/117/226 96/118/225 100/126/249 99/125/250
s off
f 96/118/251 97/119/252 102/127/253 100/126/254
s 18
f 97/119/232 98/120/231 101/128/255 102/127/256
s off
f 98/120/257 95/117/258 99/125/259 101/128/260
s 11
f 75/95/180 76/96/179 104/130/261 103/129/262
s 9
f 77/97/182 78/98/181 106/132/263 105/131/264
f 78/98/181 79/99/183 106/132/263
s off
f 79/99/265 75/95/266 103/129/267 106/132/268
s 12
f 76/100/185 80/101/184 107/134/269 104/133/270
s off
f 80/101/271 81/102/272 108/135/273 107/134/274
s 10
f 81/102/187 82/103/186 108/135/275
f 82/103/186 77/104/188 105/136/276 108/135/275
s 19
f 103/129/277 104/130/278 110/138/279 109/137/280
s 20
f 105/131/281 106/132/282 112/140/283 111/139/284
s 19
f 106/132/285 103/129/277 109/137/280 112/140/286
s 21
f 104/133/287 107/134/288 113/142/289 110/141/290
f 107/134/288 108/135/291 114/143/292 113/142/289
s 22
f 108/135/293 105/136/294 111/144/295 114/143/296
s 19
f 109/137/280 110/138/279 116/146/297 115/145/298
s 20
f 111/139/284 112/140/283 118/148/299 117/147/300
s 19
f 112/140/286 109/137/280 115/145/298 118/148/301
s 21
f 110/141/290 113/142/289 119/150/302 116/149/303
f 113/142/289 114/143/292 120/151/304 119/150/302
s 22
f 114/143/296 111/144/295 117/152/305 120/151/306
s 19
f 115/145/298 116/146/297 122/154/307 121/153/308
s 20
f 117/147/300 118/148/299 124/156/309 123/155/310
s 19
f 118/148/301 115/145/298 121/153/311 124/156/312
s 21
f 116/149/303 119/150/302 125/158/313 122/157/314
f 119/150/302 120/151/304 126/159/315 125/158/316
s 22
f 120/151/306 117/152/305 123/160/317 126/159/318
s 19
f 121/153/308 122/154/307 127/161/319
s 20
f 123/155/310 124/156/309 127/161/320
s 19
f 124/156/312 121/153/311 127/161/321
s 21
f 122/157/314 125/158/313 127/162/322
f 125/158/316 126/159/315 127/162/323
s 22
f 126/159/318 123/160/317 127/162/324
