# This file uses centimeters as units for non-parametric coordinates.

mtllib RundownHouseCollider.mtl
g default
v 341.921997 363.417999 135.817993
v 445.446014 -62.846313 135.817993
v 341.921997 -62.846313 135.817993
v 445.446014 362.753021 135.817993
v 445.446014 362.753021 194.824997
v 341.921997 363.417969 194.824997
v 341.921997 -62.846313 194.824997
v 445.446014 -62.846313 194.824997
v -151.542999 15.121099 11.045700
v -151.542999 15.121109 -95.781403
v -191.899017 8.230780 11.045700
v -191.899017 8.230789 -95.781403
v -191.899002 -50.174858 11.045700
v -191.899002 -50.174843 -95.781403
v -151.542999 -50.174858 11.045700
v -151.542999 -50.174843 -95.781403
v 566.463013 15.121078 -380.515991
v 566.463013 15.121109 -273.688995
v 603.510986 8.230774 -380.515991
v 603.510986 8.230804 -273.689026
v 603.510986 -47.143284 -380.515991
v 603.510986 -47.143253 -273.688995
v 566.463013 -47.143284 -380.515991
v 566.463013 -47.143253 -273.688995
v -151.585999 -62.846302 -109.255997
v -151.585999 -62.846313 599.796997
v -151.585999 271.606995 -109.255981
v -151.585999 271.606995 599.796021
v -435.268005 238.729004 -109.255981
v -435.268005 -62.846298 -109.255997
v -435.268005 238.729004 -545.138977
v -435.268005 -62.846313 -545.138977
v 566.505981 -62.846313 -545.138977
v 566.505981 -62.846298 174.425018
v 566.505981 240.746994 174.425003
v 283.026001 264.869995 174.425003
v 283.026001 -62.846306 174.425003
v 283.026001 264.869995 599.796021
v 283.026001 -62.846313 599.796997
v -0.000025 288.089996 -545.138916
v -0.000025 -62.846313 -545.138977
v 566.505981 240.747009 -545.138977
v -0.000021 288.089966 174.424988
v -0.000025 288.089966 599.796997
v -0.000025 -62.846313 599.796997
v 579.502014 -62.846298 240.406021
v 579.502014 226.651978 240.406006
v 592.346985 -62.846298 240.406021
v 592.346985 226.651978 240.406006
v 592.346985 -62.846298 259.612000
v 592.346985 226.651978 259.612000
v 579.502014 -62.846298 259.612000
v 579.502014 226.651978 259.612000
v 579.502014 -62.846313 603.991028
v 579.502014 226.651978 603.991028
v 592.346985 -62.846313 603.991028
v 592.346985 226.651978 603.991028
v 592.346985 -62.846313 623.197998
v 592.346985 226.651978 623.197998
v 579.502014 -62.846313 623.197998
v 579.502014 226.651978 623.197998
v 684.580994 211.915009 -671.365967
v 684.508972 241.384003 -671.365967
v 0.000017 317.050964 -671.365967
v -688.775024 241.751007 -671.366089
v 0.072491 286.989014 -671.366028
v -688.702026 210.492004 -671.366028
v -688.775024 241.750977 682.112976
v -688.738525 210.492004 682.112976
v 0.000025 317.050964 682.112976
v 0.072491 286.989014 682.112976
v 684.508972 241.383972 682.112976
v 684.580994 211.914978 682.112976
v -688.775024 210.492004 -671.366028
v 0.000032 286.989014 -671.366028
v 684.508972 211.915009 -671.366028
v 0.000040 286.989014 682.112976
v 684.508972 211.914978 682.112976
v 592.346985 -62.846313 -669.494019
v 592.346985 -62.846313 -650.286987
v 579.502014 -62.846313 -650.286987
v 581.306030 -62.846313 -669.494019
v 579.502014 226.652008 -669.494019
v 579.502014 226.652008 -650.286987
v 592.346985 226.652008 -650.286987
v 592.346985 226.652008 -669.494019
v -579.502014 -62.846313 240.406021
v -579.502014 -62.846298 259.612000
v -592.346985 -62.846298 259.612000
v -592.346985 -62.846313 240.405991
v -592.346985 226.651978 240.406006
v -592.346985 226.651978 259.612000
v -579.502014 226.651978 259.612000
v -579.502014 226.651978 240.406006
v -579.502014 -62.846298 -214.126999
v -579.502014 -62.846298 -194.921005
v -592.346985 -62.846298 -194.921005
v -592.346985 -62.846298 -214.126999
v -592.346985 226.651993 -214.126999
v -592.346985 226.651993 -194.921005
v -579.502014 226.651993 -194.921005
v -579.502014 226.651993 -214.126999
v -579.502014 -62.846298 603.991028
v -579.502014 -62.846298 623.197998
v -592.346985 -62.846298 623.197998
v -592.346985 -62.846298 603.991028
v -592.346985 226.651978 603.991028
v -592.346985 226.651978 623.197998
v -579.502014 226.651978 623.197998
v -579.502014 226.651978 603.991028
v -579.502014 -62.846298 -669.494019
v -579.502014 -62.846298 -650.286987
v -592.346985 -62.846298 -650.286987
v -592.346985 -62.846298 -669.494019
v -592.346985 226.652008 -669.494019
v -592.346985 226.652008 -650.286987
v -579.502014 226.652008 -650.286987
v -579.502014 226.652008 -669.494019
vn 0.000000 0.000000 -1.000000
vn 0.000000 0.000000 -1.000000
vn 0.000000 0.000000 -1.000000
vn 0.000000 0.000000 -1.000000
vn 0.000000 0.000000 -1.000000
vn 0.000000 0.000000 -1.000000
vn 0.006423 0.999979 0.000000
vn 0.006423 0.999979 0.000000
vn 0.006423 0.999979 0.000000
vn 0.006423 0.999979 0.000000
vn 0.006423 0.999979 0.000000
vn 0.006423 0.999979 0.000000
vn -1.000000 0.000000 0.000000
vn -1.000000 0.000000 0.000000
vn -1.000000 0.000000 0.000000
vn -1.000000 0.000000 0.000000
vn -1.000000 0.000000 0.000000
vn -1.000000 0.000000 0.000000
vn 0.000000 0.000000 1.000000
vn 0.000000 0.000000 1.000000
vn 0.000000 0.000000 1.000000
vn 0.000000 0.000000 1.000000
vn 0.000000 0.000000 1.000000
vn 0.000000 0.000000 1.000000
vn 1.000000 0.000000 0.000000
vn 1.000000 0.000000 0.000000
vn 1.000000 0.000000 0.000000
vn 1.000000 0.000000 0.000000
vn 1.000000 0.000000 0.000000
vn 1.000000 0.000000 0.000000
vn -0.168303 0.985735 0.000000
vn -0.168303 0.985735 0.000000
vn -0.168303 0.985735 0.000000
vn -0.168303 0.985735 0.000000
vn -0.168303 0.985735 0.000000
vn -0.168303 0.985735 0.000000
vn -1.000000 -0.000001 -0.000000
vn -1.000000 -0.000001 -0.000000
vn -1.000000 -0.000001 -0.000000
vn -1.000000 0.000000 -0.000000
vn -1.000000 0.000000 -0.000000
vn -1.000000 0.000000 -0.000000
vn 0.000000 0.000000 1.000000
vn 0.000000 0.000000 1.000000
vn 0.000000 0.000000 1.000000
vn 0.000000 0.000000 1.000000
vn 0.000000 0.000000 1.000000
vn 0.000000 0.000000 1.000000
vn 0.000000 0.000000 -1.000000
vn 0.000000 0.000000 -1.000000
vn 0.000000 0.000000 -1.000000
vn 0.000000 0.000000 -1.000000
vn 0.000000 0.000000 -1.000000
vn 0.000000 0.000000 -1.000000
vn 0.182848 0.983141 -0.000000
vn 0.182848 0.983141 -0.000000
vn 0.182848 0.983141 -0.000000
vn 0.182848 0.983141 -0.000000
vn 0.182848 0.983141 -0.000000
vn 0.182848 0.983141 -0.000000
vn 1.000000 0.000000 0.000000
vn 1.000000 0.000000 0.000000
vn 1.000000 0.000000 0.000000
vn 1.000000 0.000000 0.000000
vn 1.000000 0.000000 0.000000
vn 1.000000 0.000000 0.000000
vn 0.000000 0.000000 -1.000000
vn 0.000000 0.000000 -1.000000
vn 0.000000 0.000000 -1.000000
vn 0.000000 0.000000 -1.000000
vn 0.000000 0.000000 -1.000000
vn 0.000000 0.000000 -1.000000
vn 0.000000 0.000001 1.000000
vn 0.000000 0.000001 1.000000
vn 0.000000 0.000001 1.000000
vn 0.000002 0.000000 1.000000
vn 0.000002 0.000000 1.000000
vn 0.000002 0.000000 1.000000
vn -1.000000 -0.000000 0.000000
vn -1.000000 -0.000000 0.000000
vn -1.000000 -0.000000 0.000000
vn -1.000000 -0.000000 0.000000
vn -1.000000 -0.000000 0.000000
vn -1.000000 -0.000000 0.000000
vn 0.000000 -0.000000 1.000000
vn 0.000000 -0.000000 1.000000
vn 0.000000 -0.000000 1.000000
vn -0.000000 -0.000000 1.000000
vn -0.000000 -0.000000 1.000000
vn -0.000000 -0.000000 1.000000
vn -1.000000 0.000000 0.000000
vn -1.000000 0.000000 0.000000
vn -1.000000 0.000000 0.000000
vn -1.000000 0.000000 0.000000
vn -1.000000 0.000000 0.000000
vn -1.000000 0.000000 0.000000
vn 0.000000 0.000000 1.000000
vn 0.000000 0.000000 1.000000
vn 0.000000 0.000000 1.000000
vn -0.000000 0.000000 1.000000
vn -0.000000 0.000000 1.000000
vn -0.000000 0.000000 1.000000
vn 1.000000 0.000000 0.000000
vn 1.000000 0.000000 0.000000
vn 1.000000 0.000000 0.000000
vn 1.000000 0.000000 0.000000
vn 1.000000 0.000000 0.000000
vn 1.000000 0.000000 0.000000
vn -0.115127 0.993351 0.000000
vn -0.115127 0.993351 0.000000
vn -0.115127 0.993351 0.000000
vn -0.112681 0.993630 -0.001613
vn -0.112681 0.993630 -0.001613
vn -0.112681 0.993630 -0.001613
vn 0.000000 0.000000 -1.000000
vn 0.000000 0.000000 -1.000000
vn 0.000000 0.000000 -1.000000
vn 0.000000 0.000000 -1.000000
vn 0.000000 0.000000 -1.000000
vn 0.000000 0.000000 -1.000000
vn 0.000000 0.000000 -1.000000
vn 0.000000 0.000000 -1.000000
vn 0.000000 0.000000 -1.000000
vn 0.000000 0.000000 -1.000000
vn 0.000000 0.000000 -1.000000
vn 0.000000 0.000000 -1.000000
vn 1.000000 0.000000 0.000000
vn 1.000000 0.000000 0.000000
vn 1.000000 0.000000 0.000000
vn 1.000000 0.000000 0.000000
vn 1.000000 0.000000 0.000000
vn 1.000000 0.000000 0.000000
vn 0.000004 0.000018 -1.000000
vn 0.000004 0.000018 -1.000000
vn 0.000004 0.000018 -1.000000
vn 0.081767 0.996652 0.000000
vn 0.081767 0.996652 0.000000
vn 0.081767 0.996652 0.000000
vn 0.081767 0.996651 0.000000
vn 0.081767 0.996652 0.000000
vn 0.081767 0.996652 0.000000
vn -0.108100 0.994140 0.000000
vn -0.108100 0.994140 0.000000
vn -0.108100 0.994140 0.000000
vn -0.108100 0.994140 0.000000
vn -0.108100 0.994140 0.000000
vn -0.108100 0.994140 0.000000
vn -0.108100 0.994140 0.000000
vn -0.108100 0.994140 0.000000
vn -0.108100 0.994140 0.000000
vn 0.083280 0.996526 0.000000
vn 0.083280 0.996526 0.000000
vn 0.083280 0.996526 0.000000
vn 0.083280 0.996526 0.000000
vn 0.083280 0.996526 0.000000
vn 0.083280 0.996526 0.000000
vn 0.000000 0.000003 1.000000
vn 0.000000 0.000003 1.000000
vn 0.000000 0.000003 1.000000
vn -0.000007 0.000000 1.000000
vn -0.000007 0.000000 1.000000
vn -0.000007 0.000000 1.000000
vn 0.000000 0.000000 1.000000
vn 0.000000 0.000000 1.000000
vn 0.000000 0.000000 1.000000
vn 0.000004 0.000003 1.000000
vn 0.000004 0.000003 1.000000
vn 0.000004 0.000003 1.000000
vn 0.000000 -0.000000 -1.000000
vn 0.000000 -0.000000 -1.000000
vn 0.000000 -0.000000 -1.000000
vn 0.000000 -0.000000 -1.000000
vn 0.000000 -0.000000 -1.000000
vn 0.000000 -0.000000 -1.000000
vn 1.000000 0.000000 0.000000
vn 1.000000 0.000000 0.000000
vn 1.000000 0.000000 0.000000
vn 1.000000 0.000000 0.000000
vn 1.000000 0.000000 0.000000
vn 1.000000 0.000000 0.000000
vn 0.000000 0.000000 1.000000
vn 0.000000 0.000000 1.000000
vn 0.000000 0.000000 1.000000
vn 0.000000 0.000000 1.000000
vn 0.000000 0.000000 1.000000
vn 0.000000 0.000000 1.000000
vn -1.000000 0.000000 0.000000
vn -1.000000 0.000000 0.000000
vn -1.000000 0.000000 0.000000
vn -1.000000 0.000000 0.000000
vn -1.000000 0.000000 0.000000
vn -1.000000 0.000000 0.000000
vn 0.000000 0.000000 -1.000000
vn 0.000000 0.000000 -1.000000
vn 0.000000 0.000000 -1.000000
vn 0.000000 0.000000 -1.000000
vn 0.000000 0.000000 -1.000000
vn 0.000000 0.000000 -1.000000
vn 1.000000 0.000000 0.000000
vn 1.000000 0.000000 0.000000
vn 1.000000 0.000000 0.000000
vn 1.000000 0.000000 0.000000
vn 1.000000 0.000000 0.000000
vn 1.000000 0.000000 0.000000
vn 0.000000 0.000000 1.000000
vn 0.000000 0.000000 1.000000
vn 0.000000 0.000000 1.000000
vn 0.000000 0.000000 1.000000
vn 0.000000 0.000000 1.000000
vn 0.000000 0.000000 1.000000
vn -1.000000 0.000000 0.000000
vn -1.000000 0.000000 0.000000
vn -1.000000 0.000000 0.000000
vn -1.000000 0.000000 0.000000
vn -1.000000 0.000000 0.000000
vn -1.000000 0.000000 0.000000
vn 0.000000 0.000000 -1.000000
vn 0.000000 0.000000 -1.000000
vn 0.000000 0.000000 -1.000000
vn 0.000000 0.000002 -1.000000
vn 0.000000 0.000002 -1.000000
vn 0.000000 0.000002 -1.000000
vn -0.000000 0.000002 -1.000000
vn -0.000000 0.000002 -1.000000
vn -0.000000 0.000002 -1.000000
vn 0.000001 -0.000002 -1.000000
vn 0.000001 -0.000002 -1.000000
vn 0.000001 -0.000002 -1.000000
vn -0.999997 -0.002334 0.000000
vn -0.999997 -0.002334 0.000000
vn -0.999997 -0.002334 0.000000
vn -0.999999 -0.001167 -0.000027
vn -0.999999 -0.001167 -0.000027
vn -0.999999 -0.001167 -0.000027
vn -0.000000 0.000000 1.000000
vn -0.000000 0.000000 1.000000
vn -0.000000 0.000000 1.000000
vn 0.000000 0.000000 1.000000
vn 0.000000 0.000000 1.000000
vn 0.000000 0.000000 1.000000
vn 0.000000 0.000000 1.000000
vn 0.000000 0.000000 1.000000
vn 0.000000 0.000000 1.000000
vn -0.000000 0.000000 1.000000
vn -0.000000 0.000000 1.000000
vn -0.000000 0.000000 1.000000
vn 0.999997 0.002444 0.000000
vn 0.999997 0.002444 0.000000
vn 0.999997 0.002444 0.000000
vn 0.999997 0.002444 0.000000
vn 0.999997 0.002444 0.000000
vn 0.999997 0.002444 0.000000
vn -0.108677 0.994077 0.000000
vn -0.108677 0.994077 0.000000
vn -0.108677 0.994077 0.000000
vn -0.108677 0.994077 0.000000
vn -0.108677 0.994077 0.000000
vn -0.108677 0.994077 0.000000
vn 0.109873 0.993946 0.000000
vn 0.109873 0.993946 0.000000
vn 0.109873 0.993946 0.000000
vn 0.109873 0.993946 0.000000
vn 0.109873 0.993946 0.000000
vn 0.109873 0.993946 0.000000
vn -0.109022 -0.994039 0.000000
vn -0.109022 -0.994039 0.000000
vn -0.109022 -0.994039 0.000000
vn -0.109022 -0.994039 -0.000000
vn -0.109022 -0.994039 -0.000000
vn -0.109022 -0.994039 -0.000000
vn 0.110389 -0.993888 -0.000003
vn 0.110390 -0.993888 -0.000003
vn 0.110389 -0.993888 -0.000003
vn 0.110384 -0.993889 -0.000000
vn 0.110384 -0.993889 -0.000000
vn 0.110384 -0.993889 -0.000000
vn 0.000000 0.000000 -1.000000
vn 0.000000 0.000000 -1.000000
vn 0.000000 0.000000 -1.000000
vn -0.999981 -0.006232 0.000000
vn -0.999981 -0.006232 0.000000
vn -0.999981 -0.006232 0.000000
vn -0.995618 0.000000 -0.093513
vn -0.995618 0.000000 -0.093513
vn -0.995618 0.000000 -0.093513
vn 0.000000 0.000000 1.000000
vn 0.000000 0.000000 1.000000
vn 0.000000 0.000000 1.000000
vn 0.000000 0.000000 1.000000
vn 0.000000 0.000000 1.000000
vn 0.000000 0.000000 1.000000
vn 1.000000 0.000000 0.000000
vn 1.000000 0.000000 0.000000
vn 1.000000 0.000000 0.000000
vn 1.000000 0.000000 0.000000
vn 1.000000 0.000000 0.000000
vn 1.000000 0.000000 0.000000
vn 0.000000 0.000000 -1.000000
vn 0.000000 0.000000 -1.000000
vn 0.000000 0.000000 -1.000000
vn 0.000000 0.000000 -1.000000
vn 0.000000 0.000000 -1.000000
vn 0.000000 0.000000 -1.000000
vn -1.000000 0.000000 0.000000
vn -1.000000 0.000000 0.000000
vn -1.000000 0.000000 0.000000
vn -1.000000 0.000000 0.000000
vn -1.000000 0.000000 0.000000
vn -1.000000 0.000000 0.000000
vn 0.000000 0.000000 1.000000
vn 0.000000 0.000000 1.000000
vn 0.000000 0.000000 1.000000
vn 0.000000 0.000000 1.000000
vn 0.000000 0.000000 1.000000
vn 0.000000 0.000000 1.000000
vn 1.000000 0.000000 0.000000
vn 1.000000 0.000000 0.000000
vn 1.000000 0.000000 0.000000
vn 1.000000 0.000000 0.000000
vn 1.000000 0.000000 0.000000
vn 1.000000 0.000000 0.000000
vn 0.000000 -0.000000 -1.000000
vn 0.000000 -0.000000 -1.000000
vn 0.000000 -0.000000 -1.000000
vn 0.000000 0.000000 -1.000000
vn 0.000000 0.000000 -1.000000
vn 0.000000 0.000000 -1.000000
vn -1.000000 0.000000 0.000000
vn -1.000000 0.000000 0.000000
vn -1.000000 0.000000 0.000000
vn -1.000000 0.000000 0.000000
vn -1.000000 0.000000 0.000000
vn -1.000000 0.000000 0.000000
vn 0.000000 0.000000 1.000000
vn 0.000000 0.000000 1.000000
vn 0.000000 0.000000 1.000000
vn 0.000000 0.000000 1.000000
vn 0.000000 0.000000 1.000000
vn 0.000000 0.000000 1.000000
vn 1.000000 0.000000 0.000000
vn 1.000000 0.000000 0.000000
vn 1.000000 0.000000 0.000000
vn 1.000000 0.000000 0.000000
vn 1.000000 0.000000 0.000000
vn 1.000000 0.000000 0.000000
vn 0.000000 0.000000 -1.000000
vn 0.000000 0.000000 -1.000000
vn 0.000000 0.000000 -1.000000
vn 0.000000 0.000000 -1.000000
vn 0.000000 0.000000 -1.000000
vn 0.000000 0.000000 -1.000000
vn -1.000000 0.000000 0.000000
vn -1.000000 0.000000 0.000000
vn -1.000000 0.000000 0.000000
vn -1.000000 0.000000 0.000000
vn -1.000000 0.000000 0.000000
vn -1.000000 0.000000 0.000000
vn 0.000000 0.000000 1.000000
vn 0.000000 0.000000 1.000000
vn 0.000000 0.000000 1.000000
vn 0.000000 0.000000 1.000000
vn 0.000000 0.000000 1.000000
vn 0.000000 0.000000 1.000000
vn 1.000000 0.000000 0.000000
vn 1.000000 0.000000 0.000000
vn 1.000000 0.000000 0.000000
vn 1.000000 0.000000 0.000000
vn 1.000000 0.000000 0.000000
vn 1.000000 0.000000 0.000000
vn 0.000000 0.000000 -1.000000
vn 0.000000 0.000000 -1.000000
vn 0.000000 0.000000 -1.000000
vn 0.000000 0.000000 -1.000000
vn 0.000000 0.000000 -1.000000
vn 0.000000 0.000000 -1.000000
vn -1.000000 0.000000 0.000000
vn -1.000000 0.000000 0.000000
vn -1.000000 0.000000 0.000000
vn -1.000000 0.000000 0.000000
vn -1.000000 0.000000 0.000000
vn -1.000000 0.000000 0.000000
vn 0.000000 0.000000 1.000000
vn 0.000000 0.000000 1.000000
vn 0.000000 0.000000 1.000000
vn 0.000000 0.000000 1.000000
vn 0.000000 0.000000 1.000000
vn 0.000000 0.000000 1.000000
vn 1.000000 0.000000 0.000000
vn 1.000000 0.000000 0.000000
vn 1.000000 0.000000 0.000000
vn 1.000000 0.000000 0.000000
vn 1.000000 0.000000 0.000000
vn 1.000000 0.000000 0.000000
vn 0.000000 0.000000 -1.000000
vn 0.000000 0.000000 -1.000000
vn 0.000000 0.000000 -1.000000
s off
g collision
usemtl initialShadingGroup
f 1//1 2//2 3//3
f 2//4 1//5 4//6
f 5//7 4//8 6//9
f 4//10 1//11 6//12
f 7//13 6//14 3//15
f 6//16 1//17 3//18
f 8//19 5//20 7//21
f 5//22 6//23 7//24
f 2//25 4//26 8//27
f 4//28 5//29 8//30
f 9//31 10//32 11//33
f 10//34 12//35 11//36
f 13//37 11//38 14//39
f 11//40 12//41 14//42
f 15//43 9//44 13//45
f 9//46 11//47 13//48
f 14//49 12//50 16//51
f 12//52 10//53 16//54
f 17//55 18//56 19//57
f 18//58 20//59 19//60
f 21//61 19//62 22//63
f 19//64 20//65 22//66
f 23//67 17//68 21//69
f 17//70 19//71 21//72
f 22//73 20//74 24//75
f 20//76 18//77 24//78
f 25//79 26//80 27//81
f 26//82 28//83 27//84
f 27//85 29//86 25//87
f 25//88 29//89 30//90
f 29//91 31//92 30//93
f 31//94 32//95 30//96
f 35//97 36//98 34//99
f 34//100 36//101 37//102
f 36//103 38//104 37//105
f 38//106 39//107 37//108
f 29//109 27//110 31//111
f 27//112 40//113 31//114
f 31//115 40//116 32//117
f 32//118 40//119 41//120
f 40//121 42//122 41//123
f 41//124 42//125 33//126
f 42//127 35//128 33//129
f 33//130 35//131 34//132
f 35//133 43//134 36//135
f 36//136 43//137 38//138
f 38//139 43//140 44//141
f 44//142 43//143 28//144
f 28//145 43//146 27//147
f 27//148 43//149 40//150
f 40//151 43//152 42//153
f 42//154 43//155 35//156
f 26//157 45//158 28//159
f 28//160 45//161 44//162
f 45//163 39//164 44//165
f 44//166 39//167 38//168
f 46//169 47//170 48//171
f 47//172 49//173 48//174
f 48//175 49//176 50//177
f 49//178 51//179 50//180
f 50//181 51//182 52//183
f 51//184 53//185 52//186
f 52//187 53//188 46//189
f 53//190 47//191 46//192
f 54//193 55//194 56//195
f 55//196 57//197 56//198
f 56//199 57//200 58//201
f 57//202 59//203 58//204
f 58//205 59//206 60//207
f 59//208 61//209 60//210
f 60//211 61//212 54//213
f 61//214 55//215 54//216
f 63//217 62//218 64//219
f 62//220 66//221 64//222
f 64//223 66//224 65//225
f 66//226 67//227 65//228
f 65//229 67//230 68//231
f 67//232 69//233 68//234
f 68//235 69//236 70//237
f 69//238 71//239 70//240
f 70//241 71//242 72//243
f 71//244 73//245 72//246
f 72//247 73//248 63//249
f 73//250 62//251 63//252
f 68//253 70//254 65//255
f 65//256 70//257 64//258
f 64//259 70//260 63//261
f 63//262 70//263 72//264
f 75//265 76//266 77//267
f 76//268 78//269 77//270
f 69//271 74//272 77//273
f 77//274 74//275 75//276
f 79//277 82//278 83//279
f 83//280 82//281 84//282
f 82//283 81//284 84//285
f 84//286 81//287 85//288
f 81//289 80//290 85//291
f 85//292 80//293 86//294
f 80//295 79//296 86//297
f 86//298 79//299 83//300
f 87//301 90//302 91//303
f 91//304 90//305 92//306
f 90//307 89//308 92//309
f 92//310 89//311 93//312
f 89//313 88//314 93//315
f 93//316 88//317 94//318
f 88//319 87//320 94//321
f 94//322 87//323 91//324
f 95//325 98//326 99//327
f 99//328 98//329 100//330
f 98//331 97//332 100//333
f 100//334 97//335 101//336
f 97//337 96//338 101//339
f 101//340 96//341 102//342
f 96//343 95//344 102//345
f 102//346 95//347 99//348
f 103//349 106//350 107//351
f 107//352 106//353 108//354
f 106//355 105//356 108//357
f 108//358 105//359 109//360
f 105//361 104//362 109//363
f 109//364 104//365 110//366
f 104//367 103//368 110//369
f 110//370 103//371 107//372
f 111//373 114//374 115//375
f 115//376 114//377 116//378
f 114//379 113//380 116//381
f 116//382 113//383 117//384
f 113//385 112//386 117//387
f 117//388 112//389 118//390
f 112//391 111//392 118//393
f 118//394 111//395 115//396
