# This file uses centimeters as units for non-parametric coordinates.

mtllib MotorbikeLOD.mtl
g default
v -28.226892 7.433468 8.888907
v 17.576954 6.748722 8.888907
v -1.867048 55.787178 8.888907
v 17.576946 41.750184 8.888907
v -1.867048 55.787178 -18.425355
v 17.576946 41.750184 -18.425355
v -28.226892 7.433468 -18.425355
v 17.576954 6.748722 -18.425355
v 79.956143 6.748739 -18.425355
v 79.956143 6.748739 8.888907
v 83.314924 44.576845 -18.425355
v 83.314924 44.576845 8.888907
v 36.762118 54.175103 8.888907
v 36.762118 54.175103 -18.425355
v 60.770968 54.175107 8.888907
v 60.770968 54.175107 -18.425355
v 101.436752 18.051792 -18.425355
v 101.436752 18.051792 8.888907
v 93.970698 23.244809 -18.425355
v 93.970698 23.244809 8.888907
v -42.502884 52.782918 -18.425355
v -42.502884 52.782918 8.888907
v -29.311843 68.230424 8.888907
v -29.311843 68.230424 -18.425355
v -66.890961 61.349582 -18.425355
v -66.890961 61.349582 8.888907
v -53.699916 76.797096 8.888907
v -53.699916 76.797096 -18.425355
v -60.240630 1.815681 -18.425355
v -60.240630 1.815681 8.888907
v -84.196154 4.747823 8.888907
v -84.196154 4.747823 -18.425355
v -84.669908 50.312410 -18.425355
v -84.669908 50.312410 8.888907
v -91.913347 19.223329 -18.425355
v -91.913347 19.223329 8.888907
v -38.733117 34.715668 -18.425355
v -38.733117 34.715668 8.888907
v -39.394568 11.866147 8.888907
v -39.394568 11.866147 -18.425355
v -69.301201 68.177109 -12.616402
v -69.301201 68.177109 3.079954
v -61.720864 77.054133 3.079954
v -61.720864 77.054133 -12.616402
v 28.061033 15.561335 -22.568368
v 28.061037 6.748722 -22.568368
v 72.830845 18.387996 -22.568368
v 70.543403 6.748739 -22.568368
v 28.061037 6.748722 13.031918
v 28.061033 15.561335 13.031918
v 70.543403 6.748739 13.031918
v 72.830845 18.387996 13.031918
v -44.212766 68.342135 11.028948
v -41.715266 71.266842 11.028948
v -46.332725 72.888795 11.028948
v -48.830232 69.964073 11.028948
v -41.715266 71.266842 -20.565396
v -44.212766 68.342135 -20.565396
v -48.830232 69.964073 -20.565396
v -46.332725 72.888795 -20.565396
v -37.387642 68.342135 22.808413
v -34.890142 71.266842 22.808413
v -39.507601 72.888795 22.808413
v -42.005108 69.964073 22.808413
v -34.890142 71.266842 -32.344862
v -37.387642 68.342135 -32.344862
v -42.005108 69.964073 -32.344862
v -39.507601 72.888795 -32.344862
vt 0.375000 0.000000
vt 0.625000 0.000000
vt 0.375000 0.250000
vt 0.625000 0.250000
vt 0.375000 0.500000
vt 0.625000 0.500000
vt 0.375000 0.750000
vt 0.625000 0.750000
vt 0.375000 1.000000
vt 0.625000 1.000000
vt 0.875000 0.000000
vt 0.875000 0.250000
vt 0.125000 0.000000
vt 0.125000 0.250000
vt 0.625000 0.000000
vt 0.875000 0.000000
vt 0.875000 0.250000
vt 0.625000 0.250000
vt 0.875000 0.250000
vt 0.625000 0.250000
vt 0.625000 0.250000
vt 0.875000 0.250000
vt 0.625000 0.000000
vt 0.875000 0.000000
vt 0.875000 0.250000
vt 0.625000 0.250000
vt 0.125000 0.000000
vt 0.375000 0.000000
vt 0.375000 0.250000
vt 0.125000 0.250000
vt 0.125000 0.000000
vt 0.375000 0.000000
vt 0.375000 0.250000
vt 0.125000 0.250000
vt 0.125000 0.000000
vt 0.375000 0.000000
vt 0.375000 0.000000
vt 0.125000 0.000000
vt 0.375000 0.000000
vt 0.125000 0.000000
vt 0.125000 0.000000
vt 0.375000 0.000000
vt 0.125000 0.000000
vt 0.375000 0.000000
vt 0.375000 0.000000
vt 0.125000 0.000000
vt 0.125000 0.000000
vt 0.375000 0.000000
vt 0.375000 0.250000
vt 0.125000 0.250000
vt 0.875000 0.000000
vt 0.875000 0.250000
vt 0.875000 0.250000
vt 0.875000 0.000000
vt 0.625000 0.250000
vt 0.625000 0.000000
vt 0.625000 0.000000
vt 0.625000 0.250000
vt 0.375000 0.000000
vt 0.375000 0.250000
vt 0.375000 0.250000
vt 0.375000 0.000000
vt 0.125000 0.250000
vt 0.125000 0.000000
vt 0.125000 0.000000
vt 0.125000 0.250000
vt 0.375000 0.000000
vt 0.375000 0.250000
vt 0.375000 0.250000
vt 0.375000 0.000000
vt 0.125000 0.250000
vt 0.125000 0.000000
vt 0.125000 0.000000
vt 0.125000 0.250000
vn 0.000000 0.000000 1.000000
vn 0.000000 0.000000 1.000000
vn 0.000000 0.000000 1.000000
vn 0.000000 0.000000 1.000000
vn 0.491746 0.870739 0.000000
vn 0.585329 0.810796 0.000000
vn 0.585329 0.810796 0.000000
vn 0.491746 0.870739 0.000000
vn 0.000000 0.000000 -1.000000
vn 0.000000 0.000000 -1.000000
vn 0.000000 0.000000 -1.000000
vn 0.000000 0.000000 -1.000000
vn -0.608207 -0.793779 0.000000
vn -0.006220 -0.999981 0.000000
vn -0.006220 -0.999981 -0.000000
vn -0.608207 -0.793779 0.000000
vn 0.571008 0.820945 0.000000
vn 0.571008 0.820945 0.000000
vn 0.571008 0.820945 0.000000
vn 0.571008 0.820945 0.000000
vn -0.760463 0.649381 0.000000
vn -0.760463 0.649381 0.000000
vn -0.760463 0.649381 0.000000
vn -0.760463 0.649381 0.000000
vn 0.130371 -0.991465 0.000000
vn 0.130371 -0.991465 -0.000000
vn -0.000000 0.000000 -1.000000
vn -0.000000 0.000000 -1.000000
vn -0.000000 0.000000 -1.000000
vn -0.000000 0.000000 -1.000000
vn -0.000000 1.000000 0.000000
vn -0.000000 1.000000 0.000000
vn -0.000000 1.000000 0.000000
vn -0.000000 1.000000 0.000000
vn -0.000000 0.000000 1.000000
vn -0.000000 0.000000 1.000000
vn -0.000000 0.000000 1.000000
vn -0.000000 0.000000 1.000000
vn -0.543590 0.839351 0.000000
vn -0.543590 0.839351 0.000000
vn -0.543590 0.839351 0.000000
vn -0.543590 0.839351 0.000000
vn 0.000000 0.000000 1.000000
vn 0.000000 0.000000 1.000000
vn 0.000000 0.000000 1.000000
vn 0.000000 0.000000 1.000000
vn 0.391731 0.920080 0.000000
vn 0.391731 0.920080 0.000000
vn 0.391731 0.920080 0.000000
vn 0.391731 0.920080 0.000000
vn 0.000000 0.000000 -1.000000
vn 0.000000 0.000000 -1.000000
vn 0.000000 0.000000 -1.000000
vn 0.000000 0.000000 -1.000000
vn 0.465665 -0.884961 0.000000
vn 0.465665 -0.884961 0.000000
vn -0.000000 0.000000 -1.000000
vn -0.000000 0.000000 -1.000000
vn -0.000000 0.000000 -1.000000
vn -0.000000 0.000000 -1.000000
vn 0.894599 0.446870 0.000000
vn 0.894599 0.446870 0.000000
vn 0.894599 0.446870 0.000000
vn 0.894599 0.446870 0.000000
vn 0.000000 0.000000 1.000000
vn 0.000000 0.000000 1.000000
vn 0.000000 0.000000 1.000000
vn 0.000000 0.000000 1.000000
vn -0.953853 -0.300273 0.000000
vn -0.953853 -0.300273 0.000000
vn 0.000000 0.000000 1.000000
vn 0.000000 0.000000 1.000000
vn 0.375537 0.926806 -0.001532
vn 0.375537 0.926806 0.001532
vn -0.000000 0.000000 -1.000000
vn -0.000000 0.000000 -1.000000
vn 0.156917 -0.987612 0.000000
vn 0.156917 -0.987612 0.000000
vn -0.481656 -0.876360 0.000000
vn -0.481656 -0.876360 0.000000
vn 0.000000 0.000000 1.000000
vn 0.000000 0.000000 1.000000
vn 0.000000 0.000000 1.000000
vn 0.000000 0.000000 1.000000
vn 0.294865 0.955529 -0.004382
vn 0.294865 0.955529 0.004382
vn 0.000000 0.000000 -1.000000
vn 0.000000 0.000000 -1.000000
vn 0.000000 0.000000 -1.000000
vn 0.000000 0.000000 -1.000000
vn 0.999581 -0.028936 0.000000
vn 0.999581 -0.028936 0.000000
vn 0.999581 -0.028936 0.000000
vn 0.999581 -0.028936 0.000000
vn 0.000000 0.000000 1.000000
vn 0.000000 0.000000 1.000000
vn 0.000000 0.000000 1.000000
vn 0.000000 0.000000 1.000000
vn -0.973915 0.226913 0.000000
vn -0.973915 0.226913 0.000000
vn -0.973915 0.226913 0.000000
vn -0.973915 0.226913 0.000000
vn 0.000000 0.000000 -1.000000
vn -0.000000 0.000000 -1.000000
vn -0.000000 0.000000 -1.000000
vn 0.000000 0.000000 -1.000000
vn -0.527431 0.849598 0.000000
vn -0.527431 0.849598 0.000000
vn -0.527431 0.849598 0.000000
vn -0.527431 0.849598 0.000000
vn 0.000000 0.000000 -1.000000
vn 0.000000 0.000000 -1.000000
vn -0.882431 -0.470443 0.000000
vn -0.882431 -0.470443 0.000000
vn 0.000000 0.000000 1.000000
vn 0.000000 0.000000 1.000000
vn 0.978918 0.204253 0.000000
vn 0.978918 0.204253 0.000000
vn 0.978918 0.204253 0.000000
vn 0.978918 0.204253 0.000000
vn -0.000000 0.000000 1.000000
vn -0.000000 0.000000 1.000000
vn 0.434288 -0.900774 0.000000
vn 0.434288 -0.900774 0.000000
vn -0.000000 0.000000 -1.000000
vn -0.000000 0.000000 -1.000000
vn -0.942968 -0.332883 0.000000
vn -0.942968 -0.332883 0.000000
vn -0.942968 -0.332883 0.000000
vn -0.942968 -0.332883 0.000000
vn -0.516980 0.441463 0.733377
vn -0.516980 0.441463 0.733377
vn -0.516980 0.441463 0.733377
vn -0.516980 0.441463 0.733377
vn 0.032029 0.999487 0.000000
vn 0.032029 0.999487 0.000000
vn -0.516980 0.441463 -0.733377
vn -0.516980 0.441463 -0.733377
vn -0.516980 0.441463 -0.733377
vn -0.516980 0.441463 -0.733377
vn -0.367516 -0.000000 -0.930017
vn -0.367516 -0.000000 -0.930017
vn -0.367517 -0.000000 -0.930017
vn -0.367517 -0.000000 -0.930017
vn -0.007993 0.156249 -0.987685
vn -0.007993 0.156249 -0.987685
vn -0.007993 0.156249 -0.987685
vn -0.007993 0.156249 -0.987685
vn 0.439517 -0.050167 -0.896833
vn 0.439517 -0.050167 -0.896832
vn 0.439517 -0.050167 -0.896833
vn 0.439517 -0.050167 -0.896833
vn 0.000000 -1.000000 0.000000
vn 0.000000 -1.000000 0.000000
vn -0.367516 -0.000000 0.930017
vn -0.367516 -0.000000 0.930017
vn -0.367516 -0.000000 0.930017
vn -0.367516 -0.000000 0.930017
vn 0.000000 -1.000000 -0.000000
vn 0.000000 -1.000000 -0.000000
vn 0.439516 -0.050167 0.896833
vn 0.439516 -0.050167 0.896833
vn 0.439516 -0.050167 0.896833
vn 0.439516 -0.050167 0.896833
vn -0.007993 0.156249 0.987685
vn -0.007993 0.156249 0.987685
vn -0.007993 0.156249 0.987685
vn -0.007993 0.156249 0.987685
vn 0.140256 -0.119769 0.982845
vn 0.140256 -0.119769 0.982845
vn 0.140256 -0.119769 0.982845
vn 0.140256 -0.119769 0.982845
vn 0.286413 0.815377 0.503118
vn 0.286413 0.815377 0.503118
vn -0.193349 0.165106 0.967138
vn -0.193349 0.165106 0.967138
vn -0.193349 0.165106 0.967138
vn -0.193349 0.165106 0.967138
vn -0.049685 -0.141447 0.988698
vn -0.049685 -0.141447 0.988698
vn -0.049685 -0.141447 0.988698
vn -0.049685 -0.141447 0.988698
vn 0.140256 -0.119769 -0.982845
vn 0.140256 -0.119769 -0.982845
vn 0.140256 -0.119769 -0.982845
vn 0.140256 -0.119769 -0.982845
vn -0.049685 -0.141447 -0.988698
vn -0.049685 -0.141447 -0.988698
vn -0.049685 -0.141448 -0.988698
vn -0.049685 -0.141447 -0.988698
vn -0.193348 0.165106 -0.967138
vn -0.193348 0.165106 -0.967138
vn -0.193348 0.165106 -0.967138
vn -0.193349 0.165106 -0.967138
vn 0.286413 0.815377 -0.503118
vn 0.286413 0.815377 -0.503118
vn 0.695904 -0.594254 -0.403212
vn 0.695903 -0.594254 -0.403212
vn 0.695904 -0.594254 -0.403212
vn 0.695903 -0.594254 -0.403212
vn 0.325467 0.926558 -0.188579
vn 0.325467 0.926558 -0.188579
vn 0.325467 0.926558 -0.188579
vn 0.325467 0.926558 -0.188579
vn -0.695904 0.594253 0.403213
vn -0.695904 0.594253 0.403213
vn -0.695904 0.594253 0.403213
vn -0.695904 0.594253 0.403213
vn -0.325464 -0.926559 0.188576
vn -0.325464 -0.926559 0.188576
vn -0.325464 -0.926559 0.188576
vn -0.325464 -0.926559 0.188576
vn 0.695904 -0.594254 0.403213
vn 0.695904 -0.594254 0.403213
vn 0.695904 -0.594254 0.403213
vn 0.695904 -0.594254 0.403213
vn -0.325464 -0.926559 -0.188576
vn -0.325464 -0.926559 -0.188576
vn -0.325464 -0.926559 -0.188576
vn -0.325464 -0.926559 -0.188576
vn -0.695904 0.594253 -0.403213
vn -0.695904 0.594253 -0.403213
vn -0.695904 0.594253 -0.403213
vn -0.695904 0.594253 -0.403213
vn 0.325468 0.926558 0.188578
vn 0.325468 0.926558 0.188578
vn 0.325468 0.926558 0.188578
vn 0.325468 0.926558 0.188578
s 1
g pCube1
usemtl lambert2SG
f 1/1/1 2/2/2 4/4/3 3/3/4
s 2
f 3/3/5 4/4/6 6/6/7 5/5/8
s 3
f 5/5/9 6/6/10 8/8/11 7/7/12
s 4
f 7/7/13 8/8/14 2/10/15 1/9/16
s off
f 18/23/17 17/24/18 19/25/19 20/26/20
f 41/47/21 42/48/22 43/49/23 44/50/24
s 4
f 2/2/15 8/11/14 9/16/25 10/15/26
s off
f 46/51/27 45/52/28 47/53/29 48/54/30
f 14/19/31 13/20/32 15/21/33 16/22/34
f 50/55/35 49/56/36 51/57/37 52/58/38
f 6/12/39 4/4/40 13/20/41 14/19/42
f 4/4/43 12/18/44 15/21/45 13/20/46
f 12/18/47 11/17/48 16/22/49 15/21/50
f 11/17/51 6/12/52 14/19/53 16/22/54
s 4
f 10/15/26 9/16/25 17/24/55 18/23/56
s off
f 9/16/57 11/17/58 19/25/59 17/24/60
f 11/17/61 12/18/62 20/26/63 19/25/64
f 12/18/65 10/15/66 18/23/67 20/26/68
s 4
f 7/13/13 1/1/16 22/28/69 21/27/70
s 1
f 1/1/1 3/3/4 23/29/71 22/28/72
s 2
f 3/3/5 5/14/8 24/30/73 23/29/74
s 3
f 5/14/9 7/13/12 21/27/75 24/30/76
s 5
f 29/35/77 30/36/78 31/37/79 32/38/80
s off
f 61/67/81 62/68/82 63/69/83 64/70/84
s 2
f 23/29/74 24/30/73 28/34/85 27/33/86
s off
f 65/71/87 66/72/88 67/73/89 68/74/90
f 37/43/91 38/44/92 39/45/93 40/46/94
s 6
f 22/28/95 26/32/96 31/37/97 30/36/98
s off
f 34/39/99 33/40/100 35/41/101 36/42/102
s 7
f 25/31/103 21/27/104 29/35/105 32/38/106
s off
f 26/32/107 25/31/108 33/40/109 34/39/110
s 7
f 25/31/103 32/38/106 35/41/111 33/40/112
s 5
f 32/38/80 31/37/79 36/42/113 35/41/114
s 6
f 31/37/97 26/32/96 34/39/115 36/42/116
s off
f 21/27/117 22/28/118 38/44/119 37/43/120
s 6
f 22/28/95 30/36/98 39/45/121 38/44/122
s 5
f 30/36/78 29/35/77 40/46/123 39/45/124
s 7
f 29/35/105 21/27/104 37/43/125 40/46/126
s off
f 25/31/127 26/32/128 42/48/129 41/47/130
f 26/32/131 27/33/132 43/49/133 42/48/134
s 2
f 27/33/86 28/34/85 44/50/135 43/49/136
s off
f 28/34/137 25/31/138 41/47/139 44/50/140
f 8/11/141 6/12/142 45/52/143 46/51/144
f 6/12/145 11/17/146 47/53/147 45/52/148
f 11/17/149 9/16/150 48/54/151 47/53/152
s 4
f 9/16/25 8/11/14 46/51/153 48/54/154
s off
f 4/4/155 2/2/156 49/56/157 50/55/158
s 4
f 2/2/15 10/15/26 51/57/159 49/56/160
s off
f 10/15/161 12/18/162 52/58/163 51/57/164
f 12/18/165 4/4/166 50/55/167 52/58/168
f 22/28/169 23/29/170 54/60/171 53/59/172
s 2
f 23/29/74 27/33/86 55/61/173 54/60/174
s off
f 27/33/175 26/32/176 56/62/177 55/61/178
f 26/32/179 22/28/180 53/59/181 56/62/182
f 24/30/183 21/27/184 58/64/185 57/63/186
f 21/27/187 25/31/188 59/65/189 58/64/190
f 25/31/191 28/34/192 60/66/193 59/65/194
s 2
f 28/34/85 24/30/73 57/63/195 60/66/196
s off
f 53/59/197 54/60/198 62/68/199 61/67/200
f 54/60/201 55/61/202 63/69/203 62/68/204
f 55/61/205 56/62/206 64/70/207 63/69/208
f 56/62/209 53/59/210 61/67/211 64/70/212
f 57/63/213 58/64/214 66/72/215 65/71/216
f 58/64/217 59/65/218 67/73/219 66/72/220
f 59/65/221 60/66/222 68/74/223 67/73/224
f 60/66/225 57/63/226 65/71/227 68/74/228
