# This file uses centimeters as units for non-parametric coordinates.

mtllib Book.mtl
g default
v 6.570044 0.248888 9.954863
v 6.570069 0.248888 -9.954773
v -5.828660 0.248888 9.954850
v -5.828657 0.248888 -9.954815
v -6.075603 2.152008 9.954848
v -5.828666 2.550727 9.954851
v -6.386326 2.223618 9.954848
v -5.941058 2.847934 9.954849
v -6.075596 0.646458 9.954848
v -6.386318 0.574848 9.954847
v -5.941053 -0.049462 9.954851
v 6.570044 -0.049462 9.954865
v 6.570069 -0.049462 -9.954771
v -5.941028 -0.049462 -9.954828
v -5.212256 1.939589 -9.506763
v 5.851176 1.939589 -9.506757
v -5.212256 0.972482 -9.506763
v 5.851176 0.972482 -9.506757
v 6.029552 2.550727 -9.758677
v -5.828659 2.550727 -9.758687
v -6.347763 1.939589 -9.506771
v -6.347763 0.972482 -9.506771
v -5.828653 0.248889 -9.758687
v 6.029552 0.248889 -9.758677
v 5.851151 1.939589 9.626771
v -5.212260 1.939589 9.626758
v 5.851151 0.972482 9.626771
v -5.212260 0.972482 9.626758
v 6.029526 0.248889 9.781623
v -5.828668 0.248889 9.781613
v -6.347788 0.972482 9.626758
v -6.347788 1.939589 9.626758
v -5.828673 2.550727 9.781613
v 6.029526 2.550727 9.781623
v -6.565744 1.399234 9.954848
v -6.244240 1.399234 9.954848
v 6.570043 2.550727 9.954866
v 6.570043 2.847934 9.954865
v 6.570067 2.847934 -9.954770
v 6.570067 2.550727 -9.954769
v -6.386294 0.574849 -9.954871
v -6.565721 1.399234 -9.954871
v -6.386301 2.223617 -9.954871
v -5.941033 2.847934 -9.954827
v -5.828662 2.550727 -9.954813
v -6.075571 0.646458 -9.954871
v -6.244215 1.399234 -9.954871
v -6.075578 2.152008 -9.954871
vt 0.489081 0.009558
vt 0.489081 0.490440
vt 0.188254 0.009557
vt 0.188254 0.490442
vt 0.166268 0.086668
vt 0.172232 0.096298
vt 0.158763 0.088397
vt 0.169518 0.103476
vt 0.166268 0.050303
vt 0.158763 0.048574
vt 0.172232 0.040701
vt 0.169518 0.033495
vt 0.496287 0.009558
vt 0.489081 0.009558
vt 0.496287 0.490441
vt 0.489081 0.490441
vt 0.190969 0.497648
vt 0.489081 0.497647
vt 0.188255 0.490442
vt 0.188254 0.009558
vt 0.489081 0.002352
vt 0.190969 0.002352
vt 0.017284 0.294760
vt 0.017284 0.014083
vt 0.041819 0.294760
vt 0.041819 0.014083
vt 0.001780 0.009558
vt 0.001780 0.310398
vt 0.017284 0.323568
vt 0.041819 0.323568
vt 0.060177 0.310398
vt 0.060177 0.009558
vt 0.017284 0.485917
vt 0.017284 0.205241
vt 0.041819 0.485917
vt 0.041819 0.205241
vt 0.060177 0.490442
vt 0.060177 0.189603
vt 0.041819 0.176433
vt 0.017284 0.176433
vt 0.001780 0.189602
vt 0.001780 0.490442
vt 0.158763 0.048574
vt 0.166268 0.050303
vt 0.154429 0.068485
vt 0.162195 0.068485
vt 0.166268 0.086668
vt 0.158763 0.088397
vt 0.489081 0.002379
vt 0.489081 0.009558
vt 0.190969 0.002380
vt 0.188254 0.009558
vt 0.489081 0.490441
vt 0.496260 0.009558
vt 0.496260 0.490441
vt 0.118273 0.490442
vt 0.118272 0.009558
vt 0.133352 0.490443
vt 0.133352 0.009558
vt 0.153263 0.490443
vt 0.153263 0.009558
vt 0.173175 0.009558
vt 0.173175 0.490443
vt 0.188254 0.490442
vt 0.190939 0.497621
vt 0.489081 0.497619
vt 0.060177 0.490442
vt 0.041819 0.484051
vt 0.060177 0.009558
vt 0.041819 0.013487
vt 0.017284 0.484051
vt 0.017284 0.013487
vt 0.001780 0.490442
vt 0.001780 0.009558
vt 0.143265 0.040701
vt 0.140551 0.033495
vt 0.137301 0.050303
vt 0.129796 0.048574
vt 0.133228 0.068485
vt 0.125462 0.068485
vt 0.129796 0.088397
vt 0.137301 0.086668
vt 0.140580 0.103476
vt 0.143265 0.096298
vt 0.132657 0.009558
vt 0.132657 0.490442
vt 0.142260 0.009558
vt 0.142260 0.490443
vt 0.160442 0.009558
vt 0.160442 0.490443
vt 0.178624 0.490443
vt 0.178624 0.009558
vt 0.188254 0.490442
vt 0.188254 0.009558
vt 0.489081 0.490441
vt 0.489081 0.009558
vn 0.577350 0.577351 0.577350
vn 0.577351 0.577350 -0.577349
vn 0.267858 0.481696 0.834399
vn 0.267961 0.481682 -0.834374
vn 0.616043 -0.251392 0.746520
vn 0.268044 -0.481297 0.834569
vn -0.683283 0.302611 0.664493
vn -0.360311 0.699537 0.617109
vn 0.615716 0.251725 0.746678
vn -0.683281 -0.302615 0.664493
vn 0.267858 0.481696 0.834399
vn -0.360310 -0.699537 0.617110
vn 0.577350 0.577351 0.577350
vn 0.577349 -0.577350 0.577352
vn 0.577351 0.577350 -0.577349
vn 0.577349 -0.577350 0.577352
vn 0.577352 -0.577351 -0.577348
vn 0.577351 0.577350 -0.577349
vn 0.267961 0.481682 -0.834374
vn 0.577351 0.577350 -0.577349
vn -0.360291 -0.699545 -0.617112
vn 0.577352 -0.577351 -0.577348
vn -0.360291 -0.699545 -0.617112
vn 0.577352 -0.577351 -0.577348
vn -0.360310 -0.699537 0.617110
vn 0.577352 -0.577351 -0.577348
vn 0.577349 -0.577350 0.577352
vn -0.360310 -0.699537 0.617110
vn 0.577349 -0.577350 0.577352
vn 0.577350 0.577351 0.577350
vn 0.000003 -0.194254 -0.980951
vn 0.000001 -0.209265 -0.977859
vn 0.000003 0.166733 -0.986002
vn 0.000001 -0.209265 -0.977859
vn 0.000001 0.178036 -0.984024
vn 0.000003 0.166733 -0.986002
vn 0.000001 -0.381106 -0.924531
vn 0.000001 -0.209265 -0.977859
vn 0.000004 -0.381106 -0.924531
vn 0.000001 -0.209265 -0.977859
vn 0.000003 -0.194254 -0.980951
vn 0.000004 -0.381106 -0.924531
vn 0.000004 -0.381106 -0.924531
vn 0.000003 -0.194254 -0.980951
vn 0.000007 -0.141821 -0.989892
vn 0.000007 -0.141821 -0.989892
vn 0.000003 -0.194254 -0.980951
vn 0.000007 0.127637 -0.991821
vn 0.000003 -0.194254 -0.980951
vn 0.000003 0.166733 -0.986002
vn 0.000007 0.127637 -0.991821
vn 0.000007 0.127637 -0.991821
vn 0.000003 0.166733 -0.986002
vn 0.000004 0.328796 -0.944401
vn 0.000003 0.166733 -0.986002
vn 0.000001 0.178036 -0.984024
vn 0.000004 0.328796 -0.944401
vn 0.000004 0.328796 -0.944401
vn 0.000001 0.178036 -0.984024
vn 0.000001 0.328796 -0.944401
vn -0.000001 -0.133741 0.991016
vn -0.000001 -0.123765 0.992312
vn -0.000001 0.112581 0.993643
vn -0.000001 -0.123765 0.992312
vn -0.000001 0.105220 0.994449
vn -0.000001 0.112581 0.993643
vn -0.000001 0.209266 0.977859
vn -0.000001 0.112581 0.993643
vn -0.000001 0.209271 0.977858
vn -0.000001 0.112581 0.993643
vn -0.000001 0.105220 0.994449
vn -0.000001 0.209271 0.977858
vn -0.000001 0.209271 0.977858
vn -0.000001 0.105220 0.994449
vn -0.000000 0.079750 0.996815
vn -0.000000 0.079750 0.996815
vn -0.000001 0.105220 0.994449
vn -0.000000 -0.088951 0.996036
vn -0.000001 0.105220 0.994449
vn -0.000001 -0.123765 0.992312
vn -0.000000 -0.088951 0.996036
vn -0.000000 -0.088951 0.996036
vn -0.000001 -0.123765 0.992312
vn -0.000001 -0.245626 0.969365
vn -0.000001 -0.123765 0.992312
vn -0.000001 -0.133741 0.991016
vn -0.000001 -0.245626 0.969365
vn -0.000001 -0.245626 0.969365
vn -0.000001 -0.133741 0.991016
vn -0.000001 -0.245620 0.969366
vn -0.749305 -0.000003 0.662225
vn 0.650180 0.000002 0.759780
vn 0.577349 -0.577349 0.577352
vn 0.577350 0.577351 0.577350
vn 0.268044 -0.481297 0.834569
vn 0.577350 0.577351 0.577350
vn -0.360311 0.699537 0.617109
vn 0.577350 0.577351 0.577350
vn 0.577352 0.577350 -0.577349
vn 0.577350 0.577351 0.577350
vn 0.577349 -0.577349 0.577352
vn 0.577352 0.577350 -0.577349
vn 0.577352 0.577350 -0.577349
vn 0.577349 -0.577349 0.577352
vn 0.577352 -0.577351 -0.577348
vn -0.360291 -0.699545 -0.617112
vn -0.360310 -0.699537 0.617110
vn -0.683270 -0.302627 -0.664499
vn -0.683281 -0.302615 0.664493
vn -0.683270 -0.302627 -0.664499
vn -0.683281 -0.302615 0.664493
vn -0.749304 -0.000003 -0.662226
vn -0.749305 -0.000003 0.662225
vn -0.749305 -0.000003 0.662225
vn -0.683283 0.302611 0.664493
vn -0.749304 -0.000003 -0.662226
vn -0.683271 0.302623 -0.664499
vn -0.683283 0.302611 0.664493
vn -0.360311 0.699537 0.617109
vn -0.683271 0.302623 -0.664499
vn -0.360290 0.699543 -0.617114
vn -0.360311 0.699537 0.617109
vn 0.577352 0.577350 -0.577349
vn -0.360290 0.699543 -0.617114
vn -0.360290 0.699543 -0.617114
vn 0.577352 0.577350 -0.577349
vn 0.268154 -0.481288 -0.834539
vn 0.577352 0.577350 -0.577349
vn 0.577352 -0.577351 -0.577348
vn 0.268154 -0.481288 -0.834539
vn 0.970934 0.239348 0.000001
vn 0.991266 0.131877 0.000001
vn 0.970934 0.239348 0.000001
vn 0.991783 0.127930 0.000001
vn 0.991266 0.131877 0.000001
vn 0.987654 -0.156653 0.000001
vn 0.991783 0.127930 0.000001
vn 0.988458 -0.151497 0.000001
vn 0.987654 -0.156653 0.000001
vn 0.959947 -0.280183 0.000001
vn 0.988458 -0.151497 0.000001
vn 0.959947 -0.280183 0.000001
vn 0.615730 0.251680 -0.746681
vn -0.683270 -0.302627 -0.664499
vn 0.650182 0.000002 -0.759779
vn -0.749304 -0.000003 -0.662226
vn -0.683271 0.302623 -0.664499
vn 0.616058 -0.251347 -0.746524
vn 0.267858 0.481696 0.834399
vn 0.267961 0.481682 -0.834374
vn 0.615716 0.251725 0.746678
vn 0.615730 0.251680 -0.746681
vn 0.615716 0.251725 0.746678
vn 0.615730 0.251680 -0.746681
vn 0.650180 0.000002 0.759780
vn 0.650182 0.000002 -0.759779
vn 0.650182 0.000002 -0.759779
vn 0.616058 -0.251347 -0.746524
vn 0.650180 0.000002 0.759780
vn 0.616043 -0.251392 0.746520
vn 0.616058 -0.251347 -0.746524
vn 0.268154 -0.481288 -0.834539
vn 0.616043 -0.251392 0.746520
vn 0.268044 -0.481297 0.834569
vn 0.268154 -0.481288 -0.834539
vn 0.577352 -0.577351 -0.577348
vn 0.268044 -0.481297 0.834569
vn 0.577349 -0.577349 0.577352
vn 0.991266 0.131877 0.000001
vn 0.987654 -0.156653 0.000001
vn 0.991783 0.127930 0.000001
vn 0.991783 0.127930 0.000001
vn 0.987654 -0.156653 0.000001
vn 0.988458 -0.151497 0.000001
vn 0.987654 -0.156653 0.000001
vn 0.959947 -0.280183 0.000001
vn 0.988458 -0.151497 0.000001
vn 0.988458 -0.151497 0.000001
vn 0.959947 -0.280183 0.000001
vn 0.959947 -0.280183 0.000001
vn 0.267961 0.481682 -0.834374
vn -0.360291 -0.699545 -0.617112
vn 0.615730 0.251680 -0.746681
vn -0.360291 -0.699545 -0.617112
vn -0.683270 -0.302627 -0.664499
vn 0.615730 0.251680 -0.746681
vn 0.615730 0.251680 -0.746681
vn -0.683270 -0.302627 -0.664499
vn 0.650182 0.000002 -0.759779
vn -0.683270 -0.302627 -0.664499
vn -0.749304 -0.000003 -0.662226
vn 0.650182 0.000002 -0.759779
vn -0.749304 -0.000003 -0.662226
vn -0.683271 0.302623 -0.664499
vn 0.650182 0.000002 -0.759779
vn 0.650182 0.000002 -0.759779
vn -0.683271 0.302623 -0.664499
vn 0.616058 -0.251347 -0.746524
vn -0.683271 0.302623 -0.664499
vn -0.360290 0.699543 -0.617114
vn 0.616058 -0.251347 -0.746524
vn 0.616058 -0.251347 -0.746524
vn -0.360290 0.699543 -0.617114
vn 0.268154 -0.481288 -0.834539
vn 0.267858 0.481696 0.834399
vn 0.267961 0.481682 -0.834374
vn 0.615716 0.251725 0.746678
vn 0.267961 0.481682 -0.834374
vn 0.615730 0.251680 -0.746681
vn 0.615716 0.251725 0.746678
vn 0.615716 0.251725 0.746678
vn 0.615730 0.251680 -0.746681
vn 0.650180 0.000002 0.759780
vn 0.615730 0.251680 -0.746681
vn 0.650182 0.000002 -0.759779
vn 0.650180 0.000002 0.759780
vn 0.650182 0.000002 -0.759779
vn 0.616058 -0.251347 -0.746524
vn 0.650180 0.000002 0.759780
vn 0.650180 0.000002 0.759780
vn 0.616058 -0.251347 -0.746524
vn 0.616043 -0.251392 0.746520
vn 0.616058 -0.251347 -0.746524
vn 0.268154 -0.481288 -0.834539
vn 0.616043 -0.251392 0.746520
vn 0.616043 -0.251392 0.746520
vn 0.268154 -0.481288 -0.834539
vn 0.268044 -0.481297 0.834569
vn 0.268154 -0.481288 -0.834539
vn 0.577352 -0.577351 -0.577348
vn 0.268044 -0.481297 0.834569
vn 0.268044 -0.481297 0.834569
vn 0.577352 -0.577351 -0.577348
vn 0.577349 -0.577349 0.577352
s 1
g __PrenotatoPerDuplicare_78
usemtl book:Material_000001
f 1/1/1 2/2/2 3/3/3
f 2/2/2 4/4/4 3/3/3
s 2
f 5/5/5 6/6/6 7/7/7
f 6/6/6 8/8/8 7/7/7
f 9/9/9 10/10/10 3/11/11
f 10/10/10 11/12/12 3/11/11
s off
f 1/13/13 12/14/14 2/15/15
f 12/14/16 13/16/17 2/15/18
s 4
f 4/17/19 2/18/20 14/19/21
f 2/18/20 13/16/22 14/19/21
s off
f 14/19/23 13/16/24 11/20/25
f 13/16/26 12/14/27 11/20/28
s 2
f 12/14/29 1/21/30 11/20/12
f 11/20/12 1/21/30 3/22/11
s off
f 15/23/31 16/24/32 17/25/33
f 16/24/34 18/26/35 17/25/36
f 19/27/37 16/24/38 20/28/39
f 16/24/40 15/23/41 20/28/42
f 20/28/43 15/23/44 21/29/45
f 21/29/46 15/23/47 22/30/48
f 15/23/49 17/25/50 22/30/51
f 22/30/52 17/25/53 23/31/54
f 17/25/55 18/26/56 23/31/57
f 23/31/58 18/26/59 24/32/60
f 25/33/61 26/34/62 27/35/63
f 26/34/64 28/36/65 27/35/66
f 29/37/67 27/35/68 30/38/69
f 27/35/70 28/36/71 30/38/72
f 30/38/73 28/36/74 31/39/75
f 31/39/76 28/36/77 32/40/78
f 28/36/79 26/34/80 32/40/81
f 32/40/82 26/34/83 33/41/84
f 26/34/85 25/33/86 33/41/87
f 33/41/88 25/33/89 34/42/90
s 2
f 10/43/10 9/44/9 35/45/91
f 9/44/9 36/46/92 35/45/91
f 36/46/92 5/47/5 35/45/91
f 35/45/91 5/47/5 7/48/7
s off
f 37/49/93 38/50/94 6/51/95
s 2
f 6/51/6 38/50/96 8/52/8
s off
f 8/52/97 38/50/98 39/53/99
f 38/50/100 37/54/101 39/53/102
f 39/53/103 37/54/104 40/55/105
s 5
f 14/56/106 11/57/107 41/58/108
f 11/57/107 10/59/109 41/58/108
s 6
f 41/58/110 10/59/111 42/60/112
f 10/59/111 35/61/113 42/60/112
s 7
f 35/61/114 7/62/115 42/60/116
f 42/60/116 7/62/115 43/63/117
s 8
f 7/62/118 8/52/119 43/63/120
f 43/63/120 8/52/119 44/64/121
s off
f 8/52/122 39/53/123 44/64/124
s 4
f 44/64/125 39/53/126 45/65/127
s off
f 39/53/128 40/66/129 45/65/130
s 10
f 24/67/131 18/68/132 29/69/133
f 29/69/133 18/68/132 27/70/134
s 11
f 18/68/135 16/71/136 27/70/137
f 27/70/137 16/71/136 25/72/138
s 12
f 16/71/139 19/73/140 25/72/141
f 25/72/141 19/73/140 34/74/142
s 4
f 4/75/19 14/76/21 46/77/143
f 14/76/21 41/78/144 46/77/143
f 46/77/143 41/78/144 47/79/145
f 41/78/144 42/80/146 47/79/145
f 42/80/146 43/81/147 47/79/145
f 47/79/145 43/81/147 48/82/148
f 43/81/147 44/83/125 48/82/148
f 48/82/148 44/83/125 45/84/127
s 13
f 3/85/149 4/86/150 9/87/151
f 4/86/150 46/88/152 9/87/151
s 14
f 9/87/153 46/88/154 36/89/155
f 46/88/154 47/90/156 36/89/155
s 15
f 47/90/157 48/91/158 36/89/159
f 36/89/159 48/91/158 5/92/160
s 16
f 48/91/161 45/93/162 5/92/163
f 5/92/163 45/93/162 6/94/164
s 17
f 45/93/165 40/95/166 6/94/167
f 6/94/167 40/95/166 37/96/168
