# This file uses centimeters as units for non-parametric coordinates.

mtllib BenchLOD.mtl
g default
v -63.419701 28.399200 8.625629
v -63.419701 28.399200 -21.874203
v 63.106903 28.399200 -21.874203
v 63.106899 28.399200 8.625629
v -63.419701 30.843952 8.625629
v 63.106899 30.843952 8.625630
v 63.106895 30.843950 -21.874201
v -63.419701 30.843950 -21.874201
v -63.419701 65.725700 17.889301
v -63.419701 35.689308 12.593100
v 63.106903 35.689308 12.593100
v 63.106903 65.725700 17.889301
v -63.419701 66.150299 15.481701
v 63.106903 66.150299 15.481702
v 63.106899 36.113831 10.185500
v -63.419701 36.113831 10.185503
v 54.825417 28.399200 8.625629
v 54.851784 28.399200 -21.874203
v 51.312733 28.399200 -21.874203
v 51.338661 28.399199 8.625628
v -52.529503 28.399200 -21.874203
v -52.529503 28.399200 8.625629
v -55.354698 28.399200 -21.874203
v -55.336025 28.399200 8.625629
v 54.851784 -0.131659 -21.874199
v 51.312737 -0.131659 -21.874201
v 54.825420 -0.131659 8.625630
v 51.338669 -0.131660 8.625628
v -52.529503 -0.131659 -21.874203
v -55.354698 -0.131659 -21.874205
v -52.529503 -0.131659 8.625628
v -55.336025 -0.131659 8.625626
vn -1.000000 0.000001 0.000000
vn -1.000000 0.000001 0.000000
vn -1.000000 -0.000000 0.000000
vn -0.000000 -0.984808 -0.173646
vn -0.000000 -0.984808 -0.173646
vn -0.000000 -0.984808 -0.173646
vn 0.000000 0.984802 0.173682
vn 0.000000 0.984804 0.173670
vn 0.000000 0.984802 0.173682
vn -0.000000 0.173647 -0.984808
vn -0.000000 0.173647 -0.984808
vn -0.000000 0.173647 -0.984808
vn 0.000000 0.173647 -0.984808
vn 0.000000 0.173647 -0.984808
vn 0.000000 0.173647 -0.984808
vn 0.000000 -0.173647 0.984808
vn 0.000000 -0.173647 0.984808
vn 0.000000 -0.173647 0.984808
vn 0.000000 -0.173647 0.984808
vn 0.000000 -0.173647 0.984808
vn 0.000000 -0.173647 0.984808
vn 0.000000 1.000000 -0.000000
vn 0.000000 1.000000 -0.000000
vn 0.000000 1.000000 -0.000000
vn 0.000000 1.000000 0.000000
vn 0.000000 1.000000 0.000000
vn 0.000000 1.000000 0.000000
vn 0.000000 -1.000000 0.000000
vn 0.000000 -1.000000 0.000000
vn 0.000000 -1.000000 0.000000
vn 0.000000 -1.000000 0.000000
vn 0.000000 -1.000000 0.000000
vn 0.000000 -1.000000 0.000000
vn -1.000000 0.000000 0.000000
vn -1.000000 0.000000 0.000000
vn -1.000000 0.000000 0.000000
vn -1.000000 0.000000 0.000000
vn 0.000000 0.000000 1.000000
vn 0.000000 -0.000000 1.000000
vn 0.000000 -0.000001 1.000000
vn -0.000000 -0.000000 1.000000
vn 0.000000 -0.000000 1.000000
vn 0.000000 -0.000000 1.000000
vn 0.000000 0.000000 1.000000
vn -0.000000 -0.000001 1.000000
vn 1.000000 -0.000003 -0.000000
vn 1.000000 -0.000003 -0.000000
vn 1.000000 0.000006 0.000000
vn 1.000000 0.000007 0.000000
vn 0.000000 0.000001 -1.000000
vn 0.000000 0.000001 -1.000000
vn 0.000000 0.000001 -1.000000
vn 0.000000 0.000000 -1.000000
vn 0.000000 0.000000 -1.000000
vn 0.000000 0.000001 -1.000000
vn 0.000000 0.000000 -1.000000
vn 0.000000 0.000001 -1.000000
vn 1.000000 0.000000 -0.000001
vn 1.000000 -0.000001 -0.000000
vn 1.000000 0.000000 -0.000002
vn -1.000000 -0.000000 0.000000
vn 0.000000 -0.984808 -0.173646
vn 1.000000 -0.000001 -0.000000
vn 0.000000 0.984804 0.173670
vn 0.000000 -1.000000 -0.000000
vn 0.000000 -1.000000 -0.000000
vn 0.000000 -1.000000 -0.000000
vn 0.000000 -1.000000 0.000000
vn 0.000000 -1.000000 0.000000
vn 0.000000 -1.000000 0.000000
vn 0.000000 -1.000000 0.000000
vn 0.000000 -1.000000 0.000000
vn 0.000000 -1.000000 0.000000
vn 0.000001 -1.000000 -0.000000
vn 0.000001 -1.000000 -0.000000
vn 0.000001 -1.000000 -0.000000
vn 0.000000 -1.000000 0.000000
vn 0.000000 -1.000000 0.000000
vn 0.000000 -1.000000 0.000000
vn -0.000000 -1.000000 -0.000000
vn -0.000000 -1.000000 -0.000000
vn -0.000000 -1.000000 -0.000000
vn 0.000000 -1.000000 0.000000
vn 0.000000 -1.000000 0.000000
vn 0.000000 -1.000000 0.000000
vn 0.000000 -1.000000 0.000000
vn 0.000000 -1.000000 0.000000
vn 0.000000 -1.000000 0.000000
vn 0.000001 -0.000000 -1.000000
vn 0.000001 -0.000000 -1.000000
vn 1.000000 -0.000000 0.000865
vn 1.000000 -0.000000 0.000864
vn 1.000000 -0.000000 0.000864
vn 1.000000 0.000000 0.000864
vn -0.000001 0.000000 1.000000
vn -0.000001 -0.000000 1.000000
vn -1.000000 0.000000 0.000850
vn -1.000000 -0.000000 0.000850
vn -1.000000 -0.000000 0.000850
vn -1.000000 -0.000001 0.000850
vn 0.000000 0.000000 -1.000000
vn 0.000000 0.000000 -1.000000
vn 1.000000 0.000000 0.000000
vn 1.000000 0.000000 0.000000
vn 1.000000 0.000000 0.000000
vn 1.000000 0.000000 0.000000
vn -0.000001 -0.000000 1.000000
vn -0.000001 -0.000000 1.000000
vn -1.000000 -0.000000 0.000612
vn -1.000000 -0.000000 0.000612
vn -1.000000 -0.000000 0.000612
vn -1.000000 0.000000 0.000612
s 1
g collision
usemtl lambert2SG
f 16//1 10//2 13//3
s 2
f 15//4 11//5 16//6
s 3
f 14//7 9//8 12//9
s off
f 16//10 13//11 15//12
f 13//13 14//14 15//15
f 12//16 9//17 11//18
f 9//19 10//20 11//21
f 8//22 5//23 7//24
f 5//25 6//26 7//27
f 4//28 17//29 3//30
f 17//31 18//32 3//33
s 4
f 8//34 2//35 5//36
f 5//36 2//35 1//37
s 5
f 5//38 1//39 6//40
f 1//39 24//41 6//40
f 24//41 22//42 6//40
f 4//43 6//40 17//44
f 22//42 20//45 6//40
f 6//40 20//45 17//44
s 7
f 6//46 4//47 7//48
f 7//48 4//47 3//49
s 8
f 7//50 3//51 8//52
f 3//51 18//53 8//52
f 18//53 19//54 8//52
f 2//55 8//52 23//56
f 19//54 21//57 8//52
f 8//52 21//57 23//56
s 10
f 15//58 12//59 11//60
s 1
f 13//3 10//2 9//61
s 2
f 16//6 11//5 10//62
s 10
f 14//63 12//59 15//58
s 3
f 13//64 9//8 14//7
s off
f 23//65 24//66 1//67
f 1//68 2//69 23//70
f 26//71 25//72 27//73
f 27//74 28//75 26//76
f 22//77 21//78 19//79
f 19//80 20//81 22//82
f 30//83 29//84 31//85
f 31//86 32//87 30//88
s 8
f 19//54 18//53 26//89
f 26//89 18//53 25//90
s 11
f 18//91 17//92 25//93
f 25//93 17//92 27//94
s 5
f 17//44 20//45 27//95
f 27//95 20//45 28//96
s 12
f 20//97 19//98 28//99
f 28//99 19//98 26//100
s 8
f 23//56 21//57 30//101
f 30//101 21//57 29//102
s 13
f 21//103 22//104 29//105
f 29//105 22//104 31//106
s 5
f 22//42 24//41 31//107
f 31//107 24//41 32//108
s 14
f 24//109 23//110 32//111
f 32//111 23//110 30//112
