# This file uses centimeters as units for non-parametric coordinates.

mtllib GoodspringsHome02Collider.mtl
g default
v -190.786728 15.548904 424.892029
v -190.786728 -1.691772 424.891998
v -67.493713 15.548904 424.892029
v -67.493713 -1.691772 424.891998
v -190.786728 -1.692024 388.480988
v -190.786728 15.548737 388.480988
v -67.493713 15.548737 388.480988
v -67.493713 -1.692024 388.480988
v 237.356262 -1.691772 339.216003
v 621.409302 -1.691772 339.216003
v 237.356262 -1.691772 -44.837700
v 621.409302 -1.691772 -44.837700
v -672.612732 250.755447 440.251007
v -339.430664 444.806213 440.251038
v -339.430634 455.819244 440.251038
v -671.941772 239.858948 440.251038
v -6.919739 239.858597 440.250000
v -6.247711 250.755051 440.250000
v -672.612732 250.755447 -440.250000
v -339.430664 444.806213 -440.251038
v -671.941772 239.858948 -440.250000
v -339.430634 455.819244 -440.251038
v -6.919739 239.858597 -440.251007
v -6.247711 250.755051 -440.251038
v 671.899292 220.069931 386.145996
v 671.899353 436.030243 85.845596
v 671.899292 230.966431 386.752045
v 671.899292 220.069641 -214.455002
v 671.899292 230.966034 -215.061996
v 621.409302 220.069931 339.216003
v 237.356247 189.038528 339.216034
v 621.409302 189.038528 339.216003
v -15.763733 220.069931 339.216003
v 621.409302 220.069931 -172.856995
v 621.409302 189.038528 -44.837799
v 611.097290 -1.691772 320.903015
v 611.097290 195.102829 320.903015
v 611.097290 -1.691772 329.648010
v 611.097290 195.102829 329.648010
v 602.150269 -1.691772 329.648010
v 602.150269 195.102829 329.648010
v 602.150269 -1.691772 320.903015
v 602.150269 195.102829 320.903015
v 611.097290 -1.691772 78.808601
v 611.097290 195.102829 78.808601
v 611.097290 -1.691772 87.553596
v 611.097290 195.102829 87.553596
v 602.150269 -1.691772 87.553596
v 602.150269 195.102829 87.553596
v 602.150269 -1.691772 78.808601
v 602.150269 195.102829 78.808601
v -15.763733 -1.691521 388.480988
v -15.763733 -1.691772 -386.066010
v -15.763733 244.271301 388.480988
v -15.763733 244.271301 -386.066010
v -663.097717 244.271271 388.480988
v -663.097717 244.271271 -386.066010
v -663.097717 -1.691521 388.480988
v -663.097717 -1.691772 -386.066010
v -67.493713 178.514343 378.479004
v -190.786728 178.514343 378.479004
v -67.493713 15.548233 378.479004
v -190.786728 15.548233 378.479004
v -190.786743 178.514343 388.480988
v -67.493713 178.514343 388.480988
v -15.763947 230.966034 -215.061996
v -322.560822 436.030212 85.845596
v -15.763489 230.966431 386.752014
v -15.763489 220.069931 386.145996
v -322.560822 436.030212 85.845596
v -15.763947 220.069641 -214.455002
v 237.356262 189.038528 -44.837761
v 621.409302 -1.691772 -172.856003
v -15.763733 -1.691772 -172.854996
v -15.763733 220.069931 -172.856003
v -339.430634 444.806213 388.481018
v -15.763733 -1.691772 339.216003
v -339.430786 444.806213 -386.066010
v -339.430756 -1.691772 -386.066010
vn 0.000000 -0.000002 1.000000
vn 0.000000 -0.000002 1.000000
vn 0.000000 -0.000002 1.000000
vn 0.000000 -0.000002 1.000000
vn 0.000000 -0.000002 1.000000
vn 0.000000 -0.000002 1.000000
vn -1.000000 0.000000 0.000000
vn -1.000000 0.000000 0.000000
vn -1.000000 0.000000 0.000000
vn -1.000000 0.000000 0.000000
vn -1.000000 0.000000 0.000000
vn -1.000000 0.000000 0.000000
vn 1.000000 0.000000 0.000000
vn 1.000000 0.000000 0.000000
vn 1.000000 0.000000 0.000000
vn 1.000000 0.000000 0.000000
vn 1.000000 0.000000 0.000000
vn 1.000000 0.000000 0.000000
vn 0.000000 1.000000 0.000000
vn 0.000000 1.000000 0.000000
vn 0.000000 1.000000 0.000000
vn 0.000000 1.000000 0.000000
vn 0.000000 1.000000 0.000000
vn 0.000000 1.000000 0.000000
vn -0.000004 0.000000 1.000000
vn -0.000004 0.000000 1.000000
vn -0.000004 0.000000 1.000000
vn 0.000000 0.000003 1.000000
vn 0.000000 0.000003 1.000000
vn 0.000000 0.000003 1.000000
vn 0.000004 -0.000000 1.000000
vn 0.000004 -0.000000 1.000000
vn 0.000004 -0.000000 1.000000
vn 0.000004 -0.000000 1.000000
vn 0.000004 -0.000000 1.000000
vn 0.000004 -0.000000 1.000000
vn -0.000002 -0.000000 -1.000000
vn -0.000002 -0.000000 -1.000000
vn -0.000002 -0.000000 -1.000000
vn -0.000003 0.000000 -1.000000
vn -0.000003 0.000000 -1.000000
vn -0.000003 0.000000 -1.000000
vn -0.000001 -0.000000 -1.000000
vn -0.000001 -0.000000 -1.000000
vn -0.000001 -0.000000 -1.000000
vn -0.000002 -0.000003 -1.000000
vn -0.000002 -0.000003 -1.000000
vn -0.000002 -0.000003 -1.000000
vn 1.000000 0.000019 0.000000
vn 1.000000 0.000019 0.000000
vn 1.000000 0.000019 0.000000
vn 1.000000 0.000009 -0.000000
vn 1.000000 0.000009 -0.000000
vn 1.000000 0.000009 -0.000000
vn 1.000000 0.000000 0.000000
vn 1.000000 0.000000 0.000000
vn 1.000000 0.000000 0.000000
vn 0.000000 0.000000 1.000000
vn 0.000000 0.000000 1.000000
vn 0.000000 0.000000 1.000000
vn 0.000000 0.000001 1.000000
vn 0.000000 0.000001 1.000000
vn 0.000000 0.000001 1.000000
vn 1.000000 -0.000001 0.000000
vn 1.000000 -0.000001 0.000000
vn 1.000000 -0.000001 0.000000
vn 1.000000 0.000000 0.000000
vn 1.000000 0.000000 0.000000
vn 1.000000 0.000000 0.000000
vn 1.000000 0.000000 0.000000
vn 1.000000 0.000000 0.000000
vn 1.000000 0.000000 0.000000
vn 1.000000 0.000000 0.000000
vn 1.000000 0.000000 0.000000
vn 1.000000 0.000000 0.000000
vn 0.000000 0.000000 1.000000
vn 0.000000 0.000000 1.000000
vn 0.000000 0.000000 1.000000
vn 0.000000 0.000000 1.000000
vn 0.000000 0.000000 1.000000
vn 0.000000 0.000000 1.000000
vn -1.000000 0.000000 0.000000
vn -1.000000 0.000000 0.000000
vn -1.000000 0.000000 0.000000
vn -1.000000 0.000000 0.000000
vn -1.000000 0.000000 0.000000
vn -1.000000 0.000000 0.000000
vn 0.000000 0.000000 -1.000000
vn 0.000000 0.000000 -1.000000
vn 0.000000 0.000000 -1.000000
vn 0.000000 0.000000 -1.000000
vn 0.000000 0.000000 -1.000000
vn 0.000000 0.000000 -1.000000
vn 1.000000 0.000000 0.000000
vn 1.000000 0.000000 0.000000
vn 1.000000 0.000000 0.000000
vn 1.000000 0.000000 0.000000
vn 1.000000 0.000000 0.000000
vn 1.000000 0.000000 0.000000
vn 0.000000 0.000000 1.000000
vn 0.000000 0.000000 1.000000
vn 0.000000 0.000000 1.000000
vn 0.000000 0.000000 1.000000
vn 0.000000 0.000000 1.000000
vn 0.000000 0.000000 1.000000
vn -1.000000 0.000000 0.000000
vn -1.000000 0.000000 0.000000
vn -1.000000 0.000000 0.000000
vn -1.000000 0.000000 0.000000
vn -1.000000 0.000000 0.000000
vn -1.000000 0.000000 0.000000
vn 0.000000 0.000000 -1.000000
vn 0.000000 0.000000 -1.000000
vn 0.000000 0.000000 -1.000000
vn 0.000000 0.000000 -1.000000
vn 0.000000 0.000000 -1.000000
vn 0.000000 0.000000 -1.000000
vn 1.000000 0.000000 0.000000
vn 1.000000 0.000000 0.000000
vn 1.000000 0.000000 0.000000
vn 1.000000 0.000000 0.000000
vn 1.000000 0.000000 0.000000
vn 1.000000 0.000000 0.000000
vn -1.000000 0.000000 0.000000
vn -1.000000 0.000000 0.000000
vn -1.000000 0.000000 0.000000
vn -1.000000 0.000000 0.000000
vn -1.000000 0.000000 0.000000
vn -1.000000 0.000000 0.000000
vn 0.524150 0.851626 0.000000
vn 0.524150 0.851626 0.000000
vn 0.524150 0.851626 0.000000
vn 0.524150 0.851626 0.000000
vn 0.524150 0.851626 0.000000
vn 0.524150 0.851626 0.000000
vn -0.998110 -0.061460 0.000000
vn -0.998110 -0.061460 0.000000
vn -0.998110 -0.061460 0.000000
vn -0.998110 -0.061456 0.000000
vn -0.998110 -0.061456 0.000000
vn -0.998110 -0.061456 0.000000
vn -0.524151 0.851626 0.000000
vn -0.524151 0.851626 0.000000
vn -0.524151 0.851626 0.000000
vn -0.524151 0.851626 0.000000
vn -0.524151 0.851626 0.000000
vn -0.524151 0.851626 0.000000
vn 0.524701 -0.851287 0.000000
vn 0.524701 -0.851287 0.000000
vn 0.524701 -0.851287 0.000000
vn 0.524701 -0.851287 0.000000
vn 0.524701 -0.851287 0.000000
vn 0.524701 -0.851287 0.000000
vn -0.524702 -0.851286 0.000000
vn -0.524702 -0.851286 0.000000
vn -0.524702 -0.851286 0.000000
vn -0.524702 -0.851286 0.000000
vn -0.524702 -0.851286 0.000000
vn -0.524702 -0.851286 0.000000
vn 0.998104 -0.061557 0.000000
vn 0.998104 -0.061557 0.000000
vn 0.998104 -0.061557 0.000000
vn 0.998104 -0.061557 0.000000
vn 0.998104 -0.061557 0.000000
vn 0.998104 -0.061557 0.000000
vn 0.000000 0.000000 1.000000
vn 0.000000 0.000000 1.000000
vn 0.000000 0.000000 1.000000
vn 0.000000 0.000000 1.000000
vn 0.000000 0.000000 1.000000
vn 0.000000 0.000000 1.000000
vn 1.000000 0.000000 -0.000000
vn 1.000000 0.000000 -0.000000
vn 1.000000 0.000000 -0.000000
vn 1.000000 0.000000 0.000002
vn 1.000000 0.000000 0.000002
vn 1.000000 0.000000 0.000002
vn 0.000000 1.000000 -0.000014
vn 0.000000 1.000000 -0.000014
vn 0.000000 1.000000 -0.000014
vn 0.000000 1.000000 -0.000014
vn 0.000000 1.000000 -0.000014
vn 0.000000 1.000000 -0.000014
vn -1.000000 0.000000 0.000000
vn -1.000000 0.000000 0.000000
vn -1.000000 0.000000 0.000000
vn -1.000000 0.000000 0.000000
vn -1.000000 0.000000 0.000000
vn -1.000000 0.000000 0.000000
vn 0.000000 -1.000000 0.000000
vn 0.000000 -1.000000 0.000000
vn 0.000000 -1.000000 0.000000
vn 0.000000 -1.000000 0.000000
vn 0.000000 -1.000000 0.000000
vn 0.000000 -1.000000 0.000000
vn 0.000000 0.826355 -0.563149
vn 0.000000 0.826355 -0.563149
vn 0.000000 0.826355 -0.563149
vn -0.000000 0.826355 -0.563149
vn -0.000000 0.826355 -0.563149
vn -0.000000 0.826355 -0.563149
vn -0.000000 -0.055533 0.998457
vn -0.000000 -0.055533 0.998457
vn -0.000000 -0.055533 0.998457
vn 0.000000 -0.055530 0.998457
vn 0.000000 -0.055530 0.998457
vn 0.000000 -0.055530 0.998457
vn -0.000000 0.826355 0.563150
vn -0.000000 0.826355 0.563150
vn -0.000000 0.826355 0.563150
vn -0.000000 0.826355 0.563150
vn -0.000000 0.826355 0.563150
vn -0.000000 0.826355 0.563150
vn 0.000000 -0.055620 -0.998452
vn 0.000000 -0.055620 -0.998452
vn 0.000000 -0.055620 -0.998452
vn 0.000000 -0.055620 -0.998452
vn 0.000000 -0.055620 -0.998452
vn 0.000000 -0.055620 -0.998452
vn 0.000000 0.000001 1.000000
vn 0.000000 0.000001 1.000000
vn 0.000000 0.000001 1.000000
vn 0.000000 0.000000 1.000000
vn 0.000000 0.000000 1.000000
vn 0.000000 0.000000 1.000000
vn 1.000000 0.000000 0.000000
vn 1.000000 0.000000 0.000000
vn 1.000000 0.000000 0.000000
vn 1.000000 0.000000 0.000000
vn 1.000000 0.000000 0.000000
vn 1.000000 0.000000 0.000000
vn 1.000000 0.000000 0.000000
vn 1.000000 0.000000 0.000000
vn 1.000000 0.000000 0.000000
vn 0.000000 -1.000000 0.000001
vn 0.000000 -1.000000 0.000001
vn 0.000000 -1.000000 0.000001
vn 0.000000 -1.000000 0.000000
vn 0.000000 -1.000000 0.000000
vn 0.000000 -1.000000 0.000000
vn 0.000000 -1.000000 -0.000000
vn 0.000000 -1.000000 -0.000000
vn 0.000000 -1.000000 -0.000000
vn 0.000000 -1.000000 0.000000
vn 0.000000 -1.000000 0.000000
vn 0.000000 -1.000000 0.000000
vn 1.000000 -0.000000 0.000000
vn 1.000000 -0.000000 0.000000
vn 1.000000 -0.000000 0.000000
vn -0.000002 -0.000005 -1.000000
vn -0.000002 -0.000005 -1.000000
vn -0.000002 -0.000005 -1.000000
vn -0.000002 -0.000004 -1.000000
vn -0.000002 -0.000004 -1.000000
vn -0.000002 -0.000004 -1.000000
vn -0.000000 0.000000 1.000000
vn -0.000000 0.000000 1.000000
vn -0.000000 0.000000 1.000000
vn 0.000000 0.000000 1.000000
vn 0.000000 0.000000 1.000000
vn 0.000000 0.000000 1.000000
vn -0.000002 0.000000 1.000000
vn -0.000002 0.000000 1.000000
vn -0.000002 0.000000 1.000000
vn 0.000000 0.000000 1.000000
vn 0.000000 0.000000 1.000000
vn 0.000000 0.000000 1.000000
vn 0.000000 -0.000000 1.000000
vn 0.000000 -0.000000 1.000000
vn 0.000000 -0.000000 1.000000
vn 0.000000 -0.000000 1.000000
vn 0.000000 -0.000000 1.000000
vn 0.000000 -0.000000 1.000000
vn -0.000000 -0.000000 1.000000
vn -0.000000 -0.000000 1.000000
vn -0.000000 -0.000000 1.000000
vn -0.000000 0.000000 1.000000
vn -0.000000 0.000000 1.000000
vn -0.000000 0.000000 1.000000
vn 0.000000 -0.000000 1.000000
vn 0.000000 -0.000000 1.000000
vn 0.000000 -0.000000 1.000000
vn 0.000000 0.000000 -1.000000
vn 0.000000 0.000000 -1.000000
vn 0.000000 0.000000 -1.000000
vn 0.000000 0.000000 -1.000000
vn 0.000000 0.000000 -1.000000
vn 0.000000 0.000000 -1.000000
vn -0.000000 0.000000 -1.000000
vn -0.000000 0.000000 -1.000000
vn -0.000000 0.000000 -1.000000
vn 0.000000 0.000000 -1.000000
vn 0.000000 0.000000 -1.000000
vn 0.000000 0.000000 -1.000000
s off
g collision
usemtl initialShadingGroup
f 1//1 2//2 3//3
f 2//4 4//5 3//6
f 5//7 2//8 6//9
f 2//10 1//11 6//12
f 7//13 3//14 8//15
f 3//16 4//17 8//18
f 9//19 10//20 11//21
f 10//22 12//23 11//24
f 13//25 14//26 15//27
f 14//28 13//29 16//30
f 15//31 17//32 18//33
f 17//34 15//35 14//36
f 19//37 20//38 21//39
f 20//40 19//41 22//42
f 22//43 23//44 20//45
f 23//46 22//47 24//48
f 25//49 26//50 27//51
f 26//52 28//53 29//54
f 26//55 25//56 28//57
f 30//58 31//59 32//60
f 31//61 30//62 33//63
f 34//64 32//65 35//66
f 32//67 34//68 30//69
f 36//70 37//71 38//72
f 37//73 39//74 38//75
f 38//76 39//77 40//78
f 39//79 41//80 40//81
f 42//82 40//83 43//84
f 40//85 41//86 43//87
f 37//88 36//89 43//90
f 36//91 42//92 43//93
f 44//94 45//95 46//96
f 45//97 47//98 46//99
f 46//100 47//101 48//102
f 47//103 49//104 48//105
f 50//106 48//107 51//108
f 48//109 49//110 51//111
f 45//112 44//113 51//114
f 44//115 50//116 51//117
f 52//118 53//119 54//120
f 53//121 55//122 54//123
f 56//124 57//125 58//126
f 57//127 59//128 58//129
f 18//130 24//131 15//132
f 24//133 22//134 15//135
f 13//136 19//137 16//138
f 19//139 21//140 16//141
f 15//142 22//143 13//144
f 22//145 19//146 13//147
f 16//148 21//149 14//150
f 21//151 20//152 14//153
f 14//154 20//155 17//156
f 20//157 23//158 17//159
f 17//160 23//161 18//162
f 23//163 24//164 18//165
f 60//166 61//167 62//168
f 61//169 63//170 62//171
f 6//172 63//173 64//174
f 63//175 61//176 64//177
f 3//178 62//179 1//180
f 62//181 63//182 1//183
f 65//184 60//185 7//186
f 60//187 62//188 7//189
f 64//190 61//191 65//192
f 61//193 60//194 65//195
f 29//196 66//197 26//198
f 66//199 67//200 26//201
f 27//202 68//203 25//204
f 68//205 69//206 25//207
f 26//208 70//209 27//210
f 70//211 68//212 27//213
f 28//214 71//215 29//216
f 71//217 66//218 29//219
f 35//220 72//221 12//222
f 72//223 11//224 12//225
f 9//226 11//227 72//228
f 12//229 73//230 35//231
f 73//232 34//233 35//234
f 28//235 25//236 71//237
f 25//238 69//239 71//240
f 72//241 35//242 31//243
f 35//244 32//245 31//246
f 9//247 72//248 31//249
f 74//250 75//251 73//252
f 73//253 75//254 34//255
f 56//256 58//257 64//258
f 58//259 5//260 64//261
f 8//262 52//263 65//264
f 52//265 54//266 65//267
f 54//268 76//269 65//270
f 65//271 76//272 64//273
f 76//274 56//275 64//276
f 33//277 77//278 31//279
f 77//280 9//281 31//282
f 53//283 78//284 55//285
f 79//286 78//287 53//288
f 57//289 78//290 59//291
f 59//292 78//293 79//294
