# Blender v2.79 (sub 0) OBJ File: 'spider.blend'
# www.blender.org
mtllib spider.mtl
o pPlane2
v 4.218107 -0.006614 2.225075
v 0.000000 1.964451 -0.087839
v 0.000000 1.964451 0.288002
v -4.218107 -0.006614 2.225075
vt 0.000000 0.400000
vt 0.500000 0.000000
vt 0.500000 0.800000
vt 1.000000 0.400000
vn 0.4233 0.9060 0.0000
vn 0.0000 1.0000 0.0000
vn -0.4233 0.9060 0.0000
usemtl initialShadingGroup
s 1
f 1/1/1 2/2/2 3/3/2
f 2/2/2 4/4/3 3/3/2
o pCube1
v -0.707107 2.053264 -3.679466
v 0.000000 2.587662 -3.792295
v 0.000000 1.496045 -3.613098
v 0.707107 2.053265 -3.679466
v 0.000000 2.462376 -0.898383
v 0.707107 2.089013 -0.994351
v 0.551249 2.039118 1.128230
v 0.000000 2.064590 1.420165
v 0.000000 1.747886 1.225925
v -0.551249 2.039118 1.128230
v -0.707107 2.089013 -0.994351
v 0.000000 1.605366 -1.049785
vt 0.625000 0.000000
vt 0.625000 0.250000
vt 0.375000 0.000000
vt 0.375000 0.250000
vt 0.625000 0.500000
vt 0.375000 0.500000
vt 0.375000 0.500000
vt 0.625000 0.500000
vt 0.375000 0.750000
vt 0.625000 0.750000
vt 0.625000 0.750000
vt 0.625000 1.000000
vt 0.375000 0.750000
vt 0.375000 1.000000
vt 0.875000 0.000000
vt 0.875000 0.250000
vt 0.125000 0.000000
vt 0.125000 0.250000
vn -0.0350 -0.1619 -0.9862
vn 0.0000 -0.1620 -0.9868
vn 0.0350 -0.1619 -0.9862
vn 0.5990 0.8000 0.0346
vn 0.4696 0.8823 0.0310
vn 0.5810 0.8134 0.0281
vn 0.4684 0.8834 0.0146
vn 0.3929 -0.4808 0.7839
vn 0.0000 -0.5228 0.8524
vn -0.3929 -0.4808 0.7839
vn -0.5636 -0.8259 0.0160
vn -0.6090 -0.7927 0.0287
vn -0.5653 -0.8246 0.0202
vn -0.6205 -0.7835 0.0334
vn -0.4684 0.8834 0.0146
vn -0.4696 0.8823 0.0310
vn -0.5810 0.8134 0.0281
vn -0.5990 0.8000 0.0346
vn 0.6205 -0.7835 0.0334
vn 0.6090 -0.7927 0.0287
vn 0.5653 -0.8246 0.0202
vn 0.5636 -0.8259 0.0160
vn 0.2093 0.9670 0.1450
vn 0.1339 0.9767 0.1676
vn -0.2093 0.9670 0.1450
vn -0.1339 0.9767 0.1676
vn -0.4975 -0.8662 0.0466
vn -0.4740 -0.8788 0.0550
vn 0.4975 -0.8662 0.0466
vn 0.4740 -0.8788 0.0550
usemtl initialShadingGroup
s 1
f 5/5/4 6/6/5 7/7/5
f 7/7/5 6/6/5 8/8/6
f 6/6/7 9/9/8 8/8/9
f 8/8/9 9/9/8 10/10/10
f 11/11/11 12/12/12 13/13/12
f 13/13/12 12/12/12 14/14/13
f 15/15/14 5/16/15 16/17/16
f 16/17/16 5/16/15 7/18/17
f 15/19/18 9/20/19 5/5/20
f 5/5/20 9/20/19 6/6/21
f 7/7/22 8/8/23 16/21/24
f 16/21/24 8/8/23 10/22/25
f 10/10/10 9/9/8 11/11/26
f 11/11/26 9/9/8 12/12/27
f 15/15/18 14/14/28 9/9/19
f 9/9/19 14/14/28 12/12/29
f 15/15/14 16/17/16 14/14/30
f 14/14/30 16/17/16 13/13/31
f 10/10/25 11/11/32 16/17/24
f 16/17/24 11/11/32 13/13/33
o pPlane1
v 4.629630 -0.006614 -0.290917
v 0.000000 1.964451 -0.478838
v 0.000000 1.964451 -0.102997
v -4.629630 -0.006614 -0.290917
vt 0.000000 0.400000
vt 0.500000 0.000000
vt 0.500000 0.800000
vt 1.000000 0.400000
vn 0.3917 0.9201 0.0000
vn -0.0000 1.0000 0.0000
vn -0.3917 0.9201 0.0000
usemtl initialShadingGroup
s 1
f 17/23/34 18/24/35 19/25/35
f 18/24/35 20/26/36 19/25/35
o pPlane4
v 2.263375 -0.006615 -4.838396
v 0.000000 1.964451 -0.597837
v 0.000000 1.964451 -0.221997
v -2.263375 -0.006615 -4.838396
vt 0.000000 0.400000
vt 0.500000 0.000000
vt 0.500000 0.800000
vt 1.000000 0.400000
vn 0.6567 0.7541 0.0000
vn 0.0000 1.0000 0.0000
vn -0.6567 0.7541 0.0000
usemtl initialShadingGroup
s 1
f 21/27/37 22/28/38 23/29/38
f 22/28/38 24/30/39 23/29/38
o pPlane3
v 2.030941 -0.006613 4.970563
v 0.000000 1.964451 0.133160
v 0.000000 1.964451 0.509001
v -2.030941 -0.006613 4.970563
vt 0.000000 0.400000
vt 0.500000 0.000000
vt 0.500000 0.800000
vt 1.000000 0.400000
vn 0.6964 0.7176 -0.0000
vn 0.0000 1.0000 -0.0000
vn -0.6964 0.7176 -0.0000
usemtl initialShadingGroup
s 1
f 25/31/40 26/32/41 27/33/41
f 26/32/41 28/34/42 27/33/41
