# This file uses centimeters as units for non-parametric coordinates.

mtllib DumpsterCollider.mtl
g default
v 58.044800 -1.844570 82.802498
v -58.187401 -1.844570 82.802498
v 58.044800 -1.844570 -84.763000
v -58.187401 -1.844570 -84.763000
v -58.088902 83.507301 -84.763000
v -58.088902 83.507301 82.802498
v 58.296200 101.447998 -84.763000
v 58.296200 101.447998 82.802498
v -58.088902 83.507301 82.802498
v -58.187401 -1.844570 82.802498
v 58.296200 101.447998 82.802498
v 58.044800 -1.844570 82.802498
v 58.296200 101.447998 82.802498
v 58.044800 -1.844570 82.802498
v 58.296200 101.447998 -84.763000
v 58.044800 -1.844570 -84.763000
v 58.296200 101.447998 -84.763000
v 58.044800 -1.844570 -84.763000
v -58.088902 83.507301 -84.763000
v -58.187401 -1.844570 -84.763000
v -58.088902 83.507301 -84.763000
v -58.187401 -1.844570 -84.763000
v -58.088902 83.507301 82.802498
v -58.187401 -1.844570 82.802498
vn 0.000000 -1.000000 0.000000
vn 0.000000 -1.000000 0.000000
vn 0.000000 -1.000000 0.000000
vn 0.000000 1.000000 -0.000000
vn 0.000000 1.000000 -0.000000
vn 0.000000 1.000000 -0.000000
vn -0.152350 0.988327 -0.000000
vn -0.152350 0.988327 -0.000000
vn -0.152350 0.988327 -0.000000
vn 0.152350 -0.988327 0.000000
vn 0.152350 -0.988327 0.000000
vn 0.152350 -0.988327 0.000000
vn 0.000000 -0.000000 1.000000
vn 0.000000 -0.000000 1.000000
vn 0.000000 -0.000000 1.000000
vn 0.000000 -0.000000 -1.000000
vn 0.000000 -0.000000 -1.000000
vn 0.000000 -0.000000 -1.000000
vn 0.999997 -0.002434 0.000000
vn 0.999997 -0.002434 0.000000
vn 0.999997 -0.002434 0.000000
vn -0.999997 0.002434 -0.000000
vn -0.999997 0.002434 -0.000000
vn -0.999997 0.002434 -0.000000
vn 0.000000 -0.000000 -1.000000
vn 0.000000 -0.000000 -1.000000
vn 0.000000 -0.000000 -1.000000
vn 0.000000 -0.000000 1.000000
vn 0.000000 -0.000000 1.000000
vn 0.000000 -0.000000 1.000000
vn -0.999999 0.001154 -0.000000
vn -0.999999 0.001154 -0.000000
vn -0.999999 0.001154 -0.000000
vn 0.999999 -0.001154 0.000000
vn 0.999999 -0.001154 0.000000
vn 0.999999 -0.001154 0.000000
s off
g collision
usemtl initialShadingGroup
f 1//1 2//2 3//3
f 2//4 3//5 4//6
f 5//7 6//8 7//9
f 6//10 7//11 8//12
f 9//13 10//14 11//15
f 10//16 11//17 12//18
f 13//19 14//20 15//21
f 14//22 15//23 16//24
f 17//25 18//26 19//27
f 18//28 19//29 20//30
f 21//31 22//32 23//33
f 22//34 23//35 24//36
