# This file uses centimeters as units for non-parametric coordinates.

mtllib PistolCollider.mtl
g default
v 1.910218 5.028562 1.826933
v 17.570010 5.028562 1.826933
v 5.351930 11.426916 1.826933
v 17.570010 11.426916 1.826933
v 5.351930 11.426916 -1.826933
v 17.570010 11.426916 -1.826933
v 1.910218 5.028562 -1.826933
v 17.570010 5.028562 -1.826933
v -1.992018 5.058472 -1.826933
v -1.992018 5.058472 1.826933
v 1.574820 11.423146 1.826933
v 1.574820 11.423146 -1.826933
v -4.035283 7.943033 -1.826933
v -4.035283 7.943033 1.826933
v -2.096131 11.977262 1.826933
v -2.096131 11.977262 -1.826933
v 0.745127 0.023334 -1.826933
v 0.745127 0.023334 1.826933
v -3.647282 0.053244 1.826933
v -3.647282 0.053244 -1.826933
vt 0.375000 0.000000
vt 0.625000 0.000000
vt 0.375000 0.250000
vt 0.625000 0.250000
vt 0.375000 0.500000
vt 0.625000 0.500000
vt 0.375000 0.750000
vt 0.625000 0.750000
vt 0.375000 1.000000
vt 0.625000 1.000000
vt 0.875000 0.000000
vt 0.875000 0.250000
vt 0.125000 0.000000
vt 0.125000 0.250000
vt 0.125000 0.000000
vt 0.375000 0.000000
vt 0.375000 0.250000
vt 0.125000 0.250000
vt 0.125000 0.000000
vt 0.375000 0.000000
vt 0.375000 0.250000
vt 0.125000 0.250000
vt 0.125000 0.000000
vt 0.375000 0.000000
vt 0.375000 0.000000
vt 0.125000 0.000000
vn 0.000000 0.000000 1.000000
vn 0.000000 0.000000 1.000000
vn 0.000000 0.000000 1.000000
vn 0.000000 0.000000 1.000000
vn -0.000236 1.000000 0.000000
vn 0.000000 1.000000 0.000000
vn 0.000000 1.000000 0.000000
vn -0.000236 1.000000 0.000000
vn 0.000000 0.000000 -1.000000
vn 0.000000 0.000000 -1.000000
vn 0.000000 0.000000 -1.000000
vn 0.000000 0.000000 -1.000000
vn 0.000000 -1.000000 0.000000
vn 0.000000 -1.000000 0.000000
vn 0.000000 -1.000000 0.000000
vn 0.000000 -1.000000 0.000000
vn 1.000000 0.000000 0.000000
vn 1.000000 0.000000 0.000000
vn 1.000000 0.000000 0.000000
vn 1.000000 0.000000 0.000000
vn -0.901286 0.433225 0.000000
vn -0.901286 0.433225 0.000000
vn -0.901286 0.433225 0.000000
vn -0.901286 0.433225 0.000000
vn -0.006809 -0.999977 0.000000
vn -0.006809 -0.999977 0.000000
vn -0.006809 -0.999977 0.000000
vn -0.006809 -0.999977 0.000000
vn 0.000000 0.000000 1.000000
vn 0.000000 0.000000 1.000000
vn -0.000998 1.000000 0.000000
vn -0.000998 1.000000 0.000000
vn 0.000000 0.000000 -1.000000
vn 0.000000 0.000000 -1.000000
vn -0.816020 -0.578024 0.000000
vn -0.816020 -0.578024 0.000000
vn -0.816020 -0.578024 0.000000
vn -0.816020 -0.578024 0.000000
vn 0.000000 0.000000 1.000000
vn 0.000000 0.000000 1.000000
vn 0.000000 0.000000 1.000000
vn 0.000000 0.000000 1.000000
vn 0.149255 0.988799 0.000000
vn 0.149255 0.988799 0.000000
vn 0.149255 0.988799 0.000000
vn 0.149255 0.988799 0.000000
vn 0.000000 0.000000 -1.000000
vn 0.000000 0.000000 -1.000000
vn 0.000000 0.000000 -1.000000
vn 0.000000 0.000000 -1.000000
vn 0.973962 -0.226714 0.000000
vn 0.973962 -0.226714 0.000000
vn 0.973962 -0.226714 0.000000
vn 0.973962 -0.226714 0.000000
vn 0.000000 0.000000 1.000000
vn 0.000000 0.000000 1.000000
vn -0.949429 0.313983 0.000000
vn -0.949429 0.313983 0.000000
vn -0.949429 0.313983 0.000000
vn -0.949429 0.313983 0.000000
vn 0.000000 0.000000 -1.000000
vn 0.000000 0.000000 -1.000000
s 1
g pCube1
usemtl initialShadingGroup
f 1/1/1 2/2/2 4/4/3 3/3/4
s 2
f 3/3/5 4/4/6 6/6/7 5/5/8
s 3
f 5/5/9 6/6/10 8/8/11 7/7/12
s off
f 7/7/13 8/8/14 2/10/15 1/9/16
f 2/2/17 8/11/18 6/12/19 4/4/20
f 13/19/21 14/20/22 15/21/23 16/22/24
f 17/23/25 18/24/26 19/25/27 20/26/28
s 1
f 1/1/1 3/3/4 11/17/29 10/16/30
s 2
f 3/3/5 5/14/8 12/18/31 11/17/32
s 3
f 5/14/9 7/13/12 9/15/33 12/18/34
s off
f 9/15/35 10/16/36 14/20/37 13/19/38
f 10/16/39 11/17/40 15/21/41 14/20/42
f 11/17/43 12/18/44 16/22/45 15/21/46
f 12/18/47 9/15/48 13/19/49 16/22/50
f 7/13/51 1/1/52 18/24/53 17/23/54
s 1
f 1/1/1 10/16/30 19/25/55 18/24/56
s off
f 10/16/57 9/15/58 20/26/59 19/25/60
s 3
f 9/15/33 7/13/12 17/23/61 20/26/62
