# Blender v2.79 (sub 0) OBJ File: 'bird.blend'
# www.blender.org
mtllib BirdLOD.mtl
o BirdLODMesh
v 0.000000 2.406553 -4.769603
v 0.000000 1.971868 -9.432006
v 0.300567 3.056012 -4.424626
v -0.300567 3.056012 -4.424626
v -0.252440 3.499063 2.921520
v 0.252440 3.499063 2.921520
v 0.000000 4.569571 12.850424
v 0.000000 4.044811 2.723804
v 0.000000 3.862980 -0.348421
v -0.500000 3.335855 -1.831704
v 0.500000 3.335855 -1.830092
v 0.000000 2.190626 1.147809
v 0.000000 1.714679 -0.197925
v 0.674945 1.409905 3.073855
v 0.000000 1.672254 0.623044
v -0.648403 1.409905 3.073854
v 0.000000 4.011444 2.723804
v -7.471035 3.484999 -1.326463
v 7.478200 3.510084 -1.326368
v -11.412609 4.165160 2.389502
v 11.419777 4.190246 2.389604
vt 0.058098 0.386837
vt 0.102045 0.168233
vt 0.159362 0.383868
vt 0.242420 0.578405
vt 0.210613 0.579465
vt 0.214624 0.057667
vt 0.372999 0.280534
vt 0.382272 0.138248
vt 0.568299 0.220751
vt 0.291418 0.982095
vt 0.359693 0.841794
vt 0.378792 0.869728
vt 0.157466 0.983061
vt 0.068760 0.869829
vt 0.087500 0.841382
vt 0.647268 0.541115
vt 0.558082 0.764061
vt 0.702344 0.311940
vt 0.558013 0.537049
vt 0.666014 0.535314
vt 0.702187 0.989028
vt 0.098134 0.041208
vt 0.172914 0.578965
vt 0.280463 0.577147
vt 0.224323 0.937711
vt 0.225972 0.703832
vt 0.223391 0.772293
vt 0.848554 0.182799
vt 0.730063 0.200301
vt 0.917489 0.097528
vt 0.877129 0.266414
vt 0.635760 0.037361
vt 0.826328 0.126310
vt 0.582566 0.101157
vt 0.626591 0.269137
vt 0.688152 0.182468
vt 0.881964 0.181562
vt 0.862928 0.034900
vt 0.626687 0.163021
vt 0.720089 0.989028
vt 0.631093 0.767250
vt 0.465664 0.855763
vt 0.505096 0.545786
vt 0.813229 0.767250
vt 0.797055 0.541115
vt 0.978659 0.855763
vt 0.939227 0.545786
vt 0.465696 0.445334
vt 0.505063 0.755329
vt 0.778048 0.535314
vt 0.978366 0.445334
vt 0.938999 0.755329
vt 0.741979 0.311940
vt 0.741874 0.989028
vn 0.0000 0.9774 -0.2116
vn 0.0000 -0.9942 0.1072
vn 0.0000 0.9810 -0.1942
vn -0.5086 0.8510 -0.1310
vn 0.5090 0.8507 -0.1309
vn 0.0123 0.9982 -0.0591
vn -0.0144 0.9981 -0.0591
vn 0.9132 -0.4074 0.0064
vn 0.8983 -0.4374 0.0408
vn 0.9069 -0.4213 0.0031
vn -0.9069 -0.4213 0.0031
vn -0.8983 -0.4374 0.0408
vn -0.9132 -0.4074 0.0065
vn 0.9513 0.3082 -0.0085
vn 0.9150 0.3970 -0.0725
vn 0.9103 0.4133 -0.0214
vn -0.9150 0.3970 -0.0725
vn -0.9513 0.3082 -0.0085
vn -0.9103 0.4133 -0.0214
vn -0.9573 -0.2889 -0.0065
vn 0.9574 -0.2889 -0.0065
vn -0.0000 0.0023 -1.0000
vn -0.9618 -0.2727 0.0237
vn -0.9865 -0.1061 0.1248
vn -0.9855 -0.1216 0.1186
vn 0.9618 -0.2728 0.0237
vn 0.9865 -0.1061 0.1248
vn 0.9855 -0.1217 0.1187
vn 0.8981 0.4146 -0.1466
vn 0.9157 0.3712 -0.1543
vn 0.9614 0.2173 -0.1689
vn -0.9804 0.1487 0.1290
vn -0.0033 -0.7114 0.7028
vn -0.9428 -0.2371 0.2343
vn 0.0003 -0.9987 -0.0516
vn 0.2046 -0.9775 -0.0505
vn -0.7791 0.6269 -0.0082
vn -0.9049 0.4013 -0.1419
vn -1.0000 0.0000 0.0000
vn -0.0133 0.9626 -0.2707
vn -0.0040 0.9427 -0.3337
vn -0.0223 0.9779 -0.2077
vn -0.9940 0.0000 0.1091
vn -0.0099 -0.9879 0.1548
vn -0.0120 -0.9873 0.1586
vn -0.0142 -0.9866 0.1626
vn 0.0007 0.9422 -0.3350
vn 0.0101 0.9628 -0.2701
vn 0.0194 0.9786 -0.2049
vn 0.0150 -0.9873 0.1580
vn 0.0135 -0.9878 0.1553
vn 0.0166 -0.9868 0.1609
vn -0.0229 0.9788 -0.2034
vn -0.0152 -0.9863 0.1644
vn 0.0200 0.9795 -0.2005
vn 0.0173 -0.9866 0.1622
usemtl lambert3SG
s off
f 3/1/1 2/2/1 4/3/1
f 5/4/2 6/5/2 7/6/2
f 3/7/3 4/8/3 9/9/3
f 4/10/4 10/11/4 9/12/4
f 3/13/5 9/14/5 11/15/5
f 8/16/6 9/17/6 20/18/6
f 9/19/7 8/20/7 21/21/7
s 1
f 1/22/8 2/2/9 3/1/10
f 4/3/11 2/2/12 1/22/13
f 6/5/14 8/23/15 7/6/16
f 8/24/17 5/4/18 7/6/19
f 4/10/11 1/25/13 10/11/20
f 3/13/10 11/15/21 1/25/8
f 8/24/17 12/26/22 5/4/18
f 1/25/13 13/27/23 10/11/20
f 8/24/24 10/11/20 12/26/25
f 10/11/20 13/27/23 12/26/25
f 1/25/8 11/15/21 13/27/26
f 8/23/27 12/26/28 11/15/21
f 11/15/21 12/26/28 13/27/26
f 6/5/14 12/26/22 8/23/15
f 6/5/14 5/4/18 12/26/22
f 12/28/29 14/29/30 13/30/31
f 12/28/32 15/31/33 14/29/34
f 15/32/35 16/33/36 13/34/31
f 15/35/33 12/36/32 16/37/37
f 13/34/38 16/33/37 12/36/32
f 15/38/35 13/30/31 14/39/30
f 8/40/39 9/17/39 17/41/39
f 9/17/40 10/42/41 18/43/42
f 17/44/43 8/45/43 10/46/43
f 10/46/44 8/45/45 18/47/46
f 11/48/47 9/19/48 19/49/49
f 8/50/50 11/51/51 19/52/52
f 9/17/40 18/43/42 20/18/53
f 18/47/46 8/45/45 20/53/54
f 19/49/49 9/19/48 21/21/55
f 8/50/50 19/52/52 21/54/56
