# This file uses centimeters as units for non-parametric coordinates.

mtllib DumpsterLOD.mtl
g default
v -58.088903 -1.844570 82.802495
v 58.044797 -1.844570 82.802495
v -58.088903 83.507301 82.802495
v 58.044797 101.447998 82.802495
v -58.088903 83.507301 -84.762998
v 58.044797 101.447998 -84.762998
v -58.088903 -1.844570 -84.762998
v 58.044797 -1.844570 -84.762998
vt 0.375000 0.000000
vt 0.625000 0.000000
vt 0.375000 0.250000
vt 0.625000 0.250000
vt 0.375000 0.500000
vt 0.625000 0.500000
vt 0.375000 0.750000
vt 0.625000 0.750000
vt 0.875000 0.000000
vt 0.875000 0.250000
vt 0.125000 0.000000
vt 0.125000 0.250000
vn 0.000000 0.000000 1.000000
vn 0.000000 0.000000 1.000000
vn 0.000000 0.000000 1.000000
vn 0.000000 0.000000 1.000000
vn -0.152672 0.988277 0.000000
vn -0.152672 0.988277 0.000000
vn -0.152672 0.988277 0.000000
vn -0.152672 0.988277 0.000000
vn 0.000000 0.000000 -1.000000
vn 0.000000 0.000000 -1.000000
vn 0.000000 0.000000 -1.000000
vn 0.000000 0.000000 -1.000000
vn 1.000000 0.000000 0.000000
vn 1.000000 0.000000 0.000000
vn 1.000000 0.000000 0.000000
vn 1.000000 0.000000 0.000000
vn -1.000000 0.000000 0.000000
vn -1.000000 0.000000 0.000000
vn -1.000000 0.000000 0.000000
vn -1.000000 0.000000 0.000000
s 1
g Dumpster_collision
usemtl lambert2SG
f 1/1/1 2/2/2 3/3/3
f 3/3/3 2/2/2 4/4/4
s 2
f 3/3/5 4/4/6 5/5/7
f 5/5/7 4/4/6 6/6/8
s 3
f 6/6/9 8/8/10 5/5/11
f 5/5/11 8/8/10 7/7/12
s 4
f 2/2/13 8/9/14 4/4/15
f 4/4/15 8/9/14 6/10/16
s 5
f 7/11/17 1/1/18 5/12/19
f 5/12/19 1/1/18 3/3/20
