# This file uses centimeters as units for non-parametric coordinates.

mtllib GasStationLOD.mtl
g default
v 342.019989 18.531599 79.075897
v 343.756989 7.063680 343.976013
v 343.757019 18.531799 344.088013
v 384.032623 18.531601 79.075836
v 38.870903 18.531401 -226.949997
v 38.870892 18.531799 79.075897
v 79.897003 7.057580 344.088013
v 384.032623 17.838400 -227.567001
v 343.757019 -8.206823 466.269989
v 79.521797 -8.206822 466.269989
v -539.494019 15.845800 361.990997
v -427.671997 15.845800 361.990997
v -539.494019 33.091702 361.991028
v -427.671997 33.091702 361.991028
v -539.494019 15.845800 385.795013
v -427.671997 33.351299 345.046021
v -427.671997 -9.455520 345.046021
v -427.671997 15.845800 385.795013
v -539.494019 -9.455490 385.795013
v -539.494019 -9.455520 345.046021
v -539.494019 33.351299 345.046021
v -427.671997 -9.455490 385.795013
v 79.897003 18.531799 79.075897
v 55.458801 18.531799 333.240997
v 38.870895 17.838800 333.240997
v 79.897003 18.531799 343.220001
v 55.458801 18.531799 345.045990
v 368.243011 18.531776 333.241028
v 368.243011 18.531799 343.220032
v 79.521797 -8.206900 344.246002
v 343.756989 -8.225750 344.166992
v 384.032623 242.595001 -227.757004
v 13.238402 274.447998 -237.233994
v 390.372986 303.778992 -241.356003
v 386.940033 -8.207281 -239.131012
v 477.132996 313.975006 422.535004
v 388.276001 303.779999 343.983002
v 477.132996 313.973999 -262.994995
v -550.882996 342.360992 -238.539001
v -550.882996 342.862030 345.045990
v -684.676025 360.834015 -262.610992
v -684.676025 360.834015 422.821991
v -550.882996 -9.695623 345.046021
v 9.286636 275.670013 345.045990
v 9.286640 -9.695620 345.045990
v 55.458698 242.595993 345.045990
v 367.022003 242.595993 343.983002
v 13.568500 -7.411470 -237.856995
v -550.882996 342.360992 -238.539001
v -336.131012 195.070999 -238.539001
v -97.562202 195.070999 -237.233994
v 177.755997 301.050995 94.224503
v 14.913400 289.726013 422.821991
v 319.596008 311.747009 94.224503
v 477.132996 334.841003 422.535004
v 477.132996 334.841003 -262.994995
v 14.913400 289.725006 -262.610992
v 319.596008 311.746002 -134.106995
v 177.755997 301.050995 -134.106995
v 79.521797 -8.206900 344.246002
v 55.458698 242.595993 333.239990
v 38.870899 242.595993 333.239990
v 38.870899 242.594971 -227.205994
v 177.755997 242.594971 -134.106995
v 318.888000 242.595001 -181.401550
v 177.755997 242.595993 94.224503
v 319.596008 242.595993 94.224503
v 384.032623 242.595993 333.240326
v 319.596008 242.595001 -134.106995
v -684.676025 378.233002 -262.610992
v 14.913400 268.859009 -262.610992
v -684.676025 378.233002 422.821991
v 14.913400 268.859009 422.821991
v -550.882996 342.360992 -238.539001
v 387.895996 -8.206900 343.220001
v 387.895996 18.531799 343.220032
v 384.032623 18.531799 333.241028
v 367.022003 242.595993 333.239990
v -97.232101 -7.411470 -237.856995
v -97.232101 -7.411440 -191.069000
v -97.562210 195.070999 -190.445999
v -335.799988 -7.411440 -191.069000
v -336.131012 195.070999 -190.445999
v -335.799988 -7.411470 -239.162994
v -550.882996 -10.196700 -238.539001
vn -0.999979 -0.000061 0.006554
vn -0.999979 -0.000061 0.006554
vn -0.999979 -0.000061 0.006554
vn 0.000001 1.000000 -0.000001
vn 0.000001 1.000000 -0.000001
vn 0.000001 1.000000 -0.000001
vn 0.002004 0.999995 -0.002261
vn 0.002004 0.999995 -0.002261
vn 0.002004 0.999996 -0.002261
vn -0.000002 0.999064 0.043254
vn -0.000002 0.999064 0.043254
vn -0.000002 0.999064 0.043254
vn -0.000002 0.999064 0.043254
vn 0.000030 0.992294 0.123905
vn 0.000030 0.992294 0.123905
vn 0.000030 0.992294 0.123905
vn 0.000000 0.992286 0.123968
vn 0.000000 0.992286 0.123968
vn 0.000000 0.992286 0.123968
vn 0.000000 -0.000004 1.000000
vn 0.000000 -0.000004 1.000000
vn 0.000000 -0.000004 1.000000
vn 0.000000 -0.000000 1.000000
vn 0.000000 -0.000000 1.000000
vn 0.000000 -0.000000 1.000000
vn 0.000000 1.000000 0.000000
vn 0.000000 1.000000 0.000000
vn 0.000000 1.000000 0.000000
vn 1.000000 -0.000000 0.000005
vn 1.000000 -0.000000 0.000005
vn 1.000000 -0.000000 0.000005
vn 1.000000 0.000000 -0.000013
vn 1.000000 0.000000 -0.000013
vn 1.000000 0.000000 -0.000013
vn 1.000000 0.000000 0.000000
vn 1.000000 0.000000 0.000000
vn 1.000000 0.000000 0.000000
vn 0.000000 1.000000 0.000000
vn 0.000000 1.000000 0.000000
vn 0.000000 1.000000 0.000000
vn 0.000000 -0.000000 1.000000
vn 0.000000 -0.000000 1.000000
vn 0.000000 -0.000000 1.000000
vn -1.000000 0.000000 -0.000001
vn -1.000000 0.000000 -0.000001
vn -1.000000 0.000000 -0.000001
vn -1.000000 0.000000 0.000000
vn -1.000000 0.000000 0.000000
vn -1.000000 0.000000 0.000000
vn -1.000000 -0.000000 0.000013
vn -1.000000 -0.000000 0.000013
vn -1.000000 -0.000000 0.000013
vn -1.000000 0.000000 0.000000
vn -1.000000 0.000000 0.000000
vn -1.000000 0.000000 0.000000
vn 0.000000 -0.000000 1.000000
vn 0.000000 -0.000000 1.000000
vn 0.000000 -0.000000 1.000000
vn 1.000000 0.000000 0.000000
vn 1.000000 0.000000 0.000000
vn 1.000000 0.000000 0.000000
vn 0.000000 0.999883 0.015318
vn 0.000000 0.999883 0.015318
vn 0.000000 0.999883 0.015318
vn 0.000000 0.999883 0.015318
vn 0.000000 0.999883 0.015318
vn 0.000000 0.999883 0.015318
vn 0.000000 1.000000 0.000000
vn 0.000000 1.000000 0.000000
vn 0.000000 1.000000 0.000000
vn -0.041741 0.999125 0.002724
vn -0.041741 0.999125 0.002724
vn -0.041741 0.999125 0.002724
vn 1.000000 0.000000 0.000000
vn 1.000000 0.000000 0.000000
vn 1.000000 0.000000 0.000000
vn 0.000000 1.000000 0.000000
vn 0.000000 1.000000 0.000000
vn 0.000000 1.000000 0.000000
vn 0.000000 1.000000 0.000000
vn 0.000000 1.000000 0.000000
vn 0.000000 1.000000 0.000000
vn -0.000000 1.000000 -0.000001
vn -0.000000 1.000000 -0.000001
vn -0.000001 1.000000 -0.000001
vn 0.000001 1.000000 -0.000001
vn 0.000001 1.000000 -0.000001
vn 0.000001 1.000000 -0.000001
vn -0.000000 1.000000 -0.000002
vn -0.000000 1.000000 -0.000002
vn -0.000000 1.000000 -0.000002
vn -0.999698 0.024573 0.000000
vn -0.999698 0.024573 0.000000
vn -0.999698 0.024573 0.000000
vn 1.000000 -0.000000 -0.000000
vn 1.000000 -0.000000 -0.000000
vn 1.000000 -0.000000 -0.000000
vn 0.001789 0.000846 0.999998
vn 0.001789 0.000846 0.999998
vn 0.001789 0.000846 0.999998
vn -0.010383 -0.007017 -0.999922
vn -0.010383 -0.007017 -0.999922
vn -0.010383 -0.007017 -0.999922
vn 0.113985 -0.993482 0.000001
vn 0.113985 -0.993482 0.000001
vn 0.113985 -0.993482 0.000001
vn 0.116810 -0.993154 0.000420
vn 0.116810 -0.993154 0.000420
vn 0.116810 -0.993154 0.000420
vn -0.136924 -0.990581 0.000850
vn -0.136924 -0.990581 0.000850
vn -0.136924 -0.990581 0.000850
vn -0.133131 -0.991099 -0.000000
vn -0.133131 -0.991099 -0.000000
vn -0.133131 -0.991099 -0.000000
vn 0.000000 -0.000000 1.000000
vn 0.000000 -0.000000 1.000000
vn 0.000000 -0.000000 1.000000
vn 0.000000 0.000000 1.000000
vn 0.000000 0.000000 1.000000
vn 0.000000 0.000000 1.000000
vn 0.002542 0.003547 0.999991
vn 0.002542 0.003547 0.999991
vn 0.002542 0.003547 0.999991
vn 0.003412 -0.001185 0.999994
vn 0.003412 -0.001185 0.999994
vn 0.003412 -0.001185 0.999994
vn -0.003407 0.002206 -0.999992
vn -0.003407 0.002206 -0.999992
vn -0.003407 0.002206 -0.999992
vn 0.002806 0.004091 -0.999988
vn 0.002806 0.004091 -0.999988
vn 0.002806 0.004091 -0.999988
vn 0.005470 -0.007635 -0.999956
vn 0.005470 -0.007635 -0.999956
vn 0.005470 -0.007635 -0.999956
vn -0.075195 0.997165 -0.002898
vn -0.075195 0.997165 -0.002898
vn -0.075195 0.997165 -0.002898
vn -0.097131 0.994997 -0.023382
vn -0.097131 0.994997 -0.023382
vn -0.097131 0.994997 -0.023382
vn -0.096924 0.993508 0.059555
vn -0.096924 0.993508 0.059555
vn -0.096924 0.993508 0.059555
vn -0.075186 0.997142 0.007392
vn -0.075186 0.997142 0.007392
vn -0.075186 0.997142 0.007392
vn 0.074300 0.075233 0.994394
vn 0.074300 0.075233 0.994394
vn 0.074300 0.075233 0.994394
vn 0.022152 -0.036230 0.999098
vn 0.022152 -0.036230 0.999098
vn 0.022152 -0.036230 0.999098
vn 0.011175 0.010065 0.999887
vn 0.011175 0.010065 0.999887
vn 0.011175 0.010065 0.999887
vn 1.000000 0.000000 0.000000
vn 1.000000 0.000000 0.000000
vn 1.000000 0.000000 0.000000
vn 1.000000 0.000000 0.000000
vn 1.000000 0.000000 0.000000
vn 1.000000 0.000000 0.000000
vn 0.000000 0.000000 1.000000
vn 0.000000 0.000000 1.000000
vn 0.000000 0.000000 1.000000
vn 0.000000 -0.000000 1.000000
vn 0.000000 -0.000000 1.000000
vn 0.000000 -0.000000 1.000000
vn 0.000000 -0.000005 -1.000000
vn 0.000000 -0.000005 -1.000000
vn 0.000000 -0.000005 -1.000000
vn 0.000000 -0.000004 -1.000000
vn 0.000000 -0.000004 -1.000000
vn 0.000000 -0.000004 -1.000000
vn 1.000000 -0.000000 0.000000
vn 1.000000 -0.000000 0.000000
vn 1.000000 -0.000000 0.000000
vn 1.000000 0.000000 0.000000
vn 1.000000 0.000000 0.000000
vn 1.000000 0.000000 0.000000
vn 0.001596 0.001143 0.999998
vn 0.001596 0.001143 0.999998
vn 0.001596 0.001143 0.999998
vn -0.000001 -1.000000 0.000002
vn -0.000001 -1.000000 0.000002
vn -0.000001 -1.000000 0.000002
vn 0.000000 -1.000000 -0.000000
vn 0.000000 -1.000000 -0.000000
vn 0.000000 -1.000000 -0.000000
vn 0.000000 -1.000000 0.000001
vn 0.000000 -1.000000 0.000001
vn 0.000000 -1.000000 0.000001
vn 0.000000 -0.000000 1.000000
vn 0.000000 -0.000000 1.000000
vn 0.000000 -0.000000 1.000000
vn 1.000000 0.000000 0.000000
vn 1.000000 0.000000 0.000000
vn 1.000000 0.000000 0.000000
vn 0.000007 -1.000000 0.000004
vn 0.000007 -1.000000 0.000004
vn 0.000007 -1.000000 0.000004
vn 0.000000 -1.000000 -0.000000
vn 0.000000 -1.000000 -0.000000
vn 0.000000 -1.000000 -0.000000
vn 0.000000 -1.000000 -0.000000
vn 0.000000 -1.000000 -0.000000
vn 0.000000 -1.000000 -0.000000
vn -0.000016 -1.000000 0.000004
vn -0.000016 -1.000000 0.000004
vn -0.000016 -1.000000 0.000004
vn 0.000003 -1.000000 0.000002
vn 0.000003 -1.000000 0.000002
vn 0.000003 -1.000000 0.000002
vn -0.000001 -1.000000 -0.000000
vn -0.000001 -1.000000 -0.000000
vn -0.000001 -1.000000 -0.000000
vn 0.000000 -1.000000 -0.000000
vn 0.000000 -1.000000 -0.000000
vn 0.000000 -1.000000 -0.000000
vn 0.000000 -0.000000 1.000000
vn 0.000000 -0.000000 1.000000
vn 0.000000 -0.000000 1.000000
vn -0.145050 0.989424 0.000000
vn -0.145050 0.989424 0.000000
vn -0.145050 0.989424 0.000000
vn -0.145035 0.989427 -0.000004
vn -0.145035 0.989427 -0.000004
vn -0.145035 0.989427 -0.000004
vn -1.000000 0.000000 -0.000000
vn -1.000000 0.000000 -0.000000
vn -1.000000 0.000000 -0.000000
vn -1.000000 0.000000 0.000000
vn -1.000000 0.000000 0.000000
vn -1.000000 0.000000 0.000000
vn 0.000000 0.000000 -1.000000
vn 0.000000 0.000000 -1.000000
vn 0.000000 0.000000 -1.000000
vn 0.000000 0.000000 -1.000000
vn 0.000000 0.000000 -1.000000
vn 0.000000 0.000000 -1.000000
vn 1.000000 0.000000 0.000000
vn 1.000000 0.000000 0.000000
vn 1.000000 0.000000 0.000000
vn -0.069384 0.997590 0.000000
vn -0.069384 0.997590 0.000000
vn -0.069384 0.997590 0.000000
vn -0.069381 0.997590 -0.000001
vn -0.069381 0.997590 -0.000001
vn -0.069381 0.997590 -0.000001
vn 0.125514 0.992092 -0.000001
vn 0.125514 0.992092 -0.000001
vn 0.125514 0.992092 -0.000001
vn 0.000000 0.000000 -1.000000
vn 0.000000 0.000000 -1.000000
vn 0.000000 0.000000 -1.000000
vn 0.000000 0.000000 -1.000000
vn 0.000000 0.000000 -1.000000
vn 0.000000 0.000000 -1.000000
vn -1.000000 0.000000 0.000000
vn -1.000000 0.000000 0.000000
vn -1.000000 0.000000 0.000000
vn -1.000000 0.000000 0.000000
vn -1.000000 0.000000 0.000000
vn -1.000000 0.000000 0.000000
vn 0.000000 -0.000000 1.000000
vn 0.000000 -0.000000 1.000000
vn 0.000000 -0.000000 1.000000
vn 0.125512 0.992092 0.000000
vn 0.125512 0.992092 0.000000
vn 0.125512 0.992092 0.000000
vn 0.074018 -0.996215 0.045567
vn 0.074018 -0.996215 0.045567
vn 0.074018 -0.996215 0.045567
vn 0.096660 -0.990891 -0.093767
vn 0.096660 -0.990891 -0.093767
vn 0.096660 -0.990891 -0.093767
vn -0.118732 -0.989851 -0.078094
vn -0.118732 -0.989851 -0.078094
vn -0.118732 -0.989851 -0.078094
vn -0.130347 -0.991456 0.004872
vn -0.130347 -0.991457 0.004872
vn -0.130347 -0.991457 0.004872
vn 0.000000 -0.000000 1.000000
vn 0.000000 -0.000000 1.000000
vn 0.000000 -0.000000 1.000000
vn 0.000621 -0.000000 1.000000
vn 0.000621 -0.000000 1.000000
vn 0.000621 -0.000000 1.000000
vn 0.000621 -0.000000 1.000000
vn 0.000621 -0.000000 1.000000
vn 0.000621 -0.000000 1.000000
vn 1.000000 0.000000 0.000000
vn 1.000000 0.000000 0.000000
vn 1.000000 0.000000 0.000000
vn 1.000000 0.000000 0.000000
vn 1.000000 0.000000 0.000000
vn 1.000000 0.000000 0.000000
vn -0.000831 0.000000 -1.000000
vn -0.000831 0.000000 -1.000000
vn -0.000831 0.000000 -1.000000
vn -0.000831 0.000000 -1.000000
vn -0.000831 0.000000 -1.000000
vn -0.000831 0.000000 -1.000000
vn 0.096771 -0.992132 -0.079437
vn 0.096771 -0.992132 -0.079437
vn 0.096771 -0.992132 -0.079437
vn 0.078034 -0.972523 0.219338
vn 0.078034 -0.972523 0.219338
vn 0.078034 -0.972523 0.219338
vn -0.127572 -0.970352 0.205289
vn -0.127572 -0.970352 0.205289
vn -0.127572 -0.970352 0.205289
vn -0.118720 -0.988042 -0.098380
vn -0.118720 -0.988042 -0.098380
vn -0.118720 -0.988042 -0.098380
vn 0.021443 0.012481 0.999692
vn 0.021443 0.012481 0.999692
vn 0.021443 0.012481 0.999692
vn 0.022959 0.016877 0.999594
vn 0.022959 0.016877 0.999594
vn 0.022959 0.016877 0.999594
vn 0.035424 -0.009764 0.999325
vn 0.035424 -0.009764 0.999325
vn 0.035424 -0.009764 0.999325
vn 0.999933 -0.010977 0.003582
vn 0.999933 -0.010977 0.003582
vn 0.999933 -0.010977 0.003582
vn 0.999998 -0.001328 -0.001581
vn 0.999998 -0.001328 -0.001581
vn 0.999998 -0.001328 -0.001581
vn 0.999999 0.000000 -0.001641
vn 0.999999 0.000000 -0.001641
vn 0.999999 0.000000 -0.001641
vn 0.000000 -0.000000 1.000000
vn 0.000000 -0.000000 1.000000
vn 0.000000 -0.000000 1.000000
vn -1.000000 -0.000000 0.000000
vn -1.000000 -0.000000 0.000000
vn -1.000000 -0.000000 0.000000
vn -1.000000 0.000000 0.000000
vn -1.000000 0.000000 0.000000
vn -1.000000 0.000000 0.000000
vn 0.000020 -0.000003 -1.000000
vn 0.000020 -0.000003 -1.000000
vn 0.000020 -0.000003 -1.000000
vn 0.000000 -0.000005 -1.000000
vn 0.000000 -0.000005 -1.000000
vn 0.000000 -0.000005 -1.000000
vn -0.999985 -0.005449 -0.000000
vn -0.999985 -0.005449 -0.000000
vn -0.999985 -0.005449 -0.000000
vn -0.999985 -0.005449 -0.000000
vn -0.999985 -0.005449 -0.000000
vn -0.999985 -0.005449 -0.000000
vn 0.009650 -0.003353 0.999948
vn 0.009650 -0.003353 0.999948
vn 0.009650 -0.003353 0.999948
vn 0.000000 -0.002675 0.999996
vn 0.000000 -0.002675 0.999996
vn 0.000000 -0.002675 0.999996
vn 0.000000 0.002210 -0.999998
vn 0.000000 0.002210 -0.999998
vn 0.000000 0.002210 -0.999998
vn -0.002202 0.003073 -0.999993
vn -0.002202 0.003073 -0.999993
vn -0.002202 0.003073 -0.999993
vn -0.999999 -0.001630 0.000000
vn -0.999999 -0.001630 0.000000
vn -0.999999 -0.001630 0.000000
vn -0.999999 -0.001630 -0.000000
vn -0.999999 -0.001630 -0.000000
vn -0.999999 -0.001630 -0.000000
vn 0.000000 0.003077 -0.999995
vn 0.000000 0.003077 -0.999995
vn 0.000000 0.003077 -0.999995
vn 0.000000 0.003077 -0.999995
vn 0.000000 0.003077 -0.999995
vn 0.000000 0.003077 -0.999995
vn 0.999999 0.001635 0.000000
vn 0.999999 0.001635 0.000000
vn 0.999999 0.001635 0.000000
vn 0.999999 0.001635 0.000000
vn 0.999999 0.001635 0.000000
vn 0.999999 0.001635 0.000000
vn -0.002941 0.003077 -0.999991
vn -0.002941 0.003077 -0.999991
vn -0.002941 0.003077 -0.999991
vn 0.000000 0.000000 -1.000000
vn 0.000000 0.000000 -1.000000
vn 0.000000 0.000000 -1.000000
vn -1.000000 0.000000 0.000000
vn -1.000000 0.000000 0.000000
vn -1.000000 0.000000 0.000000
vn -1.000000 0.000000 -0.000000
vn -1.000000 0.000000 -0.000000
vn -1.000000 0.000000 -0.000000
vn -0.000001 1.000000 -0.000001
s off
g collision
usemtl lambert2SG
f 1//1 2//2 3//3
f 4//4 5//5 6//6
f 5//7 4//8 8//9
f 1//10 23//11 7//12 2//13
f 7//14 9//15 2//16
f 9//17 7//18 10//19
f 11//20 12//21 13//22
f 12//23 14//24 13//25
f 15//26 12//27 11//28
f 16//29 14//30 17//31
f 14//32 12//33 17//34
f 17//35 12//36 18//37
f 12//38 15//39 18//40
f 18//41 15//42 19//43
f 19//44 15//45 20//46
f 15//47 11//48 20//49
f 11//50 13//51 20//52
f 20//53 13//54 21//55
f 19//56 22//57 18//58
f 22//59 17//60 18//61
f 21//62 13//63 16//64
f 13//65 14//66 16//67
f 23//68 6//69 24//70
f 6//71 25//72 24//73
f 7//74 23//75 26//76
f 23//77 24//78 26//79
f 26//80 24//81 27//82
s 1
f 4//83 1//84 28//85
s off
f 1//86 3//87 28//88
f 28//89 3//90 29//91
f 10//92 7//93 30//94
f 31//95 2//96 9//97
f 5//98 8//99 32//100
f 33//101 34//102 35//103
f 36//104 37//105 38//106
f 37//107 34//108 38//109
f 39//110 40//111 41//112
f 40//113 42//114 41//115
f 43//116 45//117 44//118
f 40//119 43//120 44//121
f 44//122 46//123 37//124
f 46//125 47//126 37//127
f 35//128 48//129 33//130
f 49//131 33//132 50//133
f 33//134 51//135 50//136
f 52//137 53//138 54//139
f 53//140 55//141 54//142
f 56//143 57//144 58//145
f 57//146 59//147 58//148
f 26//149 27//150 7//151
f 27//152 45//153 7//154
f 7//155 45//156 60//157
f 61//158 46//159 24//160
f 24//161 46//162 27//163
f 46//164 44//165 27//166
f 27//167 44//168 45//169
f 24//170 25//171 61//172
f 61//173 25//174 62//175
f 25//176 5//177 62//178
f 62//179 5//180 63//181
f 63//182 5//183 32//184
f 62//185 63//186 64//187
f 63//188 32//189 64//190
f 64//191 32//192 65//193
f 58//194 59//195 64//196
f 59//197 66//198 64//199
f 64//200 66//201 62//202
f 66//203 67//204 62//205
f 62//206 67//207 68//208
f 67//209 69//210 68//211
f 68//212 69//213 32//214
f 32//215 69//216 65//217
f 65//218 69//219 64//220
f 69//221 58//222 64//223
f 56//224 58//225 55//226
f 55//227 58//228 54//229
f 58//230 69//231 54//232
f 69//233 67//234 54//235
f 54//236 67//237 52//238
f 67//239 66//240 52//241
f 66//242 59//243 52//244
f 59//245 57//246 52//247
f 52//248 57//249 53//250
f 53//251 57//252 70//253
f 57//254 71//255 70//256
f 71//257 41//258 70//259
f 70//260 41//261 72//262
f 41//263 42//264 72//265
f 42//266 53//267 72//268
f 72//269 53//270 70//271
f 37//272 36//273 44//274
f 36//275 73//276 44//277
f 44//278 73//279 40//280
f 40//281 73//282 42//283
f 42//284 73//285 53//286
f 53//287 73//288 55//289
f 73//290 36//291 55//292
f 55//293 36//294 56//295
f 36//296 38//297 56//298
f 56//299 38//300 57//301
f 57//302 38//303 71//304
f 38//305 34//306 71//307
f 34//308 33//309 71//310
f 71//311 33//312 41//313
f 33//314 74//315 41//316
f 31//317 75//318 2//319
f 75//320 29//321 2//322
f 2//323 29//324 3//325
f 34//326 37//327 35//328
f 37//329 76//330 35//331
f 35//332 76//333 75//334
f 75//335 76//336 29//337
f 32//338 8//339 68//340
f 8//341 77//342 68//343
f 68//344 77//345 78//346
f 77//347 28//348 78//349
f 78//350 28//351 47//352
f 28//353 29//354 47//355
f 47//356 29//357 37//358
f 29//359 76//360 37//361
f 48//362 79//363 33//364
f 33//365 79//366 51//367
f 79//368 80//369 51//370
f 51//371 80//372 81//373
f 80//374 82//375 81//376
f 81//377 82//378 83//379
f 82//380 84//381 83//382
f 83//383 84//384 50//385
f 84//386 85//387 50//388
f 50//389 85//390 49//391
f 85//392 40//393 49//394
f 43//395 40//396 85//397
s 1
f 4//83 28//85 77//398
