# This file uses centimeters as units for non-parametric coordinates.

mtllib TableCollider.mtl
g default
v -73.583839 47.536770 36.727825
v 73.583839 47.536770 36.727825
v -73.583839 55.280991 36.727825
v 73.583839 55.280991 36.727825
v -73.583839 55.280991 -36.727856
v 73.583839 55.280991 -36.727856
v -73.583839 47.536770 -36.727856
v 73.583839 47.536770 -36.727856
v -75.287025 55.826466 -38.438076
v -75.287025 0.076296 -38.438076
v -73.589767 55.826466 -33.930882
v -73.589767 0.076296 -33.930882
v -70.804688 55.826466 -36.727856
v -70.804688 0.076296 -36.727856
v -75.294060 55.826466 38.431011
v -75.294060 0.076296 38.431011
v -70.786865 55.826466 36.733753
v -70.786865 0.076296 36.733753
v -73.583839 55.826466 33.948673
v -73.583839 0.076296 33.948673
v 75.287025 55.826466 38.438046
v 75.287025 0.076296 38.438046
v 73.589767 55.826466 33.930851
v 73.589767 0.076296 33.930851
v 70.804688 55.826466 36.727825
v 70.804688 0.076296 36.727825
v 75.294060 55.826466 -38.431042
v 75.294060 0.076296 -38.431042
v 70.786865 55.826466 -36.733784
v 70.786865 0.076296 -36.733784
v 73.583839 55.826466 -33.948704
v 73.583839 0.076296 -33.948704
vt 0.375000 0.000000
vt 0.625000 0.000000
vt 0.375000 0.250000
vt 0.625000 0.250000
vt 0.375000 0.500000
vt 0.625000 0.500000
vt 0.375000 0.750000
vt 0.625000 0.750000
vt 0.375000 1.000000
vt 0.625000 1.000000
vt 0.875000 0.000000
vt 0.875000 0.250000
vt 0.125000 0.000000
vt 0.125000 0.250000
vt 0.000000 0.000000
vt 1.000000 0.000000
vt 0.000000 1.000000
vt 1.000000 1.000000
vt 0.000000 0.000000
vt 1.000000 0.000000
vt 0.000000 1.000000
vt 1.000000 1.000000
vt 0.000000 0.000000
vt 1.000000 0.000000
vt 0.000000 1.000000
vt 1.000000 1.000000
vt 0.000000 0.000000
vt 1.000000 0.000000
vt 0.000000 1.000000
vt 1.000000 1.000000
vt 0.000000 0.000000
vt 1.000000 0.000000
vt 0.000000 1.000000
vt 1.000000 1.000000
vt 0.000000 0.000000
vt 1.000000 0.000000
vt 0.000000 1.000000
vt 1.000000 1.000000
vt 0.000000 0.000000
vt 1.000000 0.000000
vt 0.000000 1.000000
vt 1.000000 1.000000
vt 0.000000 0.000000
vt 1.000000 0.000000
vt 0.000000 1.000000
vt 1.000000 1.000000
vt 0.000000 0.000000
vt 1.000000 0.000000
vt 0.000000 1.000000
vt 1.000000 1.000000
vt 0.000000 0.000000
vt 1.000000 0.000000
vt 0.000000 1.000000
vt 1.000000 1.000000
vt 0.000000 0.000000
vt 1.000000 0.000000
vt 0.000000 1.000000
vt 1.000000 1.000000
vt 0.000000 0.000000
vt 1.000000 0.000000
vt 0.000000 1.000000
vt 1.000000 1.000000
vn 0.000000 0.000000 1.000000
vn 0.000000 0.000000 1.000000
vn 0.000000 0.000000 1.000000
vn 0.000000 0.000000 1.000000
vn 0.000000 1.000000 0.000000
vn 0.000000 1.000000 0.000000
vn 0.000000 1.000000 0.000000
vn 0.000000 1.000000 0.000000
vn 0.000000 0.000000 -1.000000
vn 0.000000 0.000000 -1.000000
vn 0.000000 0.000000 -1.000000
vn 0.000000 0.000000 -1.000000
vn 0.000000 -1.000000 0.000000
vn 0.000000 -1.000000 0.000000
vn 0.000000 -1.000000 0.000000
vn 0.000000 -1.000000 0.000000
vn 1.000000 0.000000 0.000000
vn 1.000000 0.000000 0.000000
vn 1.000000 0.000000 0.000000
vn 1.000000 0.000000 0.000000
vn -1.000000 0.000000 0.000000
vn -1.000000 0.000000 0.000000
vn -1.000000 0.000000 0.000000
vn -1.000000 0.000000 0.000000
vn -0.935846 0.000000 0.352408
vn -0.935846 0.000000 0.352408
vn -0.935846 0.000000 0.352408
vn -0.935846 0.000000 0.352408
vn 0.356480 0.000000 -0.934303
vn 0.356480 0.000000 -0.934303
vn 0.356480 0.000000 -0.934303
vn 0.356480 0.000000 -0.934303
vn 0.708612 0.000000 0.705598
vn 0.708612 0.000000 0.705599
vn 0.708612 0.000000 0.705598
vn 0.708612 0.000000 0.705599
vn 0.000000 1.000000 -0.000001
vn 0.000000 1.000000 -0.000001
vn 0.000000 1.000000 -0.000001
vn 0.352409 0.000000 0.935846
vn 0.352408 0.000000 0.935847
vn 0.352409 0.000000 0.935846
vn 0.352408 0.000000 0.935847
vn -0.934303 0.000000 -0.356480
vn -0.934303 0.000000 -0.356480
vn -0.934303 0.000000 -0.356480
vn -0.934303 0.000000 -0.356480
vn 0.705599 0.000000 -0.708612
vn 0.705598 0.000000 -0.708612
vn 0.705599 0.000000 -0.708612
vn 0.705598 0.000000 -0.708612
vn 0.000000 1.000000 0.000000
vn 0.000000 1.000000 0.000000
vn 0.000000 1.000000 0.000000
vn 0.935846 0.000000 -0.352408
vn 0.935846 0.000000 -0.352408
vn 0.935846 0.000000 -0.352408
vn 0.935846 0.000000 -0.352408
vn -0.356480 0.000000 0.934303
vn -0.356480 0.000000 0.934303
vn -0.356480 0.000000 0.934303
vn -0.356480 0.000000 0.934303
vn -0.708612 0.000000 -0.705598
vn -0.708612 0.000000 -0.705599
vn -0.708612 0.000000 -0.705598
vn -0.708612 0.000000 -0.705599
vn 0.000000 1.000000 0.000001
vn 0.000000 1.000000 0.000001
vn 0.000000 1.000000 0.000001
vn -0.352409 0.000000 -0.935846
vn -0.352409 0.000000 -0.935846
vn -0.352409 0.000000 -0.935846
vn -0.352409 0.000000 -0.935846
vn 0.934303 0.000000 0.356480
vn 0.934303 0.000000 0.356480
vn 0.934303 0.000000 0.356480
vn 0.934303 0.000000 0.356480
vn -0.705598 0.000000 0.708612
vn -0.705599 0.000000 0.708612
vn -0.705598 0.000000 0.708612
vn -0.705599 0.000000 0.708612
vn 0.000000 1.000000 0.000000
vn 0.000000 1.000000 0.000000
vn 0.000000 1.000000 0.000000
s 1
g pCube2
usemtl initialShadingGroup
f 1/1/1 2/2/2 3/3/3
f 3/3/3 2/2/2 4/4/4
s 2
f 3/3/5 4/4/6 5/5/7
f 5/5/7 4/4/6 6/6/8
s 3
f 5/5/9 6/6/10 7/7/11
f 7/7/11 6/6/10 8/8/12
s 4
f 7/7/13 8/8/14 1/9/15
f 1/9/15 8/8/14 2/10/16
s 5
f 2/2/17 8/11/18 4/4/19
f 4/4/19 8/11/18 6/12/20
s 6
f 7/13/21 1/1/22 5/14/23
f 5/14/23 1/1/22 3/3/24
s 7
f 9/15/25 10/16/26 11/17/27
f 11/17/27 10/16/26 12/18/28
s 8
f 13/19/29 14/20/30 9/21/31
f 9/21/31 14/20/30 10/22/32
s 9
f 11/23/33 12/24/34 13/25/35
f 13/25/35 12/24/34 14/26/36
s off
f 11/23/37 13/19/38 9/15/39
s 10
f 15/27/40 16/28/41 17/29/42
f 17/29/42 16/28/41 18/30/43
s 11
f 19/31/44 20/32/45 15/33/46
f 15/33/46 20/32/45 16/34/47
s 12
f 17/35/48 18/36/49 19/37/50
f 19/37/50 18/36/49 20/38/51
s off
f 17/35/52 19/31/53 15/27/54
s 13
f 21/39/55 22/40/56 23/41/57
f 23/41/57 22/40/56 24/42/58
s 14
f 25/43/59 26/44/60 21/45/61
f 21/45/61 26/44/60 22/46/62
s 15
f 23/47/63 24/48/64 25/49/65
f 25/49/65 24/48/64 26/50/66
s off
f 23/47/67 25/43/68 21/39/69
s 16
f 27/51/70 28/52/71 29/53/72
f 29/53/72 28/52/71 30/54/73
s 17
f 31/55/74 32/56/75 27/57/76
f 27/57/76 32/56/75 28/58/77
s 18
f 29/59/78 30/60/79 31/61/80
f 31/61/80 30/60/79 32/62/81
s off
f 29/59/82 31/55/83 27/51/84
