# This file uses centimeters as units for non-parametric coordinates.

mtllib NovacHomeLOD.mtl
g default
v -265.226013 236.560974 333.888000
v -265.226013 236.561005 -333.887970
v -265.225006 0.000000 333.888000
v -265.225006 0.000000 -333.888000
v 265.225006 236.561005 -333.887970
v 265.225006 236.560974 333.888000
v 265.226013 0.000000 -333.888000
v 265.226013 0.000000 333.888000
v 271.226013 0.000000 339.889008
v 271.226990 16.002197 339.889008
v -271.226013 0.000000 339.889008
v -271.226013 16.002197 339.889008
v -271.226013 16.002197 111.820999
v -271.226013 16.002199 0.805927
v -287.227997 16.002197 111.821007
v -287.227997 16.002201 0.805927
v -271.226013 0.000000 111.820999
v -287.227997 0.000000 111.820999
v -287.227997 0.000000 0.805927
v -271.226013 0.000000 0.805927
v 0.000023 271.651001 -333.888000
v 0.000023 271.651001 333.888000
v -186.580994 310.911011 -126.673004
v -186.580994 310.911011 -208.945984
v -245.169006 310.911011 -126.673004
v -245.169006 310.911011 -208.945984
v -186.580994 251.938995 -126.673004
v -245.169006 251.938995 -126.673004
v -186.580994 251.938995 -208.945984
v -245.169006 251.938995 -208.945984
v -613.609009 222.384995 -355.586029
v -372.376007 222.384995 -355.585999
v -613.609009 222.384995 -2.474991
v -372.376007 222.384995 -2.474991
v -372.376007 236.457001 -2.474991
v -372.376007 236.457001 -355.585968
v -613.609009 236.457001 -2.474991
v -613.609009 236.457001 -355.585999
v -590.635010 0.000061 -305.769989
v -590.635010 222.384995 -305.769958
v -600.168030 0.000061 -305.769989
v -600.168030 222.384995 -305.769958
v -590.635010 0.000061 -313.279999
v -590.635010 222.384995 -313.279968
v -600.168030 0.000061 -313.279999
v -600.168030 222.384995 -313.279968
v -590.635010 0.000046 -44.780602
v -590.635010 222.385010 -44.780594
v -600.168030 0.000046 -44.780602
v -600.168030 222.385010 -44.780594
v -590.635010 0.000046 -52.290501
v -590.635010 222.384995 -52.290512
v -600.168030 0.000046 -52.290501
v -600.168030 222.384995 -52.290512
v -372.376007 236.482971 355.585999
v -372.376038 222.385010 355.586029
v 0.000031 285.748962 355.585999
v 0.000031 271.651001 355.585999
v 372.376038 222.385010 355.586029
v 372.376007 236.482971 355.585999
v -372.376007 236.483002 -355.585968
v 0.000031 271.651001 -355.585999
v 0.000031 285.748993 -355.585968
v 372.376007 236.483002 -355.585968
v 372.376038 222.384995 -355.586029
vn -1.000000 -0.000004 -0.000000
vn -1.000000 -0.000004 -0.000000
vn -1.000000 -0.000004 -0.000000
vn -1.000000 -0.000005 0.000000
vn -1.000000 -0.000005 0.000000
vn -1.000000 -0.000005 0.000000
vn 1.000000 0.000004 0.000000
vn 1.000000 0.000004 0.000000
vn 1.000000 0.000004 0.000000
vn 1.000000 0.000004 0.000000
vn 1.000000 0.000004 0.000000
vn 1.000000 0.000004 0.000000
vn 0.000000 0.000000 1.000000
vn 0.000000 0.000000 1.000000
vn 0.000000 0.000000 1.000000
vn 0.000000 0.000000 1.000000
vn 0.000000 0.000000 1.000000
vn 0.000000 0.000000 1.000000
vn 0.000000 1.000000 0.000000
vn 0.000000 1.000000 0.000000
vn 0.000000 1.000000 0.000000
vn 0.000000 1.000000 0.000000
vn 0.000000 1.000000 0.000000
vn 0.000000 1.000000 0.000000
vn 0.000000 0.000000 1.000000
vn 0.000000 0.000000 1.000000
vn 0.000000 0.000000 1.000000
vn 0.000000 -0.000000 1.000000
vn 0.000000 -0.000000 1.000000
vn 0.000000 -0.000000 1.000000
vn 0.000000 0.000000 -1.000000
vn 0.000000 0.000000 -1.000000
vn 0.000000 0.000000 -1.000000
vn 0.000000 0.000000 -1.000000
vn 0.000000 0.000000 -1.000000
vn 0.000000 0.000000 -1.000000
vn -1.000000 0.000000 0.000000
vn -1.000000 0.000000 0.000000
vn -1.000000 0.000000 0.000000
vn -1.000000 0.000002 0.000000
vn -1.000000 0.000002 0.000000
vn -1.000000 0.000002 0.000000
vn 0.000000 0.000000 -1.000000
vn 0.000000 0.000000 -1.000000
vn 0.000000 0.000000 -1.000000
vn 0.000000 -0.000000 -1.000000
vn 0.000000 -0.000000 -1.000000
vn 0.000000 -0.000000 -1.000000
vn -0.000000 0.000000 -1.000000
vn -0.000000 0.000000 -1.000000
vn -0.000000 0.000000 -1.000000
vn 0.000000 0.000000 1.000000
vn 0.000000 0.000000 1.000000
vn 0.000000 0.000000 1.000000
vn 0.000000 0.000000 1.000000
vn 0.000000 0.000000 1.000000
vn 0.000000 0.000000 1.000000
vn 0.000000 0.000000 1.000000
vn 0.000000 0.000000 1.000000
vn 0.000000 0.000000 1.000000
vn 0.000000 1.000000 0.000000
vn 0.000000 1.000000 0.000000
vn 0.000000 1.000000 0.000000
vn 0.000000 1.000000 0.000000
vn 0.000000 1.000000 0.000000
vn 0.000000 1.000000 0.000000
vn 0.000000 0.000000 1.000000
vn 0.000000 0.000000 1.000000
vn 0.000000 0.000000 1.000000
vn 0.000000 0.000000 1.000000
vn 0.000000 0.000000 1.000000
vn 0.000000 0.000000 1.000000
vn 1.000000 0.000000 0.000000
vn 1.000000 0.000000 0.000000
vn 1.000000 0.000000 0.000000
vn 1.000000 0.000000 0.000000
vn 1.000000 0.000000 0.000000
vn 1.000000 0.000000 0.000000
vn 0.000000 0.000000 -1.000000
vn 0.000000 0.000000 -1.000000
vn 0.000000 0.000000 -1.000000
vn 0.000000 0.000000 -1.000000
vn 0.000000 0.000000 -1.000000
vn 0.000000 0.000000 -1.000000
vn -1.000000 0.000000 0.000000
vn -1.000000 0.000000 0.000000
vn -1.000000 0.000000 0.000000
vn -1.000000 0.000000 0.000000
vn -1.000000 0.000000 0.000000
vn -1.000000 0.000000 0.000000
vn 0.000000 -1.000000 0.000000
vn 0.000000 -1.000000 0.000000
vn 0.000000 -1.000000 0.000000
vn 0.000000 -1.000000 0.000000
vn 0.000000 -1.000000 0.000000
vn 0.000000 -1.000000 0.000000
vn 0.000000 1.000000 0.000000
vn 0.000000 1.000000 0.000000
vn 0.000000 1.000000 0.000000
vn 0.000000 1.000000 0.000000
vn 0.000000 1.000000 0.000000
vn 0.000000 1.000000 0.000000
vn 0.000000 0.000000 1.000000
vn 0.000000 0.000000 1.000000
vn 0.000000 0.000000 1.000000
vn 0.000000 0.000000 1.000000
vn 0.000000 0.000000 1.000000
vn 0.000000 0.000000 1.000000
vn 0.000000 0.000002 -1.000000
vn 0.000000 0.000002 -1.000000
vn 0.000000 0.000002 -1.000000
vn 0.000000 0.000002 -1.000000
vn 0.000000 0.000002 -1.000000
vn 0.000000 0.000002 -1.000000
vn -1.000000 0.000000 0.000000
vn -1.000000 0.000000 0.000000
vn -1.000000 0.000000 0.000000
vn -1.000000 -0.000006 0.000000
vn -1.000000 -0.000006 0.000000
vn -1.000000 -0.000006 0.000000
vn 0.000000 -0.000000 1.000000
vn 0.000000 -0.000000 1.000000
vn 0.000000 -0.000000 1.000000
vn 0.000000 -0.000000 1.000000
vn 0.000000 -0.000000 1.000000
vn 0.000000 -0.000000 1.000000
vn 1.000000 0.000000 0.000000
vn 1.000000 0.000000 0.000000
vn 1.000000 0.000000 0.000000
vn 1.000000 0.000000 0.000000
vn 1.000000 0.000000 0.000000
vn 1.000000 0.000000 0.000000
vn 0.000000 0.000000 -1.000000
vn 0.000000 0.000000 -1.000000
vn 0.000000 0.000000 -1.000000
vn 0.000000 0.000000 -1.000000
vn 0.000000 0.000000 -1.000000
vn 0.000000 0.000000 -1.000000
vn -1.000000 0.000000 0.000000
vn -1.000000 0.000000 0.000000
vn -1.000000 0.000000 0.000000
vn -1.000000 0.000000 0.000000
vn -1.000000 0.000000 0.000000
vn -1.000000 0.000000 0.000000
vn 0.000000 -0.000000 1.000000
vn 0.000000 -0.000000 1.000000
vn 0.000000 -0.000000 1.000000
vn 0.000000 -0.000000 1.000000
vn 0.000000 -0.000000 1.000000
vn 0.000000 -0.000000 1.000000
vn 1.000000 0.000000 0.000000
vn 1.000000 0.000000 0.000000
vn 1.000000 0.000000 0.000000
vn 1.000000 0.000000 0.000000
vn 1.000000 0.000000 0.000000
vn 1.000000 0.000000 0.000000
vn 0.000000 -0.000000 -1.000000
vn 0.000000 -0.000000 -1.000000
vn 0.000000 -0.000000 -1.000000
vn 0.000000 -0.000000 -1.000000
vn 0.000000 -0.000000 -1.000000
vn 0.000000 -0.000000 -1.000000
vn -1.000000 -0.000001 0.000000
vn -1.000000 -0.000001 0.000000
vn -1.000000 -0.000001 0.000000
vn -1.000000 0.000000 0.000000
vn -1.000000 0.000000 0.000000
vn -1.000000 0.000000 0.000000
vn 0.000000 0.000002 1.000000
vn 0.000000 0.000002 1.000000
vn 0.000000 0.000002 1.000000
vn 0.000000 0.000000 1.000000
vn 0.000000 0.000000 1.000000
vn 0.000000 0.000000 1.000000
vn 0.000000 0.000000 1.000000
vn 0.000000 0.000000 1.000000
vn 0.000000 0.000000 1.000000
vn 0.000000 0.000002 1.000000
vn 0.000000 0.000002 1.000000
vn 0.000000 0.000002 1.000000
vn 0.000000 0.000002 -1.000000
vn 0.000000 0.000002 -1.000000
vn 0.000000 0.000002 -1.000000
vn -0.000001 0.000002 -1.000000
vn -0.000001 0.000002 -1.000000
vn -0.000001 0.000002 -1.000000
vn 0.000001 0.000002 -1.000000
vn 0.000001 0.000002 -1.000000
vn 0.000001 0.000002 -1.000000
vn 0.000000 0.000004 -1.000000
vn 0.000000 0.000004 -1.000000
vn 0.000000 0.000004 -1.000000
vn -0.131159 -0.991361 0.000000
vn -0.131159 -0.991361 0.000000
vn -0.131159 -0.991361 0.000000
vn -0.131159 -0.991361 0.000000
vn -0.131159 -0.991361 0.000000
vn -0.131159 -0.991361 0.000000
vn 0.131159 -0.991361 0.000000
vn 0.131159 -0.991361 0.000000
vn 0.131159 -0.991361 0.000000
vn 0.131159 -0.991361 0.000000
vn 0.131159 -0.991361 0.000000
vn 0.131159 -0.991361 0.000000
vn 1.000000 0.000004 0.000000
vn 1.000000 0.000004 0.000000
vn 1.000000 0.000004 0.000000
vn 1.000000 0.000000 0.000000
vn 1.000000 0.000000 0.000000
vn 1.000000 0.000000 0.000000
vn 0.131159 0.991361 0.000000
vn 0.131159 0.991361 0.000000
vn 0.131159 0.991361 0.000000
vn 0.131159 0.991361 0.000000
vn 0.131159 0.991361 0.000000
vn 0.131159 0.991361 0.000000
vn -0.131159 0.991361 0.000000
vn -0.131159 0.991361 0.000000
vn -0.131159 0.991361 0.000000
vn -0.131159 0.991361 0.000000
vn -0.131159 0.991361 0.000000
vn -0.131159 0.991361 0.000000
vn -1.000000 0.000000 0.000000
vn -1.000000 0.000000 0.000000
vn -1.000000 0.000000 0.000000
vn -1.000000 0.000004 -0.000000
vn -1.000000 0.000004 -0.000000
vn -1.000000 0.000004 -0.000000
s off
g collision
usemtl lambert2SG
f 1//1 2//2 3//3
f 2//4 4//5 3//6
f 5//7 6//8 7//9
f 6//10 8//11 7//12
g collisionShapeHiddenFacesSet defaultHideFaceDataSet collision
f 9//13 10//14 11//15
f 10//16 12//17 11//18
g collision
f 13//19 14//20 15//21
f 14//22 16//23 15//24
f 17//25 13//26 18//27
f 13//28 15//29 18//30
f 19//31 16//32 20//33
f 16//34 14//35 20//36
f 18//37 15//38 19//39
f 15//40 16//41 19//42
f 4//43 2//44 7//45
f 2//46 21//47 7//48
f 7//49 21//50 5//51
f 8//52 6//53 3//54
f 6//55 22//56 3//57
f 3//58 22//59 1//60
f 23//61 24//62 25//63
f 24//64 26//65 25//66
f 27//67 23//68 28//69
f 23//70 25//71 28//72
f 29//73 24//74 27//75
f 24//76 23//77 27//78
f 30//79 26//80 29//81
f 26//82 24//83 29//84
f 28//85 25//86 30//87
f 25//88 26//89 30//90
f 31//91 32//92 33//93
f 32//94 34//95 33//96
f 35//97 36//98 37//99
f 36//100 38//101 37//102
f 34//103 35//104 33//105
f 35//106 37//107 33//108
f 31//109 38//110 32//111
f 38//112 36//113 32//114
f 33//115 37//116 31//117
f 37//118 38//119 31//120
f 39//121 40//122 41//123
f 40//124 42//125 41//126
f 43//127 44//128 39//129
f 44//130 40//131 39//132
f 45//133 46//134 43//135
f 46//136 44//137 43//138
f 41//139 42//140 45//141
f 42//142 46//143 45//144
f 47//145 48//146 49//147
f 48//148 50//149 49//150
f 51//151 52//152 47//153
f 52//154 48//155 47//156
f 53//157 54//158 51//159
f 54//160 52//161 51//162
f 49//163 50//164 53//165
f 50//166 54//167 53//168
f 55//169 56//170 57//171
f 56//172 58//173 57//174
f 58//175 59//176 57//177
f 57//178 59//179 60//180
f 32//181 61//182 62//183
f 61//184 63//185 62//186
f 63//187 64//188 62//189
f 62//190 64//191 65//192
f 65//193 59//194 62//195
f 59//196 58//197 62//198
f 58//199 56//200 62//201
f 62//202 56//203 32//204
f 59//205 65//206 60//207
f 65//208 64//209 60//210
f 64//211 63//212 60//213
f 60//214 63//215 57//216
f 57//217 63//218 55//219
f 63//220 61//221 55//222
f 61//223 32//224 55//225
f 55//226 32//227 56//228
