# Blender v2.79 (sub 0) OBJ File: 'Flag.blend'
# www.blender.org
mtllib FlagLOD.mtl
o LOD
v 0.000000 0.000000 0.000000
v -10.000000 0.000000 0.000000
v -10.000000 6.000000 -0.000001
v 0.000000 6.000000 -0.000001
v 0.000000 0.000000 0.010000
v 0.000000 6.000000 0.009999
v -10.000000 6.000000 0.009999
v -10.000000 0.000000 0.010000
vt 0.000000 0.250000
vt 0.550000 0.250000
vt 0.550000 0.600000
vt 0.000000 0.600000
vt 0.000000 0.250000
vt 0.000000 0.600000
vt 0.550000 0.600000
vt 0.550000 0.250000
vn 0.0000 -0.0000 -1.0000
vn 0.0000 0.0000 1.0000
usemtl lambert5SG
s 1
f 1/1/1 2/2/1 3/3/1 4/4/1
f 5/5/2 6/6/2 7/7/2 8/8/2
