# This file uses centimeters as units for non-parametric coordinates.

mtllib BarrelPileLOD.mtl
g default
v 56.845100 46.087601 -52.209999
v 185.766006 26.671301 145.602005
v 29.290100 32.159000 135.625000
v 89.505501 -12.718600 212.093002
v 9.893310 -12.718600 204.117004
v -76.349503 -12.718600 176.544006
v 226.710999 50.240299 64.541901
v 182.352997 -12.718600 209.485992
v 235.643997 -12.718600 187.641006
v 287.592010 -12.718600 152.110992
v 385.123993 -12.718600 99.607300
v 412.710999 -12.718700 32.213299
v 393.182007 -12.718700 -52.452301
v 259.247009 20.294001 -110.163002
v 338.697998 -12.718700 -106.096001
v 254.742004 -12.718600 -159.738998
v 190.128998 -12.718600 -198.417999
v 209.268997 51.814301 -45.587299
v -23.590000 35.494701 -99.853104
v 110.165001 -12.718600 -212.093002
v 20.799200 -12.718600 -199.498993
v -89.576103 -12.718600 -158.194000
v -159.757996 39.451900 -49.006500
v -28.747499 44.983601 19.468500
v -199.559006 -12.718600 -142.598007
v -311.552002 -12.718600 -99.260597
v -210.966003 -12.718600 128.389008
v -366.101013 -12.718600 -61.902500
v -412.710999 -12.718600 -3.902200
v -274.088989 20.393801 -51.900200
v -409.734985 -12.718600 43.484100
v -94.478996 34.588299 98.431503
v -292.394989 -12.718600 114.949997
v -367.332001 -12.718600 85.436798
vn -0.161863 0.980083 0.115058
vn -0.161863 0.980083 0.115058
vn -0.161863 0.980083 0.115058
vn -0.106453 0.880639 0.461675
vn -0.106453 0.880638 0.461675
vn -0.106453 0.880639 0.461675
vn -0.046009 0.887122 0.459235
vn -0.046009 0.887122 0.459235
vn -0.046009 0.887122 0.459235
vn -0.162470 0.845792 0.508172
vn -0.162470 0.845792 0.508172
vn -0.162470 0.845792 0.508172
vn -0.146223 0.832064 0.535059
vn -0.146223 0.832064 0.535059
vn -0.146223 0.832064 0.535059
vn -0.100490 0.965801 0.239020
vn -0.100490 0.965801 0.239020
vn -0.100490 0.965801 0.239020
vn 0.015086 0.843274 0.537272
vn 0.015086 0.843274 0.537272
vn 0.015086 0.843274 0.537272
vn 0.213556 0.826427 0.520972
vn 0.213556 0.826427 0.520972
vn 0.213556 0.826427 0.520972
vn 0.311341 0.849281 0.426366
vn 0.311341 0.849281 0.426367
vn 0.311341 0.849281 0.426367
vn 0.295251 0.852336 0.431683
vn 0.295251 0.852336 0.431683
vn 0.295251 0.852336 0.431684
vn 0.136298 0.846839 0.514087
vn 0.136298 0.846839 0.514087
vn 0.136298 0.846840 0.514087
vn 0.311666 0.947468 -0.071889
vn 0.311666 0.947468 -0.071889
vn 0.311666 0.947468 -0.071889
vn 0.371722 0.848105 -0.377545
vn 0.371722 0.848105 -0.377545
vn 0.371722 0.848105 -0.377545
vn 0.346050 0.766108 -0.541597
vn 0.346050 0.766108 -0.541597
vn 0.346050 0.766108 -0.541597
vn 0.325857 0.772987 -0.544342
vn 0.325857 0.772987 -0.544342
vn 0.325857 0.772987 -0.544342
vn 0.138604 0.887057 -0.440361
vn 0.138604 0.887057 -0.440361
vn 0.138604 0.887057 -0.440361
vn 0.193981 0.969386 0.150542
vn 0.193981 0.969386 0.150542
vn 0.193981 0.969386 0.150542
vn 0.230794 0.972579 -0.028706
vn 0.230794 0.972579 -0.028706
vn 0.230794 0.972579 -0.028706
vn 0.331438 0.923604 -0.192625
vn 0.331438 0.923604 -0.192625
vn 0.331438 0.923604 -0.192625
vn 0.134662 0.894207 -0.426919
vn 0.134662 0.894207 -0.426919
vn 0.134662 0.894207 -0.426919
vn -0.045876 0.988132 0.146600
vn -0.045876 0.988132 0.146600
vn -0.045876 0.988132 0.146600
vn 0.034875 0.971261 -0.235448
vn 0.034875 0.971261 -0.235448
vn 0.034875 0.971261 -0.235448
vn -0.009225 0.962973 -0.269439
vn -0.009225 0.962973 -0.269439
vn -0.009225 0.962973 -0.269439
vn -0.071214 0.859986 -0.505324
vn -0.071214 0.859986 -0.505324
vn -0.071214 0.859986 -0.505324
vn -0.184678 0.849915 -0.493497
vn -0.184678 0.849915 -0.493497
vn -0.184678 0.849915 -0.493497
vn 0.033511 0.959403 -0.280040
vn 0.033511 0.959403 -0.280040
vn 0.033511 0.959403 -0.280040
vn -0.002205 0.993195 0.116440
vn -0.002205 0.993195 0.116440
vn -0.002205 0.993195 0.116440
vn -0.153000 0.902100 -0.403493
vn -0.153000 0.902100 -0.403493
vn -0.153000 0.902100 -0.403493
vn -0.141983 0.818927 -0.556056
vn -0.141983 0.818927 -0.556056
vn -0.141983 0.818927 -0.556056
vn -0.215816 0.767750 0.603310
vn -0.215816 0.767750 0.603310
vn -0.215816 0.767750 0.603310
vn 0.030715 0.962395 0.269914
vn 0.030715 0.962395 0.269914
vn 0.030715 0.962395 0.269914
vn 0.113438 0.989166 0.093175
vn 0.113438 0.989166 0.093175
vn 0.113438 0.989166 0.093175
vn -0.139252 0.898568 -0.416155
vn -0.139252 0.898568 -0.416155
vn -0.139252 0.898568 -0.416155
vn -0.172245 0.866087 -0.469282
vn -0.172245 0.866087 -0.469282
vn -0.172245 0.866087 -0.469282
vn -0.272170 0.876348 -0.397414
vn -0.272170 0.876348 -0.397414
vn -0.272170 0.876348 -0.397414
vn -0.304637 0.920469 -0.244811
vn -0.304637 0.920469 -0.244811
vn -0.304637 0.920469 -0.244811
vn -0.256340 0.966453 0.016099
vn -0.256340 0.966453 0.016099
vn -0.256340 0.966453 0.016099
vn -0.211089 0.954931 0.208684
vn -0.211089 0.954931 0.208684
vn -0.211089 0.954931 0.208684
vn -0.098275 0.989281 0.108010
vn -0.098275 0.989281 0.108010
vn -0.098275 0.989281 0.108010
vn -0.105083 0.987976 0.113405
vn -0.105083 0.987976 0.113405
vn -0.105083 0.987976 0.113405
vn -0.126696 0.628198 0.767669
vn -0.126696 0.628198 0.767669
vn -0.126696 0.628198 0.767669
vn -0.186306 0.861112 0.473050
vn -0.186306 0.861112 0.473050
vn -0.186306 0.861112 0.473050
vn -0.212068 0.953459 0.214344
vn -0.212068 0.953459 0.214344
vn -0.212068 0.953459 0.214344
s off
g BarrelPileCollider:collision
usemtl lambert2SG
f 1//1 3//2 7//3
f 2//4 3//5 4//6
f 4//7 3//8 5//9
f 5//10 3//11 6//12
f 6//13 3//14 32//15
f 3//16 2//17 7//18
f 4//19 8//20 2//21
f 8//22 9//23 2//24
f 2//25 9//26 7//27
f 9//28 10//29 7//30
f 7//31 10//32 11//33
f 12//34 13//35 14//36
f 13//37 15//38 14//39
f 15//40 16//41 14//42
f 16//43 17//44 14//45
f 14//46 17//47 20//48
f 11//49 12//50 7//51
f 7//52 12//53 18//54
f 12//55 14//56 18//57
f 14//58 20//59 18//60
f 18//61 1//62 7//63
f 19//64 1//65 20//66
f 20//67 1//68 18//69
f 20//70 21//71 19//72
f 21//73 22//74 19//75
f 19//76 23//77 1//78
f 1//79 23//80 24//81
f 23//82 19//83 25//84
f 19//85 22//86 25//87
f 27//88 6//89 32//90
f 32//91 3//92 24//93
f 3//94 1//95 24//96
f 23//97 25//98 30//99
f 25//100 26//101 30//102
f 26//103 28//104 30//105
f 28//106 29//107 30//108
f 29//109 31//110 30//111
f 30//112 31//113 32//114
f 30//115 32//116 23//117
f 23//118 32//119 24//120
f 27//121 32//122 33//123
f 33//124 32//125 34//126
f 32//127 31//128 34//129
