# This file uses centimeters as units for non-parametric coordinates.

mtllib CorvegaV8Collider.mtl
g default
v -202.586478 15.485329 85.460820
v 222.340437 18.884373 92.085767
v -194.861662 49.932308 92.085767
v 222.340437 38.973137 92.085767
v -194.861662 49.932308 -92.085767
v 222.340437 38.973137 -92.085767
v -202.586478 15.485329 -85.460820
v 222.340437 18.884373 -92.085767
v -103.320060 64.416847 92.085767
v -103.320060 64.416847 -92.085767
v -103.320060 13.809004 -92.085767
v -103.320060 13.809004 92.085767
v -76.078393 65.938087 87.844250
v -76.078393 65.938087 -87.844250
v -76.078393 11.563211 -92.085767
v -76.078393 11.563211 92.085767
v 17.264580 64.343414 92.085767
v 17.264580 64.343414 -92.085767
v 17.054718 11.515733 -92.085767
v 17.054718 11.515733 92.085767
v 70.357160 63.187347 92.085767
v 70.357160 63.187347 -92.085767
v 70.357160 12.107733 -92.085767
v 70.357160 12.107733 92.085767
v 175.709037 64.866951 92.085767
v 175.709037 64.866951 -92.085767
v 175.709037 16.849298 -92.085767
v 175.709037 16.849298 92.085767
v 197.409552 59.963612 92.085767
v 197.409552 59.963612 -92.085767
v 197.409552 16.914961 -92.085767
v 197.409552 16.914961 92.085767
v -222.340437 70.126350 -30.695248
v -222.340437 -0.500000 -30.695248
v -103.320060 -0.500000 -30.695248
v -76.078393 -0.500000 -30.695248
v 17.054718 -0.500000 -30.695248
v 70.357160 -0.500000 -30.695248
v 175.709037 -0.500000 -30.695248
v 197.409552 -0.500000 -30.695248
v 222.340437 13.261070 -30.695248
v 222.340437 30.166290 -30.695248
v 197.409552 56.371845 -30.695248
v 175.709037 64.866951 -30.695248
v 70.357160 69.015938 -30.695248
v 17.264580 95.707870 -48.729128
v -76.078393 98.436081 -51.448513
v -103.320060 82.865723 -30.695248
v -222.340437 70.126350 30.695259
v -222.340437 -0.500000 30.695259
v -103.320060 -0.500000 30.695259
v -76.078393 -0.500000 30.695259
v 17.054718 -0.500000 30.695259
v 70.357160 -0.500000 30.695259
v 175.709037 -0.500000 30.695259
v 197.409552 -0.500000 30.695259
v 222.340437 13.261070 30.695259
v 222.340437 30.166290 30.695259
v 197.409552 56.371845 30.695259
v 175.709037 64.866951 30.695259
v 70.357160 69.015938 30.695259
v 17.264580 95.707870 48.729139
v -76.078393 98.436081 51.448524
v -103.320060 82.865723 30.695259
v 197.409552 58.167728 61.390513
v 175.709037 64.866951 61.390513
v 70.357160 66.101639 61.390513
v 17.264580 88.218201 70.407453
v -68.743817 86.720131 69.646384
v -103.320060 73.641281 61.390513
v -222.340437 49.704712 56.027466
v -222.340437 7.492664 53.051532
v -103.320060 -0.500000 61.390513
v -76.078393 -0.500000 61.390513
v 17.054718 -0.500000 61.390513
v 70.357160 -0.500000 61.390513
v 175.709037 -0.500000 61.390513
v 197.409552 -0.500000 61.390513
v 222.340437 14.267734 61.390513
v 222.340437 30.166290 61.390513
v 197.409552 58.167728 -61.390508
v 175.709037 64.866951 -61.390508
v 70.357160 66.101639 -61.390508
v 17.264580 88.218201 -70.407447
v -68.743817 86.720131 -69.646384
v -103.320060 73.641281 -61.390508
v -222.340437 49.704712 -56.027460
v -222.340437 7.492664 -53.051532
v -103.320060 -0.500000 -61.390508
v -76.078393 -0.500000 -61.390508
v 17.054718 -0.500000 -61.390508
v 70.357160 -0.500000 -61.390508
v 175.709037 -0.500000 -61.390508
v 197.409552 -0.500000 -61.390508
v 222.340437 14.267734 -61.390508
v 222.340437 30.166290 -61.390508
v 217.260944 76.492935 -76.738132
v 175.709037 76.492935 -76.738137
v 70.357160 64.644493 -76.738137
v 17.264580 72.184525 -81.246605
v -76.078393 74.062592 -78.745320
v -103.320060 69.029068 -76.738137
v -209.239324 54.980820 -71.553046
v -222.340437 11.488997 -64.229668
v -103.320060 -0.500000 -76.738137
v -76.078393 -0.500000 -76.738137
v 17.054718 -0.500000 -76.738137
v 70.357160 -0.500000 -76.738137
v 175.709037 -0.500000 -76.738137
v 197.409552 -0.500000 -76.738137
v 222.340437 8.663847 -76.738137
v 222.340437 30.166290 -76.738137
v 217.260944 76.492935 76.738143
v 175.709037 76.492935 76.738143
v 70.357160 64.644493 76.738143
v 17.264580 72.184525 81.246610
v -76.078393 74.062592 78.745320
v -103.320060 69.029068 76.738143
v -209.239324 54.980820 71.553052
v -222.340437 11.488997 64.229668
v -103.320060 -0.500000 76.738143
v -76.078393 -0.500000 76.738143
v 17.054718 -0.500000 76.738143
v 70.357160 -0.500000 76.738143
v 175.709037 -0.500000 76.738143
v 197.409552 -0.500000 76.738143
v 222.340437 8.663847 76.738143
v 222.340437 30.166290 76.738143
vt 0.519707 0.526513
vt 0.519730 0.526513
vt 0.519707 0.526536
vt 0.519730 0.526536
vt 0.519707 0.526560
vt 0.519730 0.526560
vt 0.519707 0.526583
vt 0.519730 0.526583
vt 0.519707 0.526607
vt 0.519730 0.526607
vt 0.519754 0.526513
vt 0.519754 0.526536
vt 0.519683 0.526513
vt 0.519683 0.526536
vt 0.519713 0.526536
vt 0.519713 0.526560
vt 0.519713 0.526583
vt 0.519713 0.526513
vt 0.519713 0.526607
vt 0.519714 0.526536
vt 0.519714 0.526560
vt 0.519714 0.526583
vt 0.519714 0.526513
vt 0.519714 0.526607
vt 0.519719 0.526536
vt 0.519719 0.526560
vt 0.519719 0.526583
vt 0.519719 0.526513
vt 0.519719 0.526607
vt 0.519722 0.526536
vt 0.519722 0.526560
vt 0.519722 0.526583
vt 0.519722 0.526513
vt 0.519722 0.526607
vt 0.519728 0.526536
vt 0.519728 0.526560
vt 0.519728 0.526583
vt 0.519728 0.526513
vt 0.519728 0.526607
vt 0.519729 0.526536
vt 0.519729 0.526560
vt 0.519729 0.526583
vt 0.519729 0.526513
vt 0.519729 0.526607
vt 0.519691 0.526536
vt 0.519707 0.526552
vt 0.519691 0.526513
vt 0.519707 0.526591
vt 0.519713 0.526591
vt 0.519714 0.526591
vt 0.519719 0.526591
vt 0.519722 0.526591
vt 0.519728 0.526591
vt 0.519729 0.526591
vt 0.519730 0.526591
vt 0.519746 0.526513
vt 0.519730 0.526552
vt 0.519746 0.526536
vt 0.519729 0.526552
vt 0.519728 0.526552
vt 0.519722 0.526552
vt 0.519719 0.526552
vt 0.519714 0.526552
vt 0.519713 0.526552
vt 0.519699 0.526536
vt 0.519707 0.526544
vt 0.519699 0.526513
vt 0.519707 0.526599
vt 0.519713 0.526599
vt 0.519714 0.526599
vt 0.519719 0.526599
vt 0.519722 0.526599
vt 0.519728 0.526599
vt 0.519729 0.526599
vt 0.519730 0.526599
vt 0.519738 0.526513
vt 0.519730 0.526544
vt 0.519738 0.526536
vt 0.519729 0.526544
vt 0.519728 0.526544
vt 0.519722 0.526544
vt 0.519719 0.526544
vt 0.519714 0.526544
vt 0.519713 0.526544
vt 0.519729 0.526540
vt 0.519728 0.526540
vt 0.519722 0.526540
vt 0.519719 0.526540
vt 0.519714 0.526540
vt 0.519713 0.526540
vt 0.519703 0.526536
vt 0.519707 0.526540
vt 0.519703 0.526513
vt 0.519707 0.526603
vt 0.519713 0.526603
vt 0.519714 0.526603
vt 0.519719 0.526603
vt 0.519722 0.526603
vt 0.519728 0.526603
vt 0.519729 0.526603
vt 0.519730 0.526603
vt 0.519734 0.526513
vt 0.519730 0.526540
vt 0.519734 0.526536
vt 0.519729 0.526556
vt 0.519728 0.526556
vt 0.519722 0.526556
vt 0.519719 0.526556
vt 0.519714 0.526556
vt 0.519713 0.526556
vt 0.519687 0.526536
vt 0.519707 0.526556
vt 0.519687 0.526513
vt 0.519707 0.526587
vt 0.519713 0.526587
vt 0.519714 0.526587
vt 0.519719 0.526587
vt 0.519722 0.526587
vt 0.519728 0.526587
vt 0.519729 0.526587
vt 0.519730 0.526587
vt 0.519750 0.526513
vt 0.519730 0.526556
vt 0.519750 0.526536
vt 0.519729 0.526558
vt 0.519728 0.526558
vt 0.519722 0.526558
vt 0.519719 0.526558
vt 0.519714 0.526558
vt 0.519713 0.526558
vt 0.519685 0.526536
vt 0.519707 0.526558
vt 0.519685 0.526513
vt 0.519707 0.526585
vt 0.519713 0.526585
vt 0.519714 0.526585
vt 0.519719 0.526585
vt 0.519722 0.526585
vt 0.519728 0.526585
vt 0.519729 0.526585
vt 0.519730 0.526585
vt 0.519752 0.526513
vt 0.519730 0.526558
vt 0.519752 0.526536
vt 0.519729 0.526538
vt 0.519728 0.526538
vt 0.519722 0.526538
vt 0.519719 0.526538
vt 0.519714 0.526538
vt 0.519713 0.526538
vt 0.519705 0.526536
vt 0.519707 0.526538
vt 0.519705 0.526513
vt 0.519707 0.526605
vt 0.519713 0.526605
vt 0.519714 0.526605
vt 0.519719 0.526605
vt 0.519722 0.526605
vt 0.519728 0.526605
vt 0.519729 0.526605
vt 0.519730 0.526605
vt 0.519732 0.526513
vt 0.519730 0.526538
vt 0.519732 0.526536
vn -0.029576 -0.074951 0.996749
vn 0.066515 0.027815 0.997398
vn 0.076723 0.038782 0.996298
vn -0.029576 -0.074951 0.996749
vn -0.143923 0.939566 0.310649
vn -0.143781 0.939454 0.311050
vn -0.156428 0.979416 0.127573
vn -0.157207 0.969740 0.186788
vn -0.029576 -0.074951 -0.996749
vn 0.076723 0.038782 -0.996298
vn 0.066515 0.027815 -0.997398
vn -0.029576 -0.074951 -0.996749
vn -0.097050 -0.869329 0.484612
vn -0.068779 -0.967531 0.243215
vn -0.096868 -0.867886 0.487228
vn -0.097016 -0.868098 0.486820
vn 1.000000 0.000000 0.000000
vn 1.000000 0.000000 0.000000
vn 1.000000 0.000000 0.000000
vn 1.000000 0.000000 0.000000
vn -0.904316 0.088903 0.417504
vn -0.769831 0.092692 0.631481
vn -0.769831 0.092692 0.631481
vn -0.812332 0.092234 0.575855
vn -0.027660 0.809137 0.586969
vn -0.088179 0.651358 0.753629
vn -0.013797 0.039642 -0.999119
vn -0.021938 0.039572 -0.998976
vn -0.004421 -0.928250 0.371931
vn -0.013003 -0.775260 0.631509
vn -0.021938 0.039572 0.998976
vn -0.013797 0.039642 0.999119
vn 0.084882 0.931595 0.353448
vn 0.118132 0.792323 0.598556
vn -0.021959 0.038835 -0.999004
vn -0.020682 0.036576 -0.999117
vn 0.000864 -0.929927 0.367744
vn 0.002004 -0.783520 0.621363
vn -0.020682 0.036576 0.999117
vn -0.021959 0.038835 0.999004
vn -0.022038 0.925548 0.377989
vn -0.012976 0.929517 0.368551
vn -0.000000 0.000000 -1.000000
vn 0.000000 0.000000 -1.000000
vn 0.007639 -0.908882 0.416983
vn 0.015762 -0.717543 0.696336
vn 0.000000 0.000000 1.000000
vn 0.000000 0.000000 1.000000
vn -0.026585 0.873968 0.485255
vn 0.084936 0.995786 -0.034586
vn -0.000000 0.000000 -1.000000
vn -0.000000 0.000000 -1.000000
vn 0.008456 -0.893912 0.448162
vn 0.002249 -0.666453 0.745544
vn -0.000000 0.000000 1.000000
vn -0.000000 0.000000 1.000000
vn 0.748727 0.336740 0.570976
vn 0.095010 0.994732 -0.038500
vn 0.000000 0.000000 -1.000000
vn 0.000000 0.000000 -1.000000
vn 0.166195 -0.946014 0.278276
vn 0.137188 -0.723349 0.676717
vn 0.000000 0.000000 1.000000
vn 0.000000 0.000000 1.000000
vn 0.750661 0.334649 0.569664
vn 0.718784 0.290378 -0.631688
vn 0.000000 0.000000 -1.000000
vn 0.000000 0.000000 -1.000000
vn 0.314051 -0.893459 0.321096
vn 0.163700 -0.733151 0.660069
vn 0.000000 0.000000 1.000000
vn 0.000000 0.000000 1.000000
vn -1.000000 0.000187 -0.000873
vn -1.000000 0.000000 0.000000
vn -1.000000 0.000000 0.000000
vn -0.991106 0.027926 -0.130111
vn -0.094203 -0.984443 -0.148315
vn -0.045768 -0.991944 -0.118122
vn -0.009449 -0.999284 -0.036640
vn -0.011710 -0.998900 -0.045406
vn 0.000000 -1.000000 0.000000
vn 0.000000 -1.000000 0.000000
vn 0.000000 -1.000000 0.000000
vn 0.000000 -1.000000 0.000000
vn 0.000000 -1.000000 0.000000
vn 0.000000 -1.000000 0.000000
vn 0.000000 -1.000000 0.000000
vn 0.000000 -1.000000 0.000000
vn 0.286205 -0.958164 -0.002800
vn 0.277960 -0.960251 0.025630
vn 0.489781 -0.871818 -0.006956
vn 0.493906 -0.869491 -0.006532
vn 1.000000 0.000000 0.000000
vn 1.000000 0.000000 0.000000
vn 1.000000 0.000000 0.000000
vn 1.000000 0.000000 0.000000
vn 0.650597 0.759384 0.007720
vn 0.728388 0.685133 0.006681
vn 0.779405 0.553322 0.293877
vn 0.618101 0.678564 0.396866
vn 0.092930 0.995607 -0.011405
vn 0.079073 0.980080 0.182183
vn 0.267507 0.962769 -0.038940
vn 0.085771 0.985487 -0.146490
vn 0.140627 0.985332 -0.096674
vn 0.212155 0.917397 -0.336710
vn -0.086011 0.996287 -0.003926
vn -0.218517 0.688430 -0.691603
vn -0.268256 0.960954 -0.067861
vn -0.165754 0.869926 -0.464494
vn -0.129875 0.961573 -0.241887
vn -0.156452 0.931563 -0.328198
vn -1.000000 0.000000 0.000000
vn -1.000000 0.000000 0.000000
vn -0.009449 -0.999284 0.036640
vn -0.011710 -0.998900 0.045406
vn 0.000000 -1.000000 0.000000
vn 0.000000 -1.000000 0.000000
vn 0.000000 -1.000000 0.000000
vn 0.000000 -1.000000 0.000000
vn 0.286205 -0.958164 0.002800
vn 0.489781 -0.871818 0.006956
vn 1.000000 0.000000 0.000000
vn 1.000000 0.000000 0.000000
vn 0.650597 0.759384 -0.007720
vn 0.728388 0.685133 -0.006681
vn 0.092930 0.995607 0.011405
vn 0.267507 0.962769 0.038940
vn 0.140627 0.985332 0.096674
vn -0.086011 0.996287 0.003926
vn -0.268256 0.960954 0.067861
vn -0.129875 0.961573 0.241887
vn 0.079073 0.980080 -0.182183
vn 0.618101 0.678564 -0.396866
vn 0.085771 0.985487 0.146490
vn 0.212155 0.917397 0.336711
vn -0.218517 0.688430 0.691603
vn -0.165754 0.869926 0.464494
vn -0.156452 0.931563 0.328198
vn -1.000000 0.000187 0.000873
vn -0.991106 0.027926 0.130111
vn -0.045768 -0.991944 0.118122
vn -0.094203 -0.984443 0.148315
vn 0.000000 -1.000000 0.000000
vn 0.000000 -1.000000 0.000000
vn 0.000000 -1.000000 0.000000
vn 0.000000 -1.000000 0.000000
vn 0.277960 -0.960251 -0.025630
vn 0.493906 -0.869491 0.006532
vn 1.000000 0.000000 0.000000
vn 1.000000 0.000000 0.000000
vn 0.779404 0.553322 -0.293877
vn 0.095010 0.994732 0.038500
vn 0.084936 0.995786 0.034586
vn -0.012976 0.929517 -0.368550
vn 0.118132 0.792323 -0.598556
vn -0.088179 0.651358 -0.753629
vn -0.156428 0.979416 -0.127573
vn -0.157207 0.969740 -0.186788
vn -0.904316 0.088903 -0.417503
vn -0.812332 0.092234 -0.575855
vn -0.097051 -0.869329 -0.484612
vn -0.068779 -0.967531 -0.243215
vn -0.004421 -0.928250 -0.371931
vn 0.000864 -0.929927 -0.367744
vn 0.007639 -0.908882 -0.416983
vn 0.008456 -0.893912 -0.448162
vn 0.166195 -0.946014 -0.278276
vn 0.314051 -0.893459 -0.321096
vn 1.000000 0.000000 0.000000
vn 1.000000 0.000000 0.000000
vn 0.718784 0.290377 0.631688
vn 0.748727 0.336741 -0.570976
vn -0.026585 0.873968 -0.485255
vn -0.022038 0.925548 -0.377989
vn 0.084883 0.931595 -0.353448
vn -0.027660 0.809137 -0.586969
vn -0.143781 0.939454 -0.311050
vn -0.143923 0.939566 -0.310648
vn -0.769831 0.092692 -0.631481
vn -0.769831 0.092692 -0.631481
vn -0.097016 -0.868098 -0.486820
vn -0.096868 -0.867886 -0.487228
vn -0.013003 -0.775260 -0.631508
vn 0.002004 -0.783520 -0.621363
vn 0.015762 -0.717543 -0.696336
vn 0.002249 -0.666453 -0.745543
vn 0.137188 -0.723349 -0.676717
vn 0.163700 -0.733151 -0.660069
vn 1.000000 0.000000 0.000000
vn 1.000000 0.000000 0.000000
vn 0.750661 0.334650 -0.569664
s 1
g collider
usemtl initialShadingGroup
f 1/1/1 12/18/2 9/15/3 3/3/4
s 2
f 3/3/5 9/15/6 118/150/7 119/152/8
s 3
f 5/5/9 10/16/10 11/17/11 7/7/12
s 4
f 120/154/13 121/155/14 12/19/15 1/9/16
s 5
f 2/2/17 127/162/18 128/164/19 4/4/20
s 6
f 120/153/21 1/1/22 3/3/23 119/151/24
s 2
f 9/15/6 13/20/25 117/149/26 118/150/7
s 3
f 11/17/11 10/16/10 14/21/27 15/22/28
s 4
f 12/19/15 121/155/14 122/156/29 16/24/30
s 1
f 9/15/3 12/18/2 16/23/31 13/20/32
s 2
f 13/20/25 17/25/33 116/148/34 117/149/26
s 3
f 15/22/28 14/21/27 18/26/35 19/27/36
s 4
f 16/24/30 122/156/29 123/157/37 20/29/38
s 1
f 13/20/32 16/23/31 20/28/39 17/25/40
s 2
f 17/25/33 21/30/41 115/147/42 116/148/34
s 3
f 19/27/36 18/26/35 22/31/43 23/32/44
s 4
f 20/29/38 123/157/37 124/158/45 24/34/46
s 1
f 17/25/40 20/28/39 24/33/47 21/30/48
s 2
f 21/30/41 25/35/49 114/146/50 115/147/42
s 3
f 23/32/44 22/31/43 26/36/51 27/37/52
s 4
f 24/34/46 124/158/45 125/159/53 28/39/54
s 1
f 21/30/48 24/33/47 28/38/55 25/35/56
s 2
f 25/35/49 29/40/57 113/145/58 114/146/50
s 3
f 27/37/52 26/36/51 30/41/59 31/42/60
s 4
f 28/39/54 125/159/53 126/160/61 32/44/62
s 1
f 25/35/56 28/38/55 32/43/63 29/40/64
s 2
f 29/40/57 4/4/65 128/163/66 113/145/58
s 3
f 31/42/60 30/41/59 6/6/67 8/8/68
s 4
f 32/44/62 126/160/61 127/161/69 2/10/70
s 1
f 29/40/64 32/43/63 2/2/71 4/4/72
s 6
f 88/113/73 34/47/74 33/45/75 87/111/76
s 4
f 88/114/77 89/115/78 35/49/79 34/48/80
f 36/50/81 35/49/79 89/115/78 90/116/82
f 37/51/83 36/50/81 90/116/82 91/117/84
f 38/52/85 37/51/83 91/117/84 92/118/86
f 39/53/87 38/52/85 92/118/86 93/119/88
f 40/54/89 39/53/87 93/119/88 94/120/90
f 41/55/91 40/54/89 94/120/90 95/121/92
s 5
f 42/58/93 41/56/94 95/122/95 96/124/96
s 2
f 43/59/97 42/57/98 96/123/99 81/105/100
f 44/60/101 43/59/97 81/105/100 82/106/102
f 45/61/103 44/60/101 82/106/102 83/107/104
f 46/62/105 45/61/103 83/107/104 84/108/106
f 47/63/107 46/62/105 84/108/106 85/109/108
f 48/64/109 47/63/107 85/109/108 86/110/110
f 33/46/111 48/64/109 86/110/110 87/112/112
s 6
f 34/47/74 50/67/113 49/65/114 33/45/75
s 4
f 34/48/80 35/49/79 51/69/115 50/68/116
f 52/70/117 51/69/115 35/49/79 36/50/81
f 53/71/118 52/70/117 36/50/81 37/51/83
f 54/72/119 53/71/118 37/51/83 38/52/85
f 55/73/120 54/72/119 38/52/85 39/53/87
f 56/74/121 55/73/120 39/53/87 40/54/89
f 57/75/122 56/74/121 40/54/89 41/55/91
s 5
f 58/78/123 57/76/124 41/56/94 42/58/93
s 2
f 59/79/125 58/77/126 42/57/98 43/59/97
f 60/80/127 59/79/125 43/59/97 44/60/101
f 61/81/128 60/80/127 44/60/101 45/61/103
f 62/82/129 61/81/128 45/61/103 46/62/105
f 63/83/130 62/82/129 46/62/105 47/63/107
f 64/84/131 63/83/130 47/63/107 48/64/109
f 49/66/132 64/84/131 48/64/109 33/46/111
f 66/86/133 65/85/134 59/79/125 60/80/127
f 67/87/135 66/86/133 60/80/127 61/81/128
f 68/88/136 67/87/135 61/81/128 62/82/129
f 69/89/137 68/88/136 62/82/129 63/83/130
f 70/90/138 69/89/137 63/83/130 64/84/131
f 71/92/139 70/90/138 64/84/131 49/66/132
s 6
f 50/67/113 72/93/140 71/91/141 49/65/114
s 4
f 50/68/116 51/69/115 73/95/142 72/94/143
f 74/96/144 73/95/142 51/69/115 52/70/117
f 75/97/145 74/96/144 52/70/117 53/71/118
f 76/98/146 75/97/145 53/71/118 54/72/119
f 77/99/147 76/98/146 54/72/119 55/73/120
f 78/100/148 77/99/147 55/73/120 56/74/121
f 79/101/149 78/100/148 56/74/121 57/75/122
s 5
f 80/104/150 79/102/151 57/76/124 58/78/123
s 2
f 65/85/134 80/103/152 58/77/126 59/79/125
f 82/106/102 81/105/100 97/125/153 98/126/154
f 83/107/104 82/106/102 98/126/154 99/127/155
f 84/108/106 83/107/104 99/127/155 100/128/156
f 85/109/108 84/108/106 100/128/156 101/129/157
f 86/110/110 85/109/108 101/129/157 102/130/158
f 87/112/112 86/110/110 102/130/158 103/132/159
s 6
f 104/133/160 88/113/73 87/111/76 103/131/161
s 4
f 104/134/162 105/135/163 89/115/78 88/114/77
f 90/116/82 89/115/78 105/135/163 106/136/164
f 91/117/84 90/116/82 106/136/164 107/137/165
f 92/118/86 91/117/84 107/137/165 108/138/166
f 93/119/88 92/118/86 108/138/166 109/139/167
f 94/120/90 93/119/88 109/139/167 110/140/168
f 95/121/92 94/120/90 110/140/168 111/141/169
s 5
f 96/124/96 95/122/95 111/142/170 112/144/171
s 2
f 81/105/100 96/123/99 112/143/172 97/125/153
f 98/126/154 97/125/153 30/41/173 26/36/174
f 99/127/155 98/126/154 26/36/174 22/31/175
f 100/128/156 99/127/155 22/31/175 18/26/176
f 101/129/157 100/128/156 18/26/176 14/21/177
f 102/130/158 101/129/157 14/21/177 10/16/178
f 103/132/159 102/130/158 10/16/178 5/5/179
s 6
f 7/13/180 104/133/160 103/131/161 5/14/181
s 4
f 7/7/182 11/17/183 105/135/163 104/134/162
f 106/136/164 105/135/163 11/17/183 15/22/184
f 107/137/165 106/136/164 15/22/184 19/27/185
f 108/138/166 107/137/165 19/27/185 23/32/186
f 109/139/167 108/138/166 23/32/186 27/37/187
f 110/140/168 109/139/167 27/37/187 31/42/188
f 111/141/169 110/140/168 31/42/188 8/8/189
s 5
f 112/144/171 111/142/170 8/11/190 6/12/191
s 2
f 97/125/153 112/143/172 6/6/192 30/41/173
f 114/146/50 113/145/58 65/85/134 66/86/133
f 115/147/42 114/146/50 66/86/133 67/87/135
f 116/148/34 115/147/42 67/87/135 68/88/136
f 117/149/26 116/148/34 68/88/136 69/89/137
f 118/150/7 117/149/26 69/89/137 70/90/138
f 119/152/8 118/150/7 70/90/138 71/92/139
s 6
f 72/93/140 120/153/21 119/151/24 71/91/141
s 4
f 72/94/143 73/95/142 121/155/14 120/154/13
f 122/156/29 121/155/14 73/95/142 74/96/144
f 123/157/37 122/156/29 74/96/144 75/97/145
f 124/158/45 123/157/37 75/97/145 76/98/146
f 125/159/53 124/158/45 76/98/146 77/99/147
f 126/160/61 125/159/53 77/99/147 78/100/148
f 127/161/69 126/160/61 78/100/148 79/101/149
s 5
f 128/164/19 127/162/18 79/102/151 80/104/150
s 2
f 113/145/58 128/163/66 80/103/152 65/85/134
